<mxfile host="app.diagrams.net" modified="2024-02-12T01:21:03.334Z" agent="Mozilla/5.0 (Windows NT 10.0; Win64; x64) AppleWebKit/537.36 (KHTML, like Gecko) Chrome/121.0.0.0 Safari/537.36" etag="hC8Md9VMThbtuy_bzRpA" version="22.1.17" type="gitlab">
  <diagram name="Page-1" id="YBQw9c-4AN1KGKGUQ_Bc">
    <mxGraphModel dx="1400" dy="1865" grid="1" gridSize="10" guides="1" tooltips="1" connect="1" arrows="1" fold="1" page="1" pageScale="1" pageWidth="827" pageHeight="1169" math="0" shadow="0">
      <root>
        <mxCell id="0" />
        <mxCell id="1" parent="0" />
        <mxCell id="CXeEJhUWbDnMOtifJaz--1" value="" style="rounded=0;whiteSpace=wrap;html=1;fontFamily=DM Sans;fontSource=https%3A%2F%2Ffonts.googleapis.com%2Fcss%3Ffamily%3DDM%2BSans;" parent="1" vertex="1">
          <mxGeometry x="29" y="21" width="770" height="430" as="geometry" />
        </mxCell>
        <mxCell id="CXeEJhUWbDnMOtifJaz--2" value="" style="rounded=0;whiteSpace=wrap;html=1;fontSize=12;fontFamily=DM Sans;fontSource=https%3A%2F%2Ffonts.googleapis.com%2Fcss%3Ffamily%3DDM%2BSans;" parent="1" vertex="1">
          <mxGeometry x="304" y="41" width="220" height="390" as="geometry" />
        </mxCell>
        <mxCell id="CXeEJhUWbDnMOtifJaz--3" value="SIGN UP" style="text;html=1;strokeColor=none;fillColor=none;align=left;verticalAlign=middle;whiteSpace=wrap;rounded=0;fontSize=14;fontStyle=1;fontFamily=DM Sans;fontSource=https%3A%2F%2Ffonts.googleapis.com%2Fcss%3Ffamily%3DDM%2BSans;" parent="1" vertex="1">
          <mxGeometry x="329" y="181" width="180" height="30" as="geometry" />
        </mxCell>
        <mxCell id="CXeEJhUWbDnMOtifJaz--4" value="" style="rounded=0;whiteSpace=wrap;html=1;fontFamily=DM Sans;fontSource=https%3A%2F%2Ffonts.googleapis.com%2Fcss%3Ffamily%3DDM%2BSans;" parent="1" vertex="1">
          <mxGeometry x="29" y="-460" width="770" height="430" as="geometry" />
        </mxCell>
        <mxCell id="CXeEJhUWbDnMOtifJaz--5" value="" style="rounded=0;whiteSpace=wrap;html=1;fontSize=12;fontFamily=DM Sans;fontSource=https%3A%2F%2Ffonts.googleapis.com%2Fcss%3Ffamily%3DDM%2BSans;" parent="1" vertex="1">
          <mxGeometry x="304" y="-440" width="220" height="390" as="geometry" />
        </mxCell>
        <mxCell id="CXeEJhUWbDnMOtifJaz--6" value="LOGIN" style="rounded=1;html=1;shadow=0;dashed=0;whiteSpace=wrap;fontSize=10;align=center;fontFamily=DM Sans;fontSource=https%3A%2F%2Ffonts.googleapis.com%2Fcss%3Ffamily%3DDM%2BSans;" parent="1" vertex="1">
          <mxGeometry x="329" y="-125" width="170" height="16.88" as="geometry" />
        </mxCell>
        <mxCell id="CXeEJhUWbDnMOtifJaz--7" value="&lt;font style=&quot;font-size: 8px&quot;&gt;Remember Me?&lt;/font&gt;" style="rounded=1;fillColor=#F0F2F5;strokeColor=#D8DCE3;align=left;verticalAlign=middle;fontStyle=0;fontSize=12;labelPosition=right;verticalLabelPosition=middle;spacingLeft=10;html=1;shadow=0;dashed=0;fontFamily=DM Sans;fontSource=https%3A%2F%2Ffonts.googleapis.com%2Fcss%3Ffamily%3DDM%2BSans;" parent="1" vertex="1">
          <mxGeometry x="329" y="-166" width="12" height="12" as="geometry" />
        </mxCell>
        <mxCell id="CXeEJhUWbDnMOtifJaz--9" value="&lt;font style=&quot;font-size: 10px&quot;&gt;Need an account? &lt;u&gt;SIGN UP&lt;/u&gt;&lt;/font&gt;" style="text;html=1;strokeColor=none;fillColor=none;align=center;verticalAlign=middle;whiteSpace=wrap;rounded=0;fontSize=12;fontFamily=DM Sans;fontSource=https%3A%2F%2Ffonts.googleapis.com%2Fcss%3Ffamily%3DDM%2BSans;" parent="1" vertex="1">
          <mxGeometry x="339" y="-89" width="150" height="30" as="geometry" />
        </mxCell>
        <mxCell id="CXeEJhUWbDnMOtifJaz--10" value="SIGN UP" style="rounded=1;html=1;shadow=0;dashed=0;whiteSpace=wrap;fontSize=10;align=center;fontFamily=DM Sans;fontSource=https%3A%2F%2Ffonts.googleapis.com%2Fcss%3Ffamily%3DDM%2BSans;" parent="1" vertex="1">
          <mxGeometry x="329" y="383" width="170" height="16.88" as="geometry" />
        </mxCell>
        <mxCell id="CXeEJhUWbDnMOtifJaz--11" value="&lt;font style=&quot;font-size: 10px&quot;&gt;Already a user? &lt;u&gt;LOGIN&lt;/u&gt;&lt;/font&gt;" style="text;html=1;strokeColor=none;fillColor=none;align=center;verticalAlign=middle;whiteSpace=wrap;rounded=0;fontSize=12;fontFamily=DM Sans;fontSource=https%3A%2F%2Ffonts.googleapis.com%2Fcss%3Ffamily%3DDM%2BSans;" parent="1" vertex="1">
          <mxGeometry x="339" y="401" width="150" height="30" as="geometry" />
        </mxCell>
        <mxCell id="CXeEJhUWbDnMOtifJaz--12" value="" style="html=1;strokeWidth=2;shape=manualInput;whiteSpace=wrap;rounded=1;size=0;arcSize=0;fontFamily=DM Sans;fontSource=https%3A%2F%2Ffonts.googleapis.com%2Fcss%3Ffamily%3DDM%2BSans;" parent="1" vertex="1">
          <mxGeometry x="329" y="-267" width="170" height="30" as="geometry" />
        </mxCell>
        <mxCell id="CXeEJhUWbDnMOtifJaz--13" value="" style="html=1;strokeWidth=2;shape=manualInput;whiteSpace=wrap;rounded=1;size=0;arcSize=0;fontFamily=DM Sans;fontSource=https%3A%2F%2Ffonts.googleapis.com%2Fcss%3Ffamily%3DDM%2BSans;" parent="1" vertex="1">
          <mxGeometry x="329" y="-211" width="170" height="30" as="geometry" />
        </mxCell>
        <mxCell id="CXeEJhUWbDnMOtifJaz--14" value="&lt;font style=&quot;font-size: 14px;&quot;&gt;LOGIN&lt;/font&gt;" style="text;html=1;strokeColor=none;fillColor=none;align=left;verticalAlign=middle;whiteSpace=wrap;rounded=0;fontSize=14;fontStyle=1;fontFamily=DM Sans;fontSource=https%3A%2F%2Ffonts.googleapis.com%2Fcss%3Ffamily%3DDM%2BSans;" parent="1" vertex="1">
          <mxGeometry x="328" y="-309" width="60" height="30" as="geometry" />
        </mxCell>
        <mxCell id="CXeEJhUWbDnMOtifJaz--15" value="&lt;font style=&quot;font-size: 10px&quot;&gt;Email&lt;/font&gt;" style="text;html=1;strokeColor=none;fillColor=none;align=left;verticalAlign=middle;whiteSpace=wrap;rounded=0;fontSize=12;fontFamily=DM Sans;fontSource=https%3A%2F%2Ffonts.googleapis.com%2Fcss%3Ffamily%3DDM%2BSans;" parent="1" vertex="1">
          <mxGeometry x="328" y="-292" width="111" height="30" as="geometry" />
        </mxCell>
        <mxCell id="CXeEJhUWbDnMOtifJaz--16" value="&lt;font style=&quot;font-size: 10px&quot;&gt;Password&lt;/font&gt;" style="text;html=1;strokeColor=none;fillColor=none;align=left;verticalAlign=middle;whiteSpace=wrap;rounded=0;fontSize=12;fontFamily=DM Sans;fontSource=https%3A%2F%2Ffonts.googleapis.com%2Fcss%3Ffamily%3DDM%2BSans;" parent="1" vertex="1">
          <mxGeometry x="327" y="-237" width="61" height="30" as="geometry" />
        </mxCell>
        <mxCell id="CXeEJhUWbDnMOtifJaz--18" value="" style="html=1;strokeWidth=2;shape=manualInput;whiteSpace=wrap;rounded=1;size=0;arcSize=0;fontFamily=DM Sans;fontSource=https%3A%2F%2Ffonts.googleapis.com%2Fcss%3Ffamily%3DDM%2BSans;" parent="1" vertex="1">
          <mxGeometry x="330" y="224" width="170" height="30" as="geometry" />
        </mxCell>
        <mxCell id="CXeEJhUWbDnMOtifJaz--19" value="" style="html=1;strokeWidth=2;shape=manualInput;whiteSpace=wrap;rounded=1;size=0;arcSize=0;fontFamily=DM Sans;fontSource=https%3A%2F%2Ffonts.googleapis.com%2Fcss%3Ffamily%3DDM%2BSans;" parent="1" vertex="1">
          <mxGeometry x="330" y="280" width="170" height="30" as="geometry" />
        </mxCell>
        <mxCell id="CXeEJhUWbDnMOtifJaz--20" value="&lt;font style=&quot;font-size: 10px&quot;&gt;Email&lt;/font&gt;" style="text;html=1;strokeColor=none;fillColor=none;align=left;verticalAlign=middle;whiteSpace=wrap;rounded=0;fontSize=12;fontFamily=DM Sans;fontSource=https%3A%2F%2Ffonts.googleapis.com%2Fcss%3Ffamily%3DDM%2BSans;" parent="1" vertex="1">
          <mxGeometry x="329" y="199" width="111" height="30" as="geometry" />
        </mxCell>
        <mxCell id="CXeEJhUWbDnMOtifJaz--21" value="&lt;font style=&quot;font-size: 10px&quot;&gt;Username&lt;/font&gt;" style="text;html=1;strokeColor=none;fillColor=none;align=left;verticalAlign=middle;whiteSpace=wrap;rounded=0;fontSize=12;fontFamily=DM Sans;fontSource=https%3A%2F%2Ffonts.googleapis.com%2Fcss%3Ffamily%3DDM%2BSans;" parent="1" vertex="1">
          <mxGeometry x="328" y="254" width="61" height="30" as="geometry" />
        </mxCell>
        <mxCell id="CXeEJhUWbDnMOtifJaz--23" value="" style="html=1;strokeWidth=2;shape=manualInput;whiteSpace=wrap;rounded=1;size=0;arcSize=0;fontFamily=DM Sans;fontSource=https%3A%2F%2Ffonts.googleapis.com%2Fcss%3Ffamily%3DDM%2BSans;" parent="1" vertex="1">
          <mxGeometry x="329" y="336" width="170" height="30" as="geometry" />
        </mxCell>
        <mxCell id="CXeEJhUWbDnMOtifJaz--24" value="&lt;font style=&quot;font-size: 10px&quot;&gt;Password&lt;/font&gt;" style="text;html=1;strokeColor=none;fillColor=none;align=left;verticalAlign=middle;whiteSpace=wrap;rounded=0;fontSize=12;fontFamily=DM Sans;fontSource=https%3A%2F%2Ffonts.googleapis.com%2Fcss%3Ffamily%3DDM%2BSans;" parent="1" vertex="1">
          <mxGeometry x="327" y="310" width="61" height="30" as="geometry" />
        </mxCell>
        <mxCell id="CXeEJhUWbDnMOtifJaz--25" value="" style="shape=image;verticalLabelPosition=bottom;labelBackgroundColor=default;verticalAlign=top;aspect=fixed;imageAspect=0;image=data:image/png,iVBORw0KGgoAAAANSUhEUgAAARoAAAETCAYAAADpvMlyAAAAAXNSR0IArs4c6QAAAARnQU1BAACxjwv8YQUAAAAJcEhZcwAAEnQAABJ0Ad5mH3gAAJhzSURBVHhe7Z0JYF1Vnf+/b38vedn3pG26pnspLW0pUHYQBBSwKipug4h/mRlUZtQBBx1GdFxQ0cERFXFBB6UiAg7IWihQutCW7k3XJE2bZl9e3r78f79z7nnvvpf3kpe0aZJyP+3LPds999x7z/nd39lNAGL0MzAwMBg1zNrRwMDAYNQwBI2BgcGoYwgaAwODUccQNAYGBqOOIWgMDAxGHUPQGBgYjDqGoDEwMBh1DEFjYGAw6hiCxsDAYNQxBI2BgcGoYwgaAwODUccQNAYGBqOMyRA0BgYGo48haAwMDEYdQ9AYGBiMIrwSjSFoDAwMRhuSNYagMTAwGHUMQWNgYDDqGILGwMBglJDtM4whaAwMDEYdQ9AYGBiMHppSYwgaAwODUccQNAYGBqOOIWgMDAxGHUPQGExcOPcmOjYMxjH8moydKt8lmKlgut125OfbMKuuAHv2dKPluFfzHedQ2s35drhWVsC5uAT2GQUw51lF7o16w4j2BhHzRdDzp4MIHelDtCuonWgwdpB40T4EhqA5Q2Gh4nBYMWVKPm64cRqWryzDTCqchUUOxGIxmEwyB1xz1TPYsb1TmEeVEeY0c4ENORdWoeDmmTDZLBSPlnOHwPtKM3rXHEb42AQRpGck9K601zXC128wHnHnWnHuykpcc10tLr20GoXFTuGuhEocEjQyA5iE0PnA+5/D5s1twovdLaVO5F5aA8eSEphzbaQyxBBjrcETQs9jB0XhZfuQUFw5qyqRt3o6bNU5iPojCB/th4+u1UdCYDCsNTnI/8hM5JAGA3NK+geB75XvSdH5wx3wvnZcsxmcXui9aa+OD4agmaBYrCbMn1eCj39yFi69bJLQVmy2QZrdhIDR3rzOHIlEcd17/4ZDJS4q3DNgK3cNyBQqo4gzQlF0/+Uw+p9tQrQ7fRXFPrcQxV9YCCvFlY5Ihx+tX9+MSHOyxmFyWlDyxYVwLi/XXE4OTm/v0w3oeWSfkdNPO/T0ZRaL5x+DCQJXiVaeV4nP3DoX511QBZfLqvkQekHCpNoVcXc68tsnc5CEzfXb2tAdZofMJGkMdGz92mYEd3dJu4ZzRTlKv3zWAE0kVdtAOIr2774D/ybSpui+8knzybthmhA2A8KeJJ7nmtD90B7NZnB6oPevZQEttxlMBK59Xy3u+cYyVFbmSAclMNRR7yYt9NP8mbg7Q27CO3F+D2kqLGwCVFVSDFbglV/3b+vh+csR6ZZnRfWvLobJOohmpSMWiqDt62+j5KuLYcm3a67p4eshQtW47KJOgu+882e70f/3o9LB4DRAT13LcnxIn4sMxhXc5vKr315GGo325lIRwoKP9OMCmY50AifFrcEbwkd3dAw7U3ioGtX9iz0oun0+ci+r0VxPEeKepHFIhgjb8s9vItzk0WwGo4v2Iugwgm+DwVhw8/wi2EkICMGghIM6MkJQ6EqYCqcPz2H4l3qeJmSY2hwbvjy1gJx0cWVB3tWTUfCxWXCeU6a5SEzq0vIwImQSB49BXWeoC5X9x1LAcjKpMRgJhqCZIFSWO1G0uw1mqmrEBQMf9YKE0RdIWUI1Ny0Mh1Vh9OfpzNfStc7JTV+N0cWeBJ+dd+M0WNw26aARU5eSh2GhhAcfkqpvaSJT1xkKS5EDrgsqNZvB6JJ4UYagmSAsneyCORJD0c42mCJRctFeYlyQEPrCqEe4a2E4bAYBo7BQmP+oK0CeRWYPVYZFm4xmTgsHPBXagnaRjMKD3VMSkqrxxDWcNBR+ejZMLgss1Tmid8y5pASOBUVizI7B6JDmlRmMN0rybTj2yCrNBgTz7eiaR1UUvdBQBU1vZ/OAo/AUQQagwmms7wrgzvrkHiWGC/FQGoQo6HxJaR2AEFpaWjmqTOEU2VxzWHCDd5r2Lh5dHPWH0fdMA3zrWhBp82s+BiODnjH9NzSaCUBZSm+MvTeIvEOaAGDBoISDVnDjdp3QiMNBVDh1ZISQ0ZmJlVTNuK4sV5j1cIHngj9Ai9DZOYwu9gEahr4qlOIVx0SKm4ozk5Axs3KnMbUtpJmyIEOjutB06L6LPl6Hqp9fiKLb5pKmM3hvmMEQcF6RB4PxzIKZhdj8X2cnF2T6eavd8NQWkElXaITAILs6ckgOrDt3APGwGjp7mL78125pQ6+orqVHuwqdQiY6l80jIa61iMiE0wAyaTbv39SHLzzTiTAJkONFFtz7oXI0lFmFnYVKpi76bDnxxTcROmL0Vo0MkyFoRhXSFx0LiuGYVwRLiRMmCxXcjgD6n29G1BtCrD+LYfzEl2+civ/82HRRWFKFTd/UAvgq3VzKyYFc1JHRhZWwuy6cQHMTaOfFs4V0/+9DvfhD28jmDA1W5VFXGQn6eKe2BvHIg8eEWR9nwGbC526rxpGyU9D2Qs/s+OdfR6TFpzkYZI8haEaNvA9OF70wZidJFyL1QcdCUUS6Auj++R4EdneJtoEk6CtsspuF2v7Zm2fi0pUVsFIMHJuFYquNRTGLBBnH6SFh42Vhw+iFi16g6IWQOjJ6tzTY2r14cFcHfu1MFNbBhEdW8KV157NRS82I+NGvTuCsBh/Fw43VMqZEnCbsnOLEfTeWoKVIN4p6BPC0ieOffQ3IrNwZpMUQNKNC8Z2LkDPMLtTeNYfg+XsT7NPykXNxFVxLy0jQ8GxlLUAK/OoKSUDMIQHxH5EgyqgK5avOS5QwJTiEEGED/UkrUERg6ccIf9KcSBDm7myF82gPFpYWIpDamqedxugFz8kIIdbWhNY2jDhuPlSML7wchKdpp7BrdxF/DAlM+Pwtldg72SHiVtfgdqCsRxpT2tq/uRX+Le2ag0G2DHwfBidF/idmIf+GaZrt9DGD9JzHy6zwTy8km3qt+qMOvfBJJRqDmwSM42g3TJEYWs1mXFCar3mOHiqlg6EEkaKUanOvv34ue4jz/Z3N6Nq9juLJFJMJ339/Kf52do44R4+6/lBCLtJJWs0tpNUYDAuj1+kUYs63jYmQ4QJ4EBFc0RZAYXycDZUWLpRcesSRDRqikGn+DB0t/UHkvdOC0v+rh7OhSwiZMAXxn8S4GH170lDoUpcRpe0oPnewWrsX8rNb4aiaisrzPozC2ecLN0afAq5Y/ctf2/EPr/QmuTMq2qE0Ke6R4vY2g+HBjzWbd2yQBfk3zUD+h2dotrGhlGTMOoTRs7QKUa56KViocKHUH+m/o8UDV30HzH1+nHDZsK3YiaZ8O3ptZgSsZkSpZAejJrT6I+gMxbCzO4qIWWaZTJlHlFW6xmA9PVlXjyicKU2v0axeB55+awmZyL3IDZPVghgL2E7uGYoiGgqgY8dLiPg8FIIEFP1Tmg7//e3FRfj1JdxjN3y6HtyF/hebNZtBNnBO/IY0Gpwsxf+6GGZHonCLry8VJvVlZzsXGj2DffXV+UmkcdPH4SXjRlJUP3G8VxTkMC8jwddUYahqZOsNIHf7CeRRFQnH+rC1wIbfzirC5oocHHPb4CEhEyJNhvUiLqJ8eoHdjAqnGQsKLZicYwaPY9PP8h42WnIyEfdOE46Fxpf2TcY8Ty5MmpARhCNAUI6lMVlsyK2aRfdO99JzIumx8XHxkQAOldnQWD78MTLcW+jbQM/OIGv4mZ9EbjFQ8Kp0Vb+4ULNlBw82i55M5TWdICLY6Q+xKJbTj+GlqaIU2ErVI5MvMajtYJ4Da2bkI0CFUUSlxaWUB7bzT68EKdjeF4zhmRNBDLGEzQBYMA6m7aTCydKHnknazDNvnS3MJm4/4sRE6Q47esnMXXHJCfZ3HkX3njcojuRrhixmfPyfqnFC3xvFQfiCOlKvH9jdiba7N2s2g2ww2mhOEdwVnS1CUyHiQkazp+TvoclwAkf3HaGsSiztHtja+5OEzIvVefh9XSECPJ+J4uFyqdCblTxQR+XHdrfNhA9U21FOR0bdFyNG9YaisHljcPRF4eyJwOqXgi9bIaM0tdTQP940STMRrFWxkOnpJwuF1wfWzncWT0JB3Qrtccm/jI2qWv/9qxZKqz7h9D/lgqnXN9lPrpv83YhRdTpF2Gblw31x5nVYkqpBibwu0Fen0laXhiDdOS1k/ygVwByqTsQCiYGBXNQfn1aIremW2NTFY06JNN+ajypnBcodJbCZ7bCarQhEAhTOhOlu1iJA1akYnF1huE+EkdsWgauLBExvVAgau4eFTQyuzogQOhEnVc2sWvx0yPa+iwIW3HlkJgXlk+ivPwD4SGejexXaDCeEBQwJM9F4LNzo/eQWIRoOIuRJXog9JxCFOxDDxlm65zFEOsLN/fC+cgxWSn9RMWmyVTno6qJ0GGSEHym/YoOThAfnFXx8lmY7NagqhoXKUERpP0yWhfJn4Sgu8/sBbzD+kh+bXoj6IrkTglpEK65gcGnXWmi56ZQLbLmjHDPcM2Ax8zDBRIOqMjd4jqDRK1eta2gMYU+9fhIih1UJ1ZslrNF1T7cjqilf2VSpXnlxPqqieYiRJmZy0X2QIDUFtHV6NAETPzKsfbDWRs+C229aN/0VkVDyRMmg1YwP3jkJvTn6h5wM328upXN2rg0ryb6M4pw6LV+s0cxP4v/+1oj/97l1iA4yVePdDL/5wd+sQVbkfZAEzUeTBc1wH+5w2y5SSb3ehyPAf3b0kImbdIG/1BbgHZ4KoZVDXn9YXo6//HxtNnM66EtvycHCwoWwmWzCj9G3ceiFjj/sR31fPXpCvdi334/DDekmN3JYGU/CTDFQ3D21NoQdym9wdv99OcwWEh5FuaTASMEgepu6PGRQ6aOjhaRCYSIME23rQainFZ07X9ZSnuCpZfn44bXFmk3CPftlJKhuKHHgkrIc1DhIqGjPIh3btrTjAzc8hxBVGQ2SkW/bIHso3/LmZc5zSuFcViZW+ef1cU28+0BKj1IqOoXhtFBHBe8ZKlzMa5W5WFsjpymIJIg3z6IikSDhRL9iexEWFC4QbkqY6AVLlKopZq0AszvDfgf6DuCY9zje2uJFD1WbZGyMiplR5oQbC5vuqTZE7OSmvNLwx/XzcFZfPkwFuVJT0RHjqhMLG9XeUuyGiYWNRqzXC7DmQ3S88yJVoeToXpWqgN2M9941GVFKi5skzI3lbnyoyoFiW4b2GBZqaYTO359txK23rNVsBgqjjSZLLBUuFP/zAhR/bh7c750Cx/xiMXiLpwmIhbgH+dLFySJIVugLY0rB1H9xefbUrd4AGtx2/HVaQZqyMTBBJY5iIWSUUNHDQmVP9x7Ue+rFmQX25HEoJY4ShGMhuIv9VI2i6lo8Cg6tfirB6ihFFbfl+IozP0dXOIav15PGSNUlk2tgl7S4b4cN4AbvXArj0MJwIvxB+iW0LIvDBV9bgzCrq1npYbWV2PHp88vw1ekFWFFoh4urXJng66URNjNnFcDbH8Lbap8sA8EgT9KAMefZUPGjlaj62Sq4lpfDlDPMHod4YcsOzrZJ6nm68/V5W2cW83a00s1xxDT16f+m5InjoJC6VWQrwLyCeXRJ1nP0F5GEokG0BztEu2tT/8ABa3wet+dU5pTinCXaTg1JcNpUvMnxc9oLqco18KqSH+yYLTRGkzvzqFwTCYYo+Zu8JFg6+wCPTxxjnuQ2GUdRNVW/eJIoa2kSNn3lHS8uLnbApjRTJSn5qMziDM2s3lPcT3LXvy/FwoXJ1bB3O4agGQRrrRvVv74YttosCqoO0YPCR86I/D85HyaR6sfWpHaaIc7Xo58cKOKg3/qKHLRpez/xgF6taMRRdqfJiflFsrrEQkZpNHqB09DfqJlYW4ogGEnePE6Epf9zCuagptSNKZNZq1Dnc3xsVjfDR/VjYrAGAFs/V7mSKfeacEl7CZDj0FwyY3HaqPpDBqpCxUiTScgHNqi00Lt18TuVnipV0cMkmIJkEmHppwRJkkBhM/1UxHxkf2Un+L3/7n8vh1ObuW9gCJqMWKpyUPmj88RXdLiodhglMPTtMgMESxbRpwuTjfDhnt3ntXYZAeX7RJWIjhwJxc3lZHbebDLKf3qNJhGeaiURX7zMMWzXoxdO8/LnY85MqsIMSLtySH/MaR24Rs8/HZpMaadYnVmM4uULOh0yJfxHJwCkgzw6iqo0cwLRznOc7kkkmn8iAvaS1vjNkJsypx618MXFTvzDZ+YKs4EhaDJS+QPuxJQkVWU0Brokk0kQsNDg+LiqkEq104+FblL5syELARjlrle+lmaXZU53HieGHCsd5ShwyPYWJSz0AkbhCfWLapPqreJxNKmoq7msTkzOnYw6EjYc29BPjCGthpQkmzcaD13db8IHj1XDlJt+a910mF1ULUpNftI7NMHmJg1JmBLVJ3FTG2QvnYTP0c5jp7jQUm7xM3Wwn3T/0r+cZWg1GoagSQPPwuZtWRXpupwHuKQ4DKapcHzp1kDxR8xwWiKY5hp6NbsBaVJWnXNEC8N/heCjH5c3WeaoiNHRZc3BzPw68pJhE2JJmtU/9g4jJOQbR8vnBqKy7SMeRkOZp+dPxexpeXAkjZqW10k+KrMkl7QaZ0cEdk8EH24qF2NmYBtGgWVJmEiORCVaWmB2yDakhECVfpE9PCmTzKnPVz045a7i09uFmX8cVwx2uwW/+8Pl7PuuxxA0aSj8zBzNNAw4b6Wi5cHB0GtLXSE77/iKUnsQuTxKj0jVptJpQgIVTBecZwao04Xgo1+8PLAbHaflJJa10AsLBRdE9U/ZOU7++TSNRvn3hHoQjiZXfeYVzMG02sTqfIkE8lH/4/jl0RqIIbc9gvzmCB5DEz5UvQEv2g6hx5Td6NskIcySMY+0oSKqQhbTj82MNg8sgTwn2q61O/EN6h+U+qkHqvz1R+Gn2cW9AOcsK8OcObxG0LsbQ9CkwVqjW/mf80wGBmsncZhJ/VeZktHC6lftZzd9oWBTZ0gWyqkuuRC28lcxxTWhxGkZqXaZ42WASRVSORYXip2J3hElMBgWOsrMsN1q4kZlctecfRGvcGd6gj14p3OHuGf9eXnWPMyamqvV9JR76pHRPSudOUTG42Yv7nHsxrWu57HGsQ++2OBrLYuz+Q83UhXlibYdnuHNg/di2riYSHDg2r/ivF6tG1w9OHVUP7arByDQhVOwnSE3C2lj3/z2Cml/F2MImjQkCQidkdELisGqR+GoCWfl9WGKk9ey5cwo3ZNma6c5/4Rfdt/mkEZTZE0UKH3WFqhzUzz0wsQbATqCUUTUILaU2se8wnmaSdLia0FTfyOi2tc+ScMho5X+Kbithuc8sVDhcI39TSK0OjcOOfII49IyvriKT39MvTPlx+4JPxbqHPMPLPW4Nu9ZNJgzt2WJszgwnRSfR8aCIBCEmQf10fuNaoKG066uyLaYUppUHlBCRP3YrtxUGEZvZj8dy5aXY/5C2Sb0bsUQNGkQQ9ozkO2yDhHKtPs8LpTZA0LgqPmDqaQ6+3WNN1Oc/Un5V5FOECoXPl0JmyPeKJ47EcIfjgbxKlUJ9vdJwcX+FvrnNEuhporacd8xHCFBs7ljM/wRPxVYKUSUf7GDtB+tDHESeAQxw+F4oF6po0hMtlSo83Jtbpw1S4aVEagfw2H0doU8NxV25UngH3GtxZEMwkacyZKJC3wPCRYeT9NBYfvonoTAoPcYkZoLp11dWZgjJJ25/iocOCz9+GbVT+8m0LnxTzixnxaG3Ph9/fvXeJGudy+GoElDuD15gFcqKosNhS9mQX1/Ln35o1iU1w1bmrpWqgsX7Q6fHC9it8SQa+bxvckMaAgm9C5J42m0Y5Mvhre6IvjT0QBeaQtiVv4cupK8E1XUZuXVibIRiAaxvXN7XDtR/tPzpqPQlkdC0wQ7aTM8EpjheM4uPhtzChIaErtxOkOiQMcwt6wWZqFRqaenf4psVnaVYj6ym7LroadEcX/K+Sr6TIkRv3EofeIR0S8WjCDmC4m0CDe+QfII9XYkpSAOj+NRGqBIVkq62M4/jkxEqHOLh2W0MBrnrarCrDkkbN+lJY5fvTEFIQXeqN55TplmGx5J2gYRJGETjJjo6x9GhSMAT9hOBZkzpRYgDaJB2CELUB5Vn9pCDtkexOeo4whhsdVLf15uO44NnS24qGwSLNpSCg6Lg4SIBZ2BbjEgz26yI8+eGIfDwqPcVYHJuVNQ46qOay9KYMXvndJ4nKphO3t2oNHbRPcTRk1ONQ52NaGHLy7IdDPp3PVu6ihXAGyy9eDS0KSk0LFgWM7o1iMEAR21wt+z/y0RExNPP/+zWGC/sQwxsQyqFiufw+enEyzKLx0qjMaMiybhwPQylK+ahNLlVSg9txqWHCtCXX5E/AM/KGcShqBJQ7DJg/wPTKdMojlkCVdJRLsN50fdub6oVXzIWGiUUFUqELaStkMuKeEUIfKrcgRFHrWShDnu5y1CtIDJh4wo/7iASoM3Esazx4+g3tONhQWlpKWYkWfLh9uai7ZAOzqDXSRUJsGsCSKFKJji/8CIWXPY07MHzb5msaof4wl7UJtTi7DFi30NveQSTx39VAJTj3rYrvyYhLkZPnw4NB02vargDZBEldpYIq7EOTwwz9u8l9KqwiR8rUUWFC52wl/KOyVojvzsUwWK3i3pKDxFEO1kaSSq8mz48y6qwlmp4uqywpprQ96MIpSePwm50wrQf6QHEd/gDd0TleQcZCAJRRHtT6OSDwJ/zeNVlkTeEnB2awo40R20Cq/pbg9KbUERjgVBqhbEw9WCupbmEtvAzMdxMipU0ipxjBbnYA3WDAuDvX2d+Mr2dTjq5d0BTChxluC80pVUHVoshIyqOimUXR31AodncHcE9YtLcRiqqsRCmFtRK1ZvGAiH4Tj0x1SUn97fhDCZ/2A/qNk1QvS8RHAtrP75kjka9CIa74aXcaoYbflWOLoDsIoCn3xe/KiPj2G7EjIcEZv5xw7KTO8n73gvkmdq8Qn09OiQP7MI8/51ORzl6eaITXwMQZMOyhd9T8vZvYo0zStJpGs3SeWAL5e0GfnIp7q8KCZhw4Ig3bneYOLVlNgztxmpM2MpI4WzSY+eMIX/5p5NeOEE3Tedygtd5dl00xcIvUDRm5XA6Qv14UTghDAn4Bs0wWamr7fVjRwn31c81fRLTrdE76bM6jjwnDesxzUTQdUmoc1wECrBMW3hciFwNQHhadoljhKOT6WHgvBqgUTR7jbZViPOoSM/T/0zZbPyY4RZxq+uo7B1+lD08iE8/1Y7+uMfBN25MrH034y5X1oG8zCWhZ0onHl3dIrof75JM0kG1Qx0+U+vnaSewg29e7y5shyQJ48Adltk3TxVkHUEE/N6cihMOs1HD/tx17sKEQ+bEm861LX58PjR/fjjUa5WJE5UQkWvwaRqM9xwvKN7Z1JZZNg+O79OmDlNc6em6+bV35c+AjYruzpy2GS3I6Y+RDQzT6TkhxvLz4Gp2A0z75JQkifMnGa+r2Bfhwir0q4XmrYa+dzNpNU6O9QIbfLXP3t1k+JI7nq7Fo7XS3Yd7kLJ3w+g4M1GWHwhPBMkoSe8tfC660o36V56XuYlYScqhqDJQK6rDOfk3qTZBke/5q++gCZMCcIxCw6RsGH4tLpcD+xmKgD6PEf4dGNWeKU3BwkbEXe6SAn24673uLdKR0q8SWhB+Nr6YC+3NpNmk5iprYSKQm9X5p5gN1XDSGiyVSc1nRYHypxlFL/8t7B6iuYjAkpjHLbr3ZQ9Naxyl25cyRHtQbzVSiAofWwW9JhCeMvSip869uCfct7CR2o24T2TX8dnr3bhPy8rxm+X5GHbJCedyZ8AxgT34sScqvxD3VQl1dpxdEJEHNVP705YPQEUbDiKkucPIHfnCRI48kNyOGrFXt6RT7uSvCeF/v5MKDtft/j6GYLRGJyGoklTcfvTm1BVvBAVrjk43PcmZYWUkb5DYKEzeI3ZMJVifZZi/CRsnKQB5NgiQtgU2kJoC6YugRBDlTMx5N4XscBLmTWeHzWyT1Ea0pys7nFfXxcuLK0iAZcQeOlQ2sAJ/wn0hntl+dNFfFbhQtgtduHGBdpOVZl1e45ovgoOrwpbuiNjwrmTnfj65eW4bq4buTYzjnQHEaRyzCn8dKAO0W4POi1B/KLoIL6Xuwc/t+/F363N2GHuQovJi15zGCESgl6S3CfcNuwrsWFdrQuvzsgR+1jNbQ8hb2UezLpdHRztXviqdMuEKOGizFQVsvb6kbO3Q+z06TrYKXb91MOx/W/Aiu2i2sw2GX/iyCj3GMxWM068SoJe3foZgLwzgzi5JWW44/kdsGlLDXAB6Qw04pmmryGkTSIUSM+M1Nj9qHbxoDdgR18+AgNG+sUwn7SZHF7ajegO2bBf03QYjnpJfrc2dH+gfyq5pghpDgG0BJzwZzuqcAgKbXZ8Z9EqYVaCQpkZvd0T8uDtzq3CLta9oYK7oGBBfBU+/Tn3rXkBXm2jN/YZ/GFKbePfLyvD0mqqDqUEW3e4H4+/7sPtXTPw9cIdkJUdFd9g8TIJfx6XU9sXxh+XyoXb9R+VUK4NnQvLNRvdH0k3Gwkgx9Fe2Nr66X7Vk0hPlD42F3RzM7CKU4XWp02fZmDvA5vhP85byJwZGBqNDqvThS++vAd2l8wUWhaEy1qAWvcKHOp7HZGYmnQnD5ngwl7pCIhgPH7GQp9HT9imy5AmdITs5BcUwsRp4akCPF7MKjI5h6u083YmMjTTOkDrkcmodfkwNcdLGlQE+dZw2nDZwu08qhrnj0aQa7ZhuruQ0sMFXnrwUdmVmbUWty0XQRLGebY8Mb3BbXPHwzDqnC1HGtHv1/fq8DFd4aN3Qg/gwfdNxpwy0opEMArHBu1YW2THVYtc2F/diVeO6OcvcWAVF8edHK9E50/GbocZr3piuLGAUqkTNBZur2nug3NnK3L3tSOHtBbH8T6huXCodDEr2G9dyIIX6ZccUpn1aUsce/a0I9gx+MDRiYTRRqPjrOs/CkeO6l7kDCD/8q/AXoX3VN9FD4wzTAJdc4Q6RcBjYU6QdqFgoTPfzVMREoG4G3tnX15cE5+c44eTSrpq5wmJpeIkdv0kKw0bxbDA3YtyEkgKqR8NH5WsVGXopbaBbTX6ozIzPFL4rKLFQsi4LLKtIzUMU56vNLNk90RBk+7c+fKz66tQU0AGfiZKyDCJRyOEwsopufjdh2rwoYV5JNTZMzVuRrml+iUi20/fkbuODTzXTNUjC2/tor0b3eXTXknP3f0s+PVnKPhMlVblL+1m/b7pZwCGoFFQ5rzo1js1CyO1Cn7pbOLXX+qaifMrbk362iU14urNRKPfKSZXKnitmYVuj2i/UQRJIDX0y0LJIac7E+pykNtkNFizYa1IYaOq0lkFvUITUrDvHo9sT0gSgCno069Iug8dHUE/elL2QdKjtBU9euGSqs3wcWo1j7pmf/ZTCU0283rvP7yuEuVubYkJlWYllQVkVgKIKHBacPPZRXj4A9Uo5gYygT58OlL9TXiZ6l+NQUqp1hXNR/0mfKmpVr90NETM2tQp/qN+qaGVPRFrNDjwwzKRMQSNRuWchcir5G5FWSTkX37lKhPIYjKr4FJMc5+ruQ0On3nclzxEy2omYZNPajdJAlXg28IO0QbD5NoiKLbJ9ouAynca3DvFsNBZmNcXT5mCq2YKveBIFTr6nrFUBoSl3/6+HnH3CmVWgoOPen89en82M8UuFqwcnu3pz/vqxaWYXGDnxMqfIi4k+Ui/NEKzOMeKRz5Qg+9eXYZCsYAZh9HFkZFEXP/dSjat3qrvVWT0MenNHEqFVOZ/7qV7FY56H4bPZDMfVSzKD/A28wjqMwdD0Gicc9Mt9Ff/FeGXLjOCzAbyLxeXVZX/RFUDrZEzTUZX8BktYV7MKjmMzRQV1ah4ASLvw15XvNozPadfVLEiOm2I4aoSU2wNii5vRoVgzam+P/2o0lRtJW2ataRw2FTfJm8feWsBCCU8Ek8m4ccowcL/GPZXYdjN6aCqhLj3NOmgcNfOcWNZjXYvnFaVXj6oZ0ZHVY0R/jp3hq8zp8xF2k0Nzp+q2qzU9dQxUxqA9b4YfJpGE/HItrbB4LmjWgpEWDb308NsFe9M+ejRpyU59kgwTNdMaFBnAoag0SioSoxdUK9eFg9ZYGRWkUeLyYJlZR8V+Se1h4JJtptwuC8xNkPBC2PNyPGQryRMr2Kfxy3iZLcqh0/0VuixkUYjekd0S31yerhs7evPFW0+Q6FC6DUXkV7dqTovQXuI19SR/xRKcCjUk+LlJfb27kWzt1nMcdKfp45Onoegu55ExldGVZ5PLy3SZIt2jbgQoZ8SKnQU87+UnzwhcdSwkUT+yoUVeOiGStTkc1WUw2vnJKE/LwbeRPiQplLyWBg26UOwWU2VYr+Iw4SD+Q68XO3GYzOK8LN5Jbh/URkuXuXG4kUuzJhmR1lJpqECKenhXoEzrGSyXmn0OhEX/b+vwlVYTBlIZidZcBiRpcRRZTQ2Fdprsbv7/0hbGXpOlJ9yTbk9oYUoXKJ9xYS+iMyA3IAcjnDcYXijFtJwTCjgZSK087pDVjGWpsbpV04iZYdIQPVq7TlJlyBPYU+5LpNaHRiMUrsLy4orhDnxFJJhd94VYVPHZnhCXnSFunDc24L2QLvofeKZ4SpkOBLGm/vUFA/5bBmb1YT/eV8VcrghVBMm8SOjFyKpfoyw85F+enciz2ElTSkPx/pCaOjSawsqnDhJGrVjjsmKc3NJz+2XGo0QLFoQDt3psOD1SjeemlqAtTX52FdegI7CQvjd+Qg5nAibQ2JpDDcJz5JiK6qrbJg+1Y7iIgtOtPAsLT3iCuLI76bioskop1/RonIUktAK9QcR6gnIIBMQQ9BorLrtX+DISfSGcMGRfxOwTbqQD2XkSDSEFt/upDDpoS99mDIbL/3Au/VrbS0Mz+j2Rc3wazvdc/c2Tz/gru9Ca4gKaaJQdIVspDFYRA+WmbQdFkb7+tzoi2X4UnLChkic6MxioSPzeFrmFxRhQUGpZpMkPxlJT7AXrf42sTa4gILwZEqe/8RLeuZYVdXOhNd2H9LMjImSYMJP31+F0lxd469ekGQSPGxXZuGuHfXhlT9x3pRcLKq0Y3dbEJ6AppKIe5H+CUggktr3fic9fx4VKJ1EqL2FTjw+swhba6vgrJqDSYUzUOuuRU1ODSpcFSh3ltOxXOwCUe4oQ64lhz4S3fIRUzpyXGbMmO5AvtuC4yf4/XKsWjrJzIKGN8PjgXu2PDscpTkoXlKFsvNqYK/Mgbehd8I1FhtVJ41wQI3BUC9cvn628zG5YEnbFPc5wqby8mB0kwAJkEYCXS+RYobLJ8bAKALaNPD4y4nHL6sL23oLsLUvD7s8eaQtSQGVCrfx8DgcLrapDbx6uDtbNA7rb4/gc1QV8OxCqc0o+O5V1YnN6tkUOgqE1pYmOuzu3Y2QmDEdI6HCz4DP558MecP8PLGMQvxhiki0WPRmPrJdhVPuepQfw/76eIj5FS48RJrT0hr9IDqFOjdGwoEOEaXZAofzHHh4YQ02nbUYsyddgLMKF4lVB3nCKD8r9Rz0uKwuVOVUY0XJCpTyQmEUvQpVXm7FRRekG4Sp0sAh1Y+yjsuG0rMrMf+u85AzNV+4TRQMQaPRum8Xvd5E8VEvO2FXqEwA5Fq1CYJ674xQHT6lB0pholI9O9cjxtDoibcFa0erdmlui+E2ncGYmePBZBJgk3P6443BKro0Q3IGwOeo3qk8KxWk+Nn8BBLPQD4zaee2q/mF80n06TvwOR4ZTsyFong6eeKjiI9/siB/eCE3ruvP0tALDb2/EB4csc5NXIh+KYIlyV25kdbw9csq8KFFasdKzT1+n6SF8mm+kGjO/fm8Urxx9lJMm3QuJpHmwvfKQfm5RKNRdAe7SSZxZVedL2E73zsvEjY3fy6mu6fLq2mXcznNuORCJWySz02g0ibh5YFmffZsFJ6dGK083jEEjcb+154fkEUUqiApVNFyWgpINZ4pHXWoM1M1CS9VcToCiS5oPdzdPc/dJ7ZIUVhUbtQwpdGG0jHF6SXhIDWkqJjIJ1GxqUF5yfebHi4oVS4581nZUwuTnkJ7EVaULkeZo5QEJ89x4jJtEotp8Yp9bO/q69dKGv9M+Mn7KuG0caLIVwkJBduVgFA3EBcYmp86J9XMcLi4u2ZW7sTNi4twyxIWcpq7DlZodhY68KuVCzB18nmoya0Ss9QZ9TwiZN/SuVnMXD/UdyjuruDq5GHPYXjDXnEJXmmwkp6NSgbD+15deL5+SY6BaRFpF7AfvQF6XLWr58DKQwAmAIag0dj94jPxAVoSNstWGlWwlIBhhAsJh+UFn6CClPwYVZiUTiPh3uTPYW08LSxsFuT1xkcBu1IklVw2a3CqHH4xrUFxIpx5OkL8XjKkh1lVOnDJgtTCpIhEI+gP9Yu1bHj/7WUkcM4vOx8rS1ZicdHZ2kMjgesLkFlaVi/Iw5RCLixanEKg0E8JBk0gpAqIJJRb6pHP0Zdo/ansroX7cIEJufGHII+8jM3CJTk4uHQVphfOFtWjrR3b8EbrevjCiakOx7zN8Efl824LtiVdw0/hdvRsR1N/M3Z07ZD5iP5Py5tJ7zo5z3C7zcL5rPFyBMlpkfB96O3kQvXUObcv1WzjG0PQaPh6OuHr7dZs/EJZ5U1GCZwEJpQXzsE0m9y3R7VpDEaIzjmqbanCpJ5hNUUxl6pR3PLisif3aPFadwpVLvTnc5f4JGdiFC9P5PRpjcyDwQIxk7BZWjS4eq5/Jgc9h7Clayu2dm5DV6BL+PEzMcdbhyVdfu6elxe8fn4+GdmsxaOEg3LTP1Plp56DCEM/FV6FVXZGHZlUd7KbwlG4tx3HRSUkPjXlIMdlwhUXFuOqmech3ybbQnjSqCfCW7XE0En3xrB2c7j/CE/gFnCVkZOsBPGOnh3kJ81hqlZx1YphoTU1d6pIjkoyU11phdOhf1bsyeerQMrOsNkEa54dVtK6xjuGoNHgbTae+6+vaq808VdmGvVy2U3+k2bpd+HULyLPUk55Vx8uM61BJ335ZU9R/IxI4gzWaGbn9pIfuekG7UV10kBpS8plspOFTGLOE9PoTR6/M1ia9NqXuszUnDzMyZfbpKj75ueRuP9k+yz6UnP1qJ8K5M6eXWjuPybcGRWG2dPcQn9N+OpFpch3cOHU/MTz0y4u3MjMbrrnKiG/1FKqNzN6uz7eFOydckzS52MBRGeZEJprwfxleTi/crkQCOkIaRNruXGbr8KX4kvw/C51n1s7t8IfkeHY32l2yHYdDe6Z4nN4uRt1eyyUZ89iocFxqPTK+BLo7RSGzsmdrFvGYpxiCBode55/Cv5eHvotXzL/lYVJ2bhYJWwM+/ND/MDUH1FGS/QEKP9M7OWV9vSl25J8Rq41Krdn0XWFhzJoJzNy+kWXt57+oAXdEe7F0RyIodKkUMm6sKxaGgh55zIG/VE+H62KSZl+eeky5FrcovAc6j+Upk0jgt7eIEpyzTivlhtByZ0D849LJMUjEKVPM7O7Ko2MMOvsjIoj1czo41WQVWgzm5qFtZjUkilhetz0Ht7q7MM9O1/Apo5mvivhr8YBcbQqJm570te2uUub75M34vOEk/fkmkOar/65ceMwCyaxTbgWjg9VlTZom2mmoC6ku6CWEqt7/LfTGIJGRzjgx+sP/5BM8gWqfKJs8hUr12TMFgtunPoAaSPJ0wD0VRJ91Yp7jnb1yQKZLbzuiR6WTTyVQc2NYvgKHKopqGkz6ZM7JNVON84vnSzMqrDpEYKF/ilBouB7PLtoMRYVzhdrDqu9uFUc3J4Vobu/ebGcwiESqC+RSkjES1+KHyPc6CfsunD8U+eKMJpZxanCiSdkgrOpVyzqzi78+4iPK7ZsYq0lij8f3YGHDm5AR8BLVVoraXi1qHJVotY9VYRhDcWmaSluWw4qnJXi/FZ/q3BjbYUvV+2qog/HwG7sfJucua+SpoRWQUG6D4pMV+LIgeUJvrbxv26NIWhSePNXP0bLvp2aTX6tFTITSrt83fIvh2E/hyUHq6f9N2W+RBuMXmlJncwYiFlwxDNweoI4JWWeE6N2WeDM6zJFsaigR6wnrIev0OJ3xEcbj5TVk7g3TaZXPQO+R/kMpBv/e6frHbx24nUEtGoCw8KmyFGMs4rOEpoAn6PiOO47jkgkhstmkLqvShn/lEDg6IUw0FDPjN2Uu95NkdZNOw44l8x0zKlvk07a71pPSPT0xWOgcw71d+L+fevoPo9jsnsyZuUnehlZaC4tWSq2/F1SvETcI/8LRUnw0xeGL1lFwmdG3gztjGR43R7GrP8aEZOrU6tsyj85HMN5KtiqX4dnfGIImhR4z5/ffeZ6BPo9ItPITMd/1UtWhUZlRylkZFj6SlK14YPTHqT6fUoD3cA8ImiPOnA0ZXyNCKpVmeKZnlCTCMttASzI701a20bRF7bgaEAKL70GNRT6qGqcuZifn1hEXAkXRt67hHeh5AZSvsy27q1J2o0Kx0dl5ngOHGvHgnJ+NuTGJ6pfHJ1Zu1+B3qzCK7d04fgYj5fMyl1zy9vaApMa8avhoDC1Yf0dsom0Njo+1rRdVKUY9Tz4yAt+FWqrCDLsxoKnxlGDpUVLMcMtBZP+GTJsd1Ae4WSpOW0quQWFrNHowytzqhvFQodoIPk+xiOGoEmDt7Mdf/7XfxB7cCcynRIm4vXSX/ZRvsmhnNY8EjY/JUGgEzb6PJLC8aADTZ50I0T1MXPPhQl1Lg+muAZ+wTh69j+gLfcpUqgKVxYozSvHYsU988+lDJxIsCp6+iLIcDuDiU7kywSjQRzzym1P9OFUAeMju+9BN3bnkls8iGbgSNQl2Szs5KDSwUdxP/rw6gRCH05/FOeQOX6+dHMcT78MwxVeWdVLID8gfP4TVJVq6FM9k5lh4TM9fzpybC7RVnOw7xD29+0Xfup58LPQNw6r5DJ2mwrFaGkecJR0bmkxBM1EZv+rz+PZb/4LvVd+5fxypZCRJv6rsgIfExlDZoMYXJY8fGTGz1HuTDOgT5+rCD67JWLD3t7kfZRS4TWIC+y6gqCrXvHYnP0krMJa/UqmY+C1huLyilqRnlRhof4phI3itpisokGTy3BDfwMdtYKpoeLhY0egA83+EI5ZotiztRVm3oOJw/LJIp3aeYnTpV8Sek+NuJM+bMp58WuQxvBmU7xBJOlS9HvPgJ0i1bOgvxT4D03bENZ2RlD3Jp+MjEnv1uZvFZpei/84+kngiCqVjlBENuCLZOlkBT9XmVSOS6VQHRmZHv51bOYevPEPi1RjUmUGju3ahpDXg5nnX6a9cn7ZqiCpTKCOMkNKE8MTBW2YmX+JGJx1wr9X+CuUAOCjcg2S3G8P2pAvepy4JZH+q+iJ1Nnfyp2D7Pe40adbkW+kNHl7cWn5FLoW36X8xySlnf4pO3+x+8NeUY7ZzUr3mm+XvW/68/l4qL8RL7VKTaKZyvMnWvsQcVoRcdnkvYh7JYM4cih5rkB7XtKfAih7kpl+en+9n3a0t3iQc1Du65QOF53zmzx7UtsanaylxIRANIzJOfkoc8j1kKWreveJf2zPseRgSm4tpuRMQaWrMlmDoX+8P3l/1CPsKukMHw8eCVLyVSKErzSKozT37u9C68uJpVbHM4ZGMwTFvk4sKuQxufxy+YVLEqZkd0bapNDhAntWyQdx3eT74u02QrhwISBSqzfBmAW7+nLjW+KKQ5qGYQWvK7y7Ly++TISeNE04gsyxUbUxEsGGzkQVSP1TyOeQYGrulHh55t8xf0s8jP7cQMSPxn7ZG8O8TTlvV9iEgvpOuI9wdUSLgBFHnTnJXTumPDdBajiFLmzuXtkAzCFEKK1ZSZ3BzbCzQxw+OQ4Zg/z7QssBcVT3pj+qf/wMuLGYY2HfdNXYQDQQT5o+yeymKU069OdL84mXk3dTHc8YgmYIJk+fiem5VpxXkthGXmYkaZJIm8pU+oImbVGUOKeJdhu7OTdtpkuCcp1+zpN+LE38kkRvyCqEDC8XodDvwa0+iPqoGBVCaVWMPsyfmvaLmoVeqKQTHuzmsDhRaOV7Ek4kUAJo9+v33pZ0hbqxsye5WvI97YnmtvSjaMcJilyLRH9MdeNrszlVqOjDMmnC5O5ug6VPVldUSJIFAmXn4zLR5qGLK8kMqhKxBifd9M9IDy8AdrDvIDa1b8b69vV4o/0NOd9JB6/fw9Hw69W9CtErl4zyTLj723zoP9yj2cY/hqAZgpraWvprQoXTgssrnLDTO+fMpSpJstAlFz5llhkkYXNa8nDT9J9hRt4FIlwmjUOuJ5zBU8tzhzw52Od1i+qWntQ9uBl9THrhohd4bFI+gShpNR1HdSmHGA/DEwj1sD9/tWfzjG06WUXd4D0SvyjfZ5Tiq+/dj2MpiyC/QUlv1aK0e0Ioffs4rB6tm1wvKDgyNov0ahdis/op4mHYLA/KbukPwaVVmeJe2o/tyo2ZFlb3qXeVsEtUqUGE/r3zP4Zncm/s2IRm3zH4oj4xSDFKktuqVZ04HLfXeEnQcJJZYU2eZ5fpygoTnKUuuOsKNfv4xxA0Q7DkvAs0kwm5VjPeW+0CT0fh186ZTL5+/qt+yi9hU1mQf1azHRdV3YFrp3wTdqts/E2VKRZdRtbDebE9aMe27nx0RIY3GlRdI/4ljhfiBPpkPNsi9x7nlPN9vtW+ERvpp7qw5R3JZ8Db3s4pmBtX97nhk7/W6tyecC+6Q1EqWCk3SlE8YE5U+Xj/pJIdrcg/oNOIRDq1tMYFiRYP2/X34SVNhBeR4R8vasVhtXNyd5HGpJGUCs2id8uPF/qkkAJ2yeGdNyle9QzUffI/htusFCoMz9i2a1VnDsdzpzh52usQ6VTmKD0naVSe6qiQ9qorponjRICfQupdGCjo5W9u64PVmjyAiifKvXDCrys4qY9R2WUmYzjryEwn3dkWiQbxRMOd6Asl9xzYeSuVfLnLgYq1N2zBvn4WTIk4ByX58kno42UBpG/45InjMVJPWCB9e8H5KHY4xRf5rfa3xH3PL5gnFntSqELG8EzmA32HRS/UJNdkTHXXCsG0gQTUC60+NPsHClDujH8nEhIFV0/YaUXnonJKC0WmSiCHISHA1cPouk5Et/Yh2uCF6QRpWwESLrzqHAsJDk5BTbyOTh6lj2pLjhITcuZYYXabYS83Q7XL6p+F4vbSXGxOGQal5+zCGnx4ykJhVvevfw58z22BdnT420kIO1HlqhLTDfhiKtzenj0UJrlRmm+Tn93e7jD27vHD4Rn4vGSKJRFvEDvufVOzjW+MXqdB4Mz/0c/9I5yulGkF5M7tNr2hGPrCUquReVtmAmWWGVCSyIgqNI+jsGJO4XtEI3Gbfz+5yD5OznDVaSZI+jMt2ZmORH4cnJRweqFTm5OHSfTjgtPkpaoUpYuH4rOgUffKsJn/8Uxnm1nqYzPypotqVbOvGR3BTmzrCSJEkQtBprsGd/j2kmJ9kXgmCcxUfck51ifChnJIe9vrQfTXzQj96DDCv2tG5HUSNAf7Eeug58S7XnJ1R0SReOakGiDmo2caiiDSE4b/YBD+PUH0b+ddBqJwTh34PN9w2fCI2yIFH8enRaa/30tKp6HSJUf1Kne9P5/L6++UOctQ5CgiTYbSn/AW1dD6vv0kMHWXoD/ikuSwrz+CEy4zQg4T7F66H3FfHEpFIs/yn+hHx0bZcD/eMapOg8BfdYcz/ap4PKFuRYkdiwvtJDC4dyHxRVPZQR7ZnZFfvYQfu0fFuQuLr8dHZ/wKhXa5E4NJtVBq8EfaE00dli61j6HIJkym5qCdvfKL69O6r7kg8MA8RgpR+Y/N6l91Tg0WFi4QAok5SgJqDwkZu1lu15umCQl/pIh9adIZJQ0o+utjCH1oGwJ37kbo5VZ6ECSaeJcAThBdT15fkXwj+kvJ0BQn/Y0Gw/DuJI10j5x9zfDxIFWNv1Qku9r5XvQRCDtRYnPhrGI52VTdO6OO6pko9GEUfWHSxCj9POSJnykHF0eCNZq2oAwfyrOgc7oNwVyVH9g9EZfRGHyGYLPb6ZdZh+ZMND3XgqsqHaAPkJapEllBmmVhUEi7PowMxQXzhtr7sZiEjon0euGvBeLCmbo3FJO6fW06sgmTJmrBkf4+cWQZoAbl8f7aitQClFrA3unaRtXLEA77pHDiRm5ebD1Vj/DRab/hexbCg68TQ9f/9eL491vQs64bUaoiKJKvmEB/C4kwA2+MXdiff2G5rIxwa7BY8LEKrt6knJNywRWlckDjAHTh9O889f1zuAN9B+h5Sje+nCYzBT1U/fOQlhyHwvVOssFXqF4kn2dCqC+A5r8dlE4TgCyy4buXXHcerLzU2gB0GYFeup0yw1VVLhRYOUvJjCB95DFBItPJUMrG2VHGuaT0I7hp+s+Ra5utosFRvyvpioORTjuJu+n8UlOm0Lu7LVKL4t4SbuhlYaPaZ/Qp15sVTf1NVLX0YH9fQkgw3JuWS5pNyqoY+AU9Q25i6d/lQ/N3WtC3iapN8d6fzKhrSvGdSD8fVdqUG8Oh4+nVWq+PWMz4YLlTi0kfmtBZq5z5uLBsajxeBa8suKFjI95oewNbOreK2dv6Z6Hgc3ivK38kMX6GDUKIa+E7NG0mlf4KK/y8BzmFC5PgPfjwdukxQTAEzSDYHVxtSsl4g3BJuQPz8q2i4UtlHP3ZnD2lO7tKf2mLZ31xdFjcmFn8E5TkfIo0AofYfiWVVOEh2hQIpZ3oq0xxjUUdCXV6Knr3Gm37GbnKPxnI02mWVUl9QUrcq7wAjxdp8DagKxjBYS+3wiikP3eF63d9EGn3RnHsl63oXNOJqNgGJRG/PCsz8rpaeK7GckuvrvqpYlLxxNNuiuIQaTIfqMjRlQT2UyHpmEgGVSFD2N/bjr4Qby8n/zEdwXZRpYxQHZcX/drXW4/tXTtFuvifCsdH1mb0xAUkPQMWPm93yLFG6n0q2O6ptKGrvQ977t8If8v4XxpCD9+N7lEa6CkuK8fL+3mId/JLHwp/JIZX2/yU6fRfPpXdVNZL+DDsl7DLsLykViDSh9dO/DcaPVukVwZkRh3eq+S1znmbqUx8oGYm3lM5VTQGv9n+BmpckzBVW4slE/x139y5mdIdwmvtXni4PSUD3rBFbC0zrymAn/zqBAlHDjtYlkz4sclkdcBeUAZHQSVs7iKY7S6YbQ6YLLJyFg0FxC8WCSMa9sPXehih/h4SZF5yC6FlWS5uvrZURMbLbXDVLpW0qaFkriidjOXFk0kY5yMYCWJj50YhKPinqpll9lLMLZyrvU2g3d+BPb176F1RvBRH6oBv7sX8yzEWYpmJ9odw/LOvIcZd+ROItM/RQGK1WrGhpQcWOg6fGNa1BdCmbfQl85T8K8WM/sGnt0mRJNnf8wo2tz8KHwmebFHxsHaTTVuNKGdUhVEC6zsLz0ehXWowjf2NJGhqxMLjjF5cqmM4GhJVB380QF/uIPZRoVD3mnyHEvY55+0A7v5zu2ZLhFHxpp5ppupcbvVsuMqnweIgjYvbOuLB9FcgB70bl25hZkcg2NuKby46iidn+el0cqOH5NZ2jtBOlMbBIFVxZekUXFkxE4Fov9gJQcYuz+aN45aULJEOxNudb5NwlTPv48nREs/mN9tDOKyGAEjntB+Qvr8eQc+v6zXbxCDLJ/ruxEx19w0t3bDRV3L4yJzS4A1je3cIsn1PFh0FFyblJjOo3q5eTaLA8XFT22+xs+tvZE9DIqIRw8KGq1ozcgvw5TlygzxGpkelTpIQBqydcEHbQZpMGG2BMDZ1y0XS/aQyObWtfxP3Jrl6fT9ufVouuyB9E3GmHs2kvRTOXknaSzkF4qoRn0BnqBKbKLk6tFitFpgKcxELUbWkhwq6du71yzbjQDGvqsd2E1ys1aTpptNiSSHhypXlj9QuwszcQlGNOtrfRDU3K2a4p8fbtHgrlmP+Y/G2LplU+sNHTjvxp6MBqCaa9NdM0HzTS4hNgOUhFFl85969iGHh8QaO4SLPq82x4poqJ0p47gLBBYdNMiPJrJRw0fKdzlcVNjbxy1pW9gm8t+brlIGnkC0FGcVJwbfLX9Gz8nzY27NXu7ZKjUS5MWGqKh3oPUCazDYEo2F0hyJxIeOLWJDoQFb3KrnudSlkEvEno67Hf3MqZ6Li3BvhKKxk6S8iMRW7gSI3Yja2k4MIrouF3fg/HWMFOcJusttkeCrlQktwcomXZ8VIwsqJrPxLRherDnaVYSP073dHtmJzd4vo3l9edi6WFZ8TFzK9wT4xHYFPEQqYkmXyYQvjxq5QXMgw+msOTBHgWJgYNDkRMATNEHBGPVl4zM2FZU76wnEVTGZQJT4kMlvJwsWu8ij/SXd5lPbK3Pm4vvZ+XFhxO9mSUc0M3AaQCf1HO02zBBa6zXBZTWJ065tt67GPBA5PluS2CG6v4ZHCrMHwpEGeMNgSaBFp5MbfNztJY+A4qRDxQlz6+aCKyzd68en/k0JGCRR534l7ZbiaVLzgEhTMIM1Kr62wSkA/E2kq5vwcxLhnUJykZWd+ZxxeEyj6TG52yYZ1E51vNgXVZQVyCIF2HWHWIZyVmzrKsMrr6WN7SOBqC5qL//SHPPf3yWoOh1Nhxe3QUUDmBq/wkeiMTIpV4FqWvBf6eIdvNd19GBDcNvN2+6lt3e8NRbGFvl5ddJSPPlFFYLt8GcrGJPwkvLsTL20ufbzhTrzT8QT29DwvvdPAhZ3LjYphMGblmrG8SOtlSoMQvByfuLqMk4/H/GFs0TQZxkvaDBdcXm6UqySKc/YEcNfvuE0mXeZLuFidbpQsukI07sYTowkbE2slhYlFwqLhCExd9J7ip/Mf/snzTMV59DKluIlG6Nl19pFvDBdc/Tp6onIJEPXk3TyoUGdXBKNmqI39ktHSJmChZsa/zrkAxXaqqtG/vT37SGDLpSkEKlmJ5GFtWxBHef/dQUhtqwns60bbVzdqtvGPodEMAo+zCAWTx4GcLPk2My4ut5N2Q4VFQwoSfd7jLMoFWRZm6cI2ZUr8zbUWY2XFrXj/lO/AaUkMplNwBhWzgzW7Hr22RgqMEDBKyKgfw/lb5XHO7KoQqjj39gbxWntiCQh/lISMtk+Vy5wQMlXtEXz1USlkGH2aZGjpYrHnoOQsTciwDztzAuLp0Z9JmZiFiKiTaO4i4fSL34h0FnA4cjth98UbyLnaJA3CQgc2JE7iKW2BlIeo3pl2kjSSG8/s/vPR3SKNDZ4GtAfbZMhEEO0oHTqCUSFkEldLj/6e+b2ZnYn8MxEwBM0g8ObtR/aPRuu+CYsK7FhV6kAel3AtsyoTZ2L5lZVIN/nTF3MZho9yvZuPTH8YV026i15qopcstVDqUX52yvSXl9lQR1UmrpUw3I7ADZccRKupxBHlmGgjLWZtWz/298suWQ7L1aUQCxkK79BWCWS4XN3xp64BVSnNW7snspstVF26mISMbuoHB+KLauk1cZe5vttcCBN1IXkQiPD004U19ZHWRe7HcwLCSwSPXzxhjEMOPt5RglVC3SXUW4ijrkW+B/o6cJCETKNXzoBXPlryBSwsOMkbOqWA1nkJ9B8BgS4Av7fggfRrHo9XDEEzBAf37tZMp55Sh1zjps7NI3A5YykBI3OVPqtJN+nPyHCJMGzjzFmTsxgfmfELLCi4FjZtcB0jMnZKbrbROfmWMGlFEWzo8uK1Ni+O+0Lwh6l6QTmD8zoLGC4gQujQvyB93g+QBvNiaz82UlWJxwqpVPB6xb4IVTzoHCdVM+yit0nyvtf7MfsoTxTV35XeLCmYuQxWF2+TqxaG1yVaG4QnlrjsS15EimeciwRzcE6wiprtPVSt4tndfT6qA8kBhF5QWkQYXfyE2mlCuYfonvhyDp1mJn3UBTQ0qzjQg97SdVgmhwPTj58j29VZ7L6hI4ROsZqfRF8zG/CBUCdqBPdo8ycmCKx/jf/Z21QgV9tj2J3Qzk8bk6fPwLkXX6bZRodyUoPLHGZ0B2NU7VCaCuetxFGfz1LyXNxXHXnNmxr3Yiwoug5H+9+mwq91IZM3x5hDPx6Z67BGRUM1lwS+TpCufTwgR/M29YdwLBDGEU8YDb4gGvrD2NcXxAHya+fZ0KIcaOmjKCJUD+FOuhwSLqwhWYTqItMzqymEf/3fDhlWuCSOCk67q2wq8rTlF6SLOMg/qQWPCqWJq7VcbeIE8HwoDiPuh1BHEQH96F7EDG+RCuDXtYdxsDggZpTHxOxG4UzCmQW2NPM2KGrvcodFa1RW0Q6BkyIpd1pJg6NnS+coDUXF3eiNYEtPcvc0h5MGCkdVPPFhyHC93j8eQrQreYb/eEZ+IsYxtZUF2PJvi3HXirFJ6o7Np7rBLaXAaLB2c1mFAwvzrRSChY0KxyYpCBh51DKt9pO+iRwp7Twz3Ir3T/kuPjj1AdS4alFgC6PAGobdFqGMrGKUiLMTUcBH3rxYVTcVzraACR5SaZScT5wphaJm5LJPgosLKoeQKePj5//cFT8n9agw23PEOBn2iVnpXbtdUogM+LKrRFI43oOpx4tYRx9dnDQgKpwRlwOxwlzR9Y2SPDrmat3b2jlafDsrfGwjO3mI9BJ0UJfjY3/EApMYvstLetCBg9I/LQghItWRsIdZwFBAbgcS1xAfEBkva4xvdg4yBoYCcjrjgieFUKMHoUNG1emUccvFk7H+i3WozTWjdlYOeFHN041so0lkrZMnQ+7RmJVnwyVlThIKPINbChzO3CKT0k8dJfpMz7BNhed/stDn2yvxnsnfwzmltyPPVkPuetLdW+IqLDi4SsTaioJ9E3Fo4UhwidTGw0nDWfsDmNqamO8k7yQ1DpAmM59O4XNMMOc6YeJuaBYWLqr+sbsQMPSLmxntYnYSzhSWe5esuQ6YbVaYSEhxF7boAid/8LgbOl+40fkhrf9fi0GiRcuHIGs5RIzui1dUVCHlXeqvr8x8TMRWYNEaazVpwf2E7MvJf6k9LARRHJ0xG7yvT4wtVvSMT0FjtuE3n5uP715Tqb1kYmYRvjQGqW0/0QKP2Pj/9FFkN+PScgdWFKnJlJwTZYZV2VzlzUSmlyh3/dZ36uzavMtI4Pw36go+SHaOm11ThZU+dgl363J3tdr+g//KDnYNCq62dY1oBZTJ8cbwjUfatNh04TXUVWy5RXBVqm1jyVWbtS3aldxOxEhLkQJGuAo/ARVm1l5MBbkw8+jfuABKA/tpPVOsLbTmhmSU/KPLqbTwfXC3fEg3CSy5W5uvoUIzyiyPypanZVwOrU/Wy21B0hI1i0Lz1x5hnFQ7E2n1oe/xQ5pt4jAGRXdwaivzsf6uRbh2RvKqdjAXYdECzXyaaTo0Nut+1ORYcWWFE1VObX2alEzOX1dpZ2Ehj/xPmhJIszyPwy0o/iiun/pHzMp/n3CT/uoMGU4i3bigcby82wL78o9H88SFHB1UZyuPQlEs263fUZPDy+tLW+KKBbOWayaGfPzJQwrMOVQdUt1eIhIK47CJahFrL9nAQkgt3L7H3R2f0MhyUTTRyGQRJvRTfUcJIbvQfOKehN48EHVPvL40w6E5LobHyxwPSEGXTiimVpXSVZ36/nJEM00sErliHHDLyhq88sXZ9MVNlywHZs8ZuCH+6WDja69optMPZ9hzS+y4tMxOmVgWbi6sUqRwTuQf52R5VAVZhpP+fFTFQx05ny8s+SSunPRT0nSuFCEHouKVvS7RiByIx9Uo9lHXUlfj/7xUAuPyx/D5p7rjIRg2J9Is7Ranm6o7RcIuEsU9S9zFFdG1YXDDqGivITP/nPQs8nPSFtbBkOFNaM7RJjZyOlScWpbr58ZfLuFk52onNwJzyOyQ4UpJ+DlFo06Cte3Jg/LivUoJpziZNJtIhx+e52SX+UQjXYk+/Zgt+O7H5+K7N1YjrYzRcMzLw92a+XTy0jN/1UxjhQmFdouYM1Xn5il88iGp/CiP+mIvbVIksasUTOqoXJlcWwWWln4OF1d9F5WuZZqrHhmSl1CwUaGLRuiLH7EimLrGgVaIOTRf45w9fti09ZT1qPQoiuZckCwwyEuUwV5d9zU3pIZZ8JAHPQdQdWpECEEG7M2TVWEe8yPgg0oSyThVsHPi2ozyVOjSK1B2GW6SyypkpeKFthCaM438TY2KyKTZWEqccK2qlJYJxpgLmtoiN165azFuWZQYUp6R3EIsk8vqnlbqd+6gD+wY9K2nYKfqw/wCG66ucogvphIZnA/lT/5TYkT+Tc3JCaEjz5AuRc6ZOK/y33Bp9f3Iscm9rKSvhMsoj40RbZx0aoC+/DxpUn6Y+Q/9uIRSqeD1cG9+QRbmgaJGlyLSXqy8yHf8685xsDvdA7fTdHkAXwDo4a1J2I8881zJgmlYcPqAZ6e0i8sonUnExtHTJUVVihz4Xk2pywDGSXVP2PNJ85qUaxVJ9UVieOpYEK1iIa/Byfaeim+fL4dxTzDGVNCsXlqJV746F4sGU2OSKMDshao14PTh93px9PD4aYATS4dWOHB+qQM53ItC/2RWl4KH4ayYECOJjKnCKdgkQ8lfgWMarpr0I1w9+SGqsaSs7EeCxGUOw6p1jbNG4CHtJqDG8hNcSGc0hVDWreZtq2tJm7oWwz1NPBI4CRYomuCJRaKIeQLakp50Zp5T9BqNlBgV/DBJkyAVVL4Cj5NhROxkFu3Y5OEgIWPTGoATz04dJck2cZpgZp5NVB8bPRE8dTyIXrpmNkJEVaWUNpUJE2l01qqBU03GO2MjaLiq9NHZeOimyYNWldJRUOlCOgV/tHnmsd9rpvEBZ95yhwVXUXVqsovX4hOu2j9pToZzcMJPHhO5mouecmWc1lK8r/Z/cdXkX8Jtk6v+M1xmeP4SF0Yxipb+84RDb0Q2oDIfe0EuzqViT72WwlE8mf6SL0eq92a7cGNHzYMKmMmRIviGA8XFUxesJFB82iTPCF+boheKmCY8XXRfqpeJfOMCIJ4OgnvfEjYJhy2jNJY6rHj+RAivdYWhBv0m4kjA4dOhyb44A4QUWfNvmq5ZJg6nXdDUFuXguTvPwi1n52suWRL1ouHZbbjqEQ82aU6nk+efXKOZRouBmTFbzil24rrqHMrk+kyZqFYNjJld2CclE2vEtSLyzrEW44qan+Ciqu+iyDFbuPNpXBjdVh4UqK5BYkoUihjOPqgaWyXq+tJXYrLaYcvR8oAoiFS4VaFiuwrIkLspZ4TtMgqOj6LfmdsJqvGJS5hY3qhE0Y+rS6ytJaVbWTR4cqVwT4GDlTts+OPRINp10wpSSYpbI+USA0mJzrmwJIuTxhenVdCsXlCO5746H8vKh1n96WrCw/+1C0teDmGs1n5vPHgQrceaNdtocHI5hzs5VpU6sbzYjjwrdz5zjByn0lP4r8yx+r/sKwWLPMoz1FlSz+GCXuKchUuq/wurqu5LNBqTkMmxRsQSmC4WFFR6b1wvd9hk5BVkfIyyMznlvJ0rx802/kO/1C+/EDz04/VmeGmIk4Gjp3+bKuReSNxhH6/x8ZEvI7Qa+Sz0cLWKCZOQ4cGLasyQHtaBNugGyChNhJUjvVYy8Mz0bgrZNqVZNMxUPTPnn4R2NwacJkFjxr2rZ+KhT9aifDhXZC3mjZ246Vst+PIYzyHjF/5/jz+m2cYvNS45UXMuZUbOwioTJ4SJyrfyrz6EEklsYlfpJ92Vucw5TzQas4ZT675cO4fCsBygd3vhTh7an4r+iowJtjz6KpN0jPE0gVL6Fech6rRT1UGFoliE4KG4tcWqTgaxDg1FdyRXalssNERC6SDlhrprNsmjgpeRiFB4P6lCNhE4cScKdsnRT7zUhKacgkBxJ0d50ljLxmaox0jh53OKH0EKeS4897m5w9di+lvwzM+b8Mljmn0c4MzJwbojJ8TGchOBCGXwXT0hHOwPi5csi4cUGurF6zUadlF2JXQS2UP6J2cWE7yhVhztfwPbOn6Hwo4YHv1hc0qYBPprVZ33QZgK3BAD73TwIlbo9iQKpsUil+08SWJeP+WpIK68/HX0OXiTNqtsD2GBQxfjlHFVMHG/CUKakOFxNYkFzAfCsqWH46XYTiXyySfT+eMd8L4yMbbDZUZVo7liXjn2fG3BMIVMBD1b9+C2e8eXkGG496nhwH7NNhgDM+tYYCHtYFGhHReXOVHp4HfAxUkWeCZZqMjikT7lykeex/A5bMu1laOu8Hp8YNofcNHs78HvIK3Emiw8EmfJ2M1WEtQ8MI+XbtC+/AqeSoDcxNdaWxnipDFFYui1BkjIJK4nhsmwkCEnXgkw3d2HSCXhhbz4JhxagzGTuKcErIzZhkhvuvPipFxeJIkYmCpKb+XE6nkaJUFDVaXrp+I3nx5mVam/Dese2Ybpf/BgDWeCcci3//UOzTQYg2anLEiXtUYOz506r9SO80vscIph+FK8MAlho5CCh93kP+Uqfxwu9e44vNXsgLNgJv706zfw+1+/hoOXXgtvWZUWgtFfgf6xgAmGpbBJweSw0h8tPM/iPgXwDghBbuil63J3vLgf7eb4IKtETOIOuTfNz3Uf0mg4G9ukZBJ+MrQ0S5Erj4l4JDrZJEixJiOjiZPaA6XHpC12P1EYFUFz89XTcfv5Zch+k5Ioenbvw5e/fQTX7x6nEkZjy/o34OmV67uMHqORiXh9FAveW+XEBaXJb4avxgWAf7LQSBOjhI40J9wZ6S79pK+0xyxWvHnr17Hmx09i3Vd+hKYVFwl3dS5rNDweRpzp8cmFqRit5JvUHAcWNvE2m5EjdrOIRvF2XodoBOb2FiEPVO6nSyQaeOWRV9VjgcTOJnNUbDAn08L+/FQSZtUew/dvM0fimgjDNbNMaL3ocQZ0ZQ9CzJ+5CjceYX36lC98tT1mxRfOKRywmXtaol3Y9Nu9WP28H69MhGfHX0S/H+df/h7NYeLB86dmuq105J0OeJVbVXDkX3mUmo1Cb2YbFyu9r4LDSYEkz++unIzD516Jvdd8DL2k4RR2NCEPTrhKJ1NgOo+D8qA2n19OpiQNJ+bVFnQib1OuU4Y7GXg+gC+EB+cdxlF3QA4wpP9KICTmNBF04PlOLIz4+tydxKtMWFOlgh4teeoZqcWyMiGuS0FZY2Hhop0uUH5JpHHzbWhFsF72oE0EOPnaEz6VuPDcNxZgWTbVyIBXLH42kABaGny84OJA+vzYfjwE/zEP7jh8+jWgnFw3nt9zCO78As1l4hKir309r6LXH6Fqgv5ZSoEhxYXKIjK3S1cmYZfh9TaG/ybOVWcVtR5H3bEGnPfWBtjUHKY4ZOaGGdYSeE0Z3sHgJImxAOvz4dMr38aOQp9sc9Hggs2rAfJODbzSnkcsqq4r/BTAzb1JQtipp6FPr0K7V5Ie3aQNqWqZgq8zWFUoFS22jHT+ZCe8L4+zRsxBGBWNhhcLqJtciuUVWeg0Vhus9nQ/FwrL8lCS7jepCPPmlGLRZC8Orfdj9Fb1TU8oFBTCZsl5F2guExduMOYRxrPyrGIZUW9YbuYiy4T+r0L6cSHQuyu3dP6qwEh7DP7cPDSTprNxyTK8vmwlSvq6YQsE4aTnKmBBQ4HFdINT0LWNXqqaUSLuX3AQ/aRtx9ESyaOcQzEL/GG+qJZq8mNTroWehuYkXdTdSNsAyDFIgkwIGn2AtIGHj6pe9fzvAUR7kpfTGM9wqhNP7lSyqBodH6/RLKNFK565pwGf1C97chp57fBx5BdNrB0DB5JaIiD2nTrqC2vrAsvsMTCUyjoJvYdJDifPlahwCaQvuYuTYqg93oTZe/ZiUf1uWMJUwHlpiFOg0UQ7erEvtwefWPUOvKRtxLUL+vG1ubVIrBssUkTpoQA8gyzXEqaCLVOpdJmBcETJ7n1hG+QWyJnhmhjX4EZC1BvGsY+9rNkmBqOk0RBtMdxwWRlK9DnrlJMLh7cFDx0Z4q2OEuFIBOddeoVmm6gMfEFVLgtmk4bDT5X3HVJPN1mYJM7TmxJm/TuRQkaaJAnRxA2x8syevAIcmjYDb55zLpqrqqggWlDh6SbPRKzDhRtqzd4gdhf04tnKTjG/ScSmRckH4SIN4sANw7x4uxIyDLunwveQkBVaCDolSNpRugq9iE4FSxOhaATP4l7DJ7zof3ZirUvDd5V4mqcUMx76/NlYPW2EYjtb6vdgyS88aNCspxOLxYJXDhw9A7SawYjhkCeM7T1y0N9A7UVXegi91iJ9VNhENpNuyp4wq/DqGnx0BkNwhgO4fNMbKO/pQp4veZuVoYj5A4AngP+avRuP1vLwci118mJJcO+1lapKPOcp2U+f3gQqjan0ha3xtW4G01zS+akrsVDK1KZz4q6NCO0Z7Z7PU8voaTT0uHpy7bipbpQHFhVFkPtyL54b+L5HHf5avvHS81j96VvpQ5QuV4gsI43jgpGkx4QiuwVz8m0ocZhxwh+lQpT8sGWMvI2dEjJSlCizEj7sqtwU/OVXrowKp4RNmKpPAZsde6bOwubZC9BQWS22MMkhgWPPZo0gX5BVT9y9dB98rH9Q0uOKCl1MaRm8xEuuLSLnOyWSk4R01numBpT2AM9k18x6YZGaRwbzGxC1gnemeHiv6KmbSIyioAEaT/hR2tONQ3s7cKjDR1+WfnS09SNiN8MaCYnVGq0nPVnOBrScwG9OaPbTTEdrK5aefwFqanmSYCqZcstYcXLp4W7xOqpSTcmxoisUE2uIs6BgOOZkMZK4VqpdK9viLx+T7dJFxcXozb05eaifVIvNcxahsaIKHlcuJre16OJIIMa39PqF1vCb2mPwsfZAgViWUO1GwIIlh1QLm26zOz3y2ipmPqambSC8tnImWItJ1VRYyKixOINCQU786wZEOxJ7nE8U5JMbB9S6LFgmVgIwY/ZMF6ZwZ4PDgbpaO4RzoRu1BbLHwOHK4WBxApt2ovpPY9QiTFTUTMKzO/bDfBKLMk1EuHDs7gvjmC9C1QXORqoQ6is/CVT5YrdEWUsudUr7UVlThk1oRZLkczhcYb8HsxsO4uyDe+H2eil70Bm8FW5nH7wRP1ZevQURLtAUWpxNBhcJl4HjY+R1RwpP1uTFwPQxDFYNGg6+dcfR8YMdmm1icXJPdRxwRZEFBdEYNvVEx6SdRnHdRz6G//yfX2m2MwXOGtmUkBiOU5XqSH+YjrK5NVVg8FGKDYnyUz7KX11NuiRfW/on4pOoWKU7V6tIRcDZ9bswveEIpu2rx+M1DfiPBSljTii428y9Sio+FcNwSaSD4cmXPlKhuGFX7bqQykgET/hoP1ruXM9955rLxGJkz3a8Ybbg3qV2rNvkwwua01jw48eewIVXXaPZRgK/iuHkwOGGH338pEUcJQ1nd6/sHk8IBybZxkgxIUVTIjsqoSRDJmyJMxMxSRMfZSzSJs+irEHp8Xdtw8bwmzjU9ypVXXgdmpiYk+TUVtqTyDiGg7qeOpdX3usOZzUePolUwZPUSEx+gXc60PbtrRNWyDDDf7rjjFvOr8bd11ahwBrA9t/txCVjtTIWUVhSiic3vYPC4lLNZSxQGX+siaGTCsa+vghO+GWPlUKmUKVRFdWEnW3SNUFCiAw8T7mrcxJhmERMkWiIymo/dnU9jXb/RvjDx8lPX3j1aVCwm7xSsvtAfBFtpncahj47DaQhdj60B97Xj4/g5PHFiO5/PLB6QRnuunEyavN0L7brCO75Vhse1KxjwfmXX4kH1zyt2QyYIFUjeDzOrp4wesIR8GA4VXj1wiNZUEh/iTInjuqshBhJoI9Pmvg6+r/ybPbb3/ssOn27cNT7Jtn01xmMgWEipIL08hqhp4BobxCel5rR+/sDE653KRPZPNVxxaLqfDz08emoK01e80QSRcPftmLJ2rFVMf/lW9/FzZ/PZjmJdxeiZ8VkEotxnfBH0Ks1IEtxILMhmxi2KVflJkloLkxCKDGJs+V5+hiUG5NwT7iRMPTXo82/E3u7eSF6G6IxOcSf40lcU52bgG+DRwMrBobIAhIovs1t6H+hGf4tbSOIYHwzomcyFvCi5g98pBarpg2x2pqvGQ9+4xjuGePq7INrnprQM7xPB53BCFpI4HD1ikmIgoQmonflv3oRkvBT4ZQ7I30Srgk7kwgp7Soe6U9/YxG0+vbicO9T6A01Uy3muDhDhpawmcfMDDVbezDUXlKVXdOx+R9+prmeeaQ+u/GHw4aHPjoNq+cUJHVpZyaK1he3Ye7f9Q19Y8NfNr6DaXVzNNtwkVn/3QAX7p5gDPs9YRI8YTGqNlkgqCyaXtDoSQgQ6ZsQHvJp6rWnBMpHnSuvIf9Ke3+oHR2B3Tjh3YKm/tcQIuHijXAYGU6hxsRkPTZG49zST+HFj/wbuo+OZd/p6JHuqY8PuCfpfZPwmZXlcAx3eEqgBY/e14Q7xm5oTZwX9zWgtEJtY5rIuqPDaMc/+vA6x36qRmzrDpImQdUJnv+joRciKtsq8aAXKsolNXtLFxmGScQnfeS5bFN/lX8yUdJ2AlEv2nz7sLv7WdJ2utAdPKr5JshW2LgsBbhpxs/x1F2fxzt//V/N9cwi+U2MExI9SSMfAMeD+Fb+yTemY2uYwtJSPP32LuQVFGouBpmRBT5xhGjLOUY/Xi8nkVFTRYUMP1DIyJAJN0aaZQhllseEYFHxM/pQ0pS4FudPaQpFfWjx7iLheBwHe9eR9tMAs8lCglMuVRo/M0X4VLrm4uKqLyDHWojtT/0RT/7b5zSfMwt1/+OCtD1JIyXagRfuP4SbWjX7GDJp2nSsefNtOHlE86ggM//4YTTSE0N7ICoGBh7wcOFNFHomIQgkervM4OkEhTwy+nMlqeGkTSHtkoSZQ0gTCxgzrPCFO9Dk3UZaWg/C0QC5B2Ex21HqmIFix1Tk2crFWRzHwVefx+8//2Fx/pmGevJjyuA9SSdB/R5c/wsP1mnWsWR63Rw8tm4j7I7sV1J+t0Ifffrqa5Y0cPWKs+2u3hBa/bH49AcmIRYGZmwlWJRQ0KPc9eckwieHZfRX0Psrd3UNKUJUXAz/ZV/+JZYYY/e3H/8NnvnGFzT7mcXI6yanAO5JevLzc/HKF2efeiHD1E3G3TM08xhzqH4vbrnmcgQDPCFOZjmD9AzVrMGrAlpMZiwqcIjN8q6rcmJBgR0VDosozrKYcxGW/xSq0Cf+KhMfZTgZXp6nXBPnyXPUUYaUqBB8ljqX0YdRZvljIcOoM3lD1sPCfCbC96qeyelj2D1JGeCdLNcfxsO9Zbj36nLNMYWGetz03z1jOjVBz8x58/G/a9+aMJvQTSxivIoCeunP4f4Imv1yGoQUHvqiz6RmexUmcVQCRp6hzmNUODYpwSIFj7RJ9H6JeBPxKXcplkz4n+vPQ+v+070w7ekhcfenkSsursVj12QQDFnB27Psx31/6MXDYvVyG568azFWFQnPFHxjPjUhlUlTp4upClbbeBc2qoBMNGS6uYrF2s9eqmK1BaPoCPCKOan3pOzJ7kpwSJLd2S6FA+dE/lbK89MJGXWGukZC8CRiZVvjpvX49afeKx3OQMak6vTC2hZs6tMsI4KS3eXThAwTwv0vtWjmVFxYdG0Zbtds44GjRw7h+mWLEI2O/VifwVFF4VQhC9joI9PNQobhRbtWlTrw/hoXzitxYG6eFXbKQkpoJBd7SUJk6N31Ifk87ndim4xHihA2y3Aqfhk+IWQScUtCfj/+fOcnNduZyRi10QRw398zCYYMhJN3NCw4pxIP6DYxXLfhGF5oyTAcuGgKbrl4jG41A0ePHMZVC2YiEs5ilbgzhuQCdrrhq1c45WqB11S5xO/KCgdqXGbk2xICIRkpOKTQkHFIGwsM5Z4wMdKFf9Jdmhg+Rx1liFAggCf+5R/Q19EmfM5Uxqz0DSoY9PA2ub/bgkv+bRfW8ZKvCkclPnidC7WaFYjgK083pd8Him6z9tJK3Du+ZA1ajx3DpXWT0Xgwm/28DU41DrNJrBq4otiBy8qduL7GifNJ85mfb0Gh2HJWCQh5VKJGubJZogSI9Ev4qxBKBCWbOo7sxy8+dAn2vfKs5nbmwgNWRm0pz8GJYVNHBJ9amnlHy8DOPVj9k1Z8tyWGE1QbXt8DfOqs/Hh4a5UF07d3YY22o2pPhw9TppZgUUmaGG35mGo5gQcPJF71eCDg8+HxR36BvOJiLFyylFwSmdTgdCMFT4nDgmm5VrFs6YxcXiuZ+4hA1S0zAhFeWEJqJKyt6IUKkypiJGyWdv7bfawJL/7gP/D01/8Z/e3jYKDXaWAMBc0QgoGwFkQQfrMXz2m1i54T/Vg0uxJ1hdpLNOVgRlkv1m8JolE4xPDc0SA+vbIYufr3rJFbbULN+kR844VoNIqC5ZejaO7ZqCQ1PjXzGowNZpMJVtJ68kj4THJZMZWED29DU5tjpeqWBeUOMwkdKXIcvJc4fcNkp7V8gxGq7kepahzyeeEhgfL2H3+Fv37tH7H2J9/C8V3bEEvaGfTMhp/H2H7iy4uw586ZKM9QrUmdSlBbV471t9YiMezNg02/2IOr6jUrcfeH5uJLy9LN8o6i57WdmP50+grWWHLzz/+ChRdcjGrKzAvybWKousF4hovNwHfEPV08fjAaieAqqhb39nS/qwRKJsa+1aK1C4/vzDz70bG0Ct/R9YQ31Lfj8Xq9oHBj2aX5WKbZmPuebkZD6rvtasaa/96KS8ahkGECnh4EKOOGKJNu7w2JJRQMhmIsv5HpPwTc08WTgP/tEx9GT1enIWQ0xkXz6D1PNg0UDApzCa54vxurNCtrJXf8tQmtHJ4H7G3Ygy8/0otN0lPi68XD3KDDqMbkbx3DbXSR8ToJv+1QvfgahiJR8ITlI94I9nlCKXsojWXBypbTmcbxqfX99ic/wtpnn9FsBsyYttHECQZgdbtxyRSxscpASlyY0dCORzs0e7+ffv3YTQLqpi1BbE3z8d9U78WM/hbc9fsOrTF5fBONhLH4ho8hFokhxyblP49y5YmERbwPlqhKDVawuICPh4I3Pgv/6WL/rp340s0f0mwGCs4V4+Mzac7BK9+Yj0W6sTFJjLOpBKcauysHX9l4VOwNVe00w2ZJLrCFJHwmuyywZdjCw2Ds4cbfD16wDIf27tFcDBTjouokoGrQt14epKuvdjLuWqSZz0CCPi/2vfQ3kvoxtPlJRdPEvxIr3aTe7OgNwcPbQxqMO3iNmX/55EcMIZOB8aPRCBx47p5FWJanWVMZ4S4Hq8pdWL00D8srtRnifX5sr/dgzb4AXhhHbcNlM+fg//1lPUyktRSaIyhwDZwLxS/MSf7c1epK0XrObFQ2VVl2PN17DN/84j9izSO/1OwGqYwzQUNCYcVkPLlaLX2ZyvB2ORh6Ia0IAseO4eknWvGtcdJQ/N5//z6W3fQZejExVDjMcOhWGdQXMT5WURWrzG4RYz3OfMabcEnwk//8dzx8/3c128SFs9poKczjozFYR2NzP5YsqsAMd7pMRV/6yTG4X+3DK4OKRzPuXT0D915ThcJBFxw2w5pXgHnLK/GpeWEU1Hvxyhjvn37wjZew6NoPw1FQCG8kilxKfqY9vT3hGE4EorDRo8rRCaQzk/EiZPQCL4aHvnMffv7db2v2icn1ZxXh0tkFWFCVCzeVl75ABH4eZ3EK4Sd2amM8BQwclKcR7UX9U0fw5fUBrMskec02/Oazdbh2xgiWzYx2YdNvDuGq3WPbDlIydSZu/dNa2HNzxZegwm6C3ZZJK5OwPK1yWlBMGo7B6eFn3/kmfvbt/9RsEwvuVLhqfiE+f2EFJhU5UJEnmxUC9PF6YlsHfrL2OA62B4ZchCxbxp1GwwyYmsDjZd6sx9d/0YI7DkfQmOnm81x47p/n45LJI1wu0+RCzVmFuKGvAw83j5389XV34vjubVh4zYcQM5nQTy/fGovCbqHXleHDzgs8ddNXqC8UFSqw03Kmazhjy/13fxm/+sHErC7xSImltW589coaLJuahzz6QPF0CzXlYm6li7SbHGw76kW759TM1xmXGo1ATE2YBsfeA7j/sV48OMTWKbWVBfjL52ailusaJ0u0hzSbA2Ou2cy5/Dqs/v4jpKRZxEbwuSR3S53WrF5arsWEGspAbm1MztjBKc0gHScoX/2Hm/HcE49rtokFv4mLZuXjgQ9ORU2hfdCpLq/t78XqX9YjotvyZqSMX0FDrHIB67LYm2nRjDL88bNTM86XGhGBFqz5ThNuO6kFuk6eSWevwMd+9jgc7jx6WfTFMUVRk2PL6sVxGF7gaWquDS468hfLYKTIp/3JKy/GOxvfEuaJSJnbKoTMe+alXY4yiW5vGJ/+3UG8dqBXcxk541rQZENtbRle+fxUFIzGh7vlAO64vwuPataxwunOx61r1qJ48nSyxWCmX6nVBBe3x6QIj0wvlOvIvPRBLp2nVp4zyA4eI8Pzlm5atRwtzQM3iptI3HBWMb5/Yy0Kc9KvmJBK/Qkfzvv+zpMWEmOtV58kNjxw05ThCZmoB61bD2HNk4ewqaGH7Jp7Oion4/YVY/+I/J5e/OSqJWjcIr+kUXptJ6jqfKw/iKiutW6wrwbP0jjQH8Y7vMF+gHdanNDflzSMzv3wcqt/++PvccWcqRNeyBTlWHDdoqKshQxTlmfD/OqT349sXDYGZ8uqCyfjK2cPsem/nv5jWHP/IVy1yYdnmnx4dGMH/vh2L1YuKkGFM91X3oqSUj+OvenDeFjbfNtfHkWwvw81i86BxeFA1GRGXyhGdegwVZGoYpVBU0l15X2QeA5VkIQNKTji3LHi1ClXp/4e2lqO4bPXXYU//vIhsezDRGd6iRN3Xl6NXAcX++ywW0wIhKN4uf7kqk8TWKMx4zOLhrGTQusR3PftZtymXw6UaOjy4JIH9qE+U1tQeQlWT9LM44D1v/kpvnNuLY6sf5WKFg/rI8ERMeOoLwpPKEJf4OQvOxe/dN96dusIRlHvCWNfH2k5PO1hDDg13aenJBIdMfztT38gLWYadm/borlNbPhbMqfShXKtGztbLHTi1BIH8p3ZC6d0TGBBk8P7w2VBFIHd+3Db/W34QabpBn0efPlvmRZLL8Cis0Zhc7uT5NHP3oif3Xg+2g7xesMsTkwkOGJoouqUh6d9a2UvmyLojcTQTILmnZ4g9vPSFCSs9FWy8c+p0mZi2Pz6q2KHirs/+2nN7cyAX+cHFhcPuweJ26cWUtXpZPPDxBU0RTYUDpn6CFrf2ImrHunFmiF6qtdt6MD2DIKoYLJ+EfTxAS+odGLfLvzP+8/Frz95DXpIzReYrWgngdPgCaI3GMlKY1BBeCwOV6t44a3tPSG0kPDxs2NW4mosOHXpam48gtuuvxqfufZKHNmvW67xDCHfZcFxeq+soQwHro4HKQ9ML82whEuWTFxBk2sdOHI4iSh63tiFq54MZNm+4kdjJqWm2IFrNeN4gwVOw+Y38KPL5uGXH7kCR9/ZLCtUZgs6Q1Q1JA2nPRAWi2npSZfd9G4sl4+ToNlN1aqdJHRaAxH4ImM7rmggJ6PJxMRWN/U7t+PTV1+K686ehw1rX9H8zjx6fRFcu3DoLu1UWKPhubtd3pMbuDdxBc1R3+CLWQWO41ESMqkTJb90zWS8krYnKYru8bnKZ9Y0b9+Mhz96OR68djl2//1JIXBMJgv6wyY0eklD8YXhI6HDak46XSDVTdlJQaLHHcGevjB201exkTId91pxJpx4xODp7caLf/0LVlQV4EMXLMPW9W+cEY29lfk28Utdy4jhwXk7j3k1W/awRtNJ7/tkRDozcQUNAjiR0rCbBBWsJEFEX/jvfnwu7r64EotunIknB9SFHKit0Iyp0Jd8jOdaDov2w/vx+Jc+hR9eOh9v/fZ/qGjxtiBm+Ekh4W7xJm8E7f6gaItRZJuR/HROezCKXSRweH2c3b1B9ITo+Ygq1liR3bW3rH8d//LJj+KSGZPF2jHh0KkZXj/WFFK16LPnV+C7N9Tif/9hFm45rxwlPIxcx9HuIM6fnmn9lcxwm06bJyyqXSfDBO7ejmJGVRFW1mRoqDX349DaPryg5cGbr5yGu1YWSovJidqFFtRs7sVzQenE7TnNDb1C8tcWUX1UX/IOHMNN20/uQY8Fgf4+MRt84+8fgre7E1OXrSJ5y1uEAKGYSXSNd1NhM1Fm4r2KeN+iwVCPRB05njA93y4SNDw2Z1d3GDvf2Yo3Hn8UZZWVKCgqFpqCaYh4T56BYjIcDqKt5Theeeav+MG/fxXfuvOf8edHfolD+/ZMgK2IhwePc/nm+ybjnFo3KvLtWDnNDbfDgpf2aetmE9xztHhSLiYXDW8eINeWH3mzDVub+gdUv4cDv6Gx/BSdHDPKcexzaWZ5C6LoWbsd0/+mBIQZD9w6DzfX6dYK9bXg0e814Y7UaQb0ku4+vww3X1CN8jwTGp7eiiWvjbf2ieFjdTgxbcWFuOJf7kXZjDnCTb58udOiiapCvKiWzRRDnsNGT4yrXuSeOtiFTmItic8NhqPoJcXAR4/n+J7t+PnqC2UYIsctxzgtXrESV7z/RpRWVmHm3PmonDSJ4uR9kDj+gUJiuIRCIfR1d6HhwH5sfesNbFj7MrZtWI+AfyLpoSPnA2cX4wcfmCqEi57Jd71Nir3Mt1ybav2ufq+Q7GjqCuAzjx7E5kZtl8YRwm954goaKgq/+cezcW1tpi+mD/VP7MFN6yOyrcbswJP/ugirSoWnpP0I7vleGx7MIEdW1TpQ1xTAwxNfzsRhDSO/oloshn7BrXfCarcLsaEygyz60maKRkV4K5tJCLFw4LE6YRIUoq2HBQWdtOeFp/H4Fz8hzhwKvl5JWbloyK6omYSzlq9AWVU1zFS9LSopRc3UqSgsLoGvvx/9Hg+CAb9ouDVbLPD7fDjWcAhNhw+j8dBB0kKPoO34cRIqWUyKO0O5bHYBfrhaTpJUsIC4889HSKuRA+1mlDnx05um4ZwpwxjgSjz5Tge+8PgR9AVOrgBMcEFDTCrBoX+aPsg0hCgCLa1o6KS6bG05ytPM7g7U78Enf+E5Yxc+H4qiydMwZelKXHrHv8NisSKnmCQx5Qw5IDCRPdiuF0VcLWrYtA4v//g+HH0nacMbg9PM7z41E5eTwLHrFkBb+f0dqD8htboClwUH/2OJ0FCzpdcfFkLmqe1dJy0kJr6gIW5+z3Q8cHmJZhsJ3BW+E5ek6aVKx6I8B25e5MaiOicKNDd/lwfb93rxzOHQuFqHeCRwFWv6eZegtHYGcssqUDJ1FvIrqxHs98DT1oIT9bvQ+PZbYs2coPfkVGqDU8O8Khc+dW4Z/uG8Cu0zAHxhzWH8bkO7MF+zoBDfv3Fq1iODuRH40U1tuPuvTfBp1a+T4YwQNKL95dNzcfO8k5n8RdWsNbuxckPmh7qoOh8PfXw66koHe1lyHeIXnmrDPQe1KpuBwWmAF61q+c45olBz29ltfziEp3Z0iekHPJny4Y/NzEqj4arxK/W9+Kc/HcaJvlPTCZKxwjGxiOKOR/bg4e0ezT4SXKi7cToey7Au+u3vmYrnvjh7CCHDWOConoxrP7cEW+6qxkPVmrOBwSjDs7Of2yXHfLBGwuNfGB5Xw9UqfTV4MDq8ITyyvvWUCRnmDBE0TBRf/t0efPmJZvSMSNPzoXVtE76VZnTwFSsm4+7Ly4YYiZyGohqsvmM+tlztwBm8JZXBOKHXHyFhYxUN9ic8ofgAvTK3DRfPKhhy4TPWZPad8FEZasTL9Ymu8VPBGSRoJA+vP4bp92zBD55tQmtPlj0RUQ+2P7YHVz07cLoCL6z10I2VwxcyCnMOai9dgOc+nY/VZ9zTNhhPkJzA4XY/VZtieGjdCXiD8ovLA/WKUgbwpWMvCZmvPdUoqlu8SPmp5Axpoxma22+sw70rVdOtDl8bXvjNEdx0ULPrGWqb3mHybu/dMhhdeKuUX318JmoK7Hjfz/aioz+MHLsZP/nQVLx/UXHGMUv9gQjW7u/F/6xrwdsN/WIS5anmXfGNZa3kzhVphExPMx7+YQYhww3Mt0w/ZUKGcdTNxkPXO8bdTHCDMwPRtU0y4s/bOuKTIC+YmYcLZuQLcyaeIQ3m359uxPpDnrRCprrAhkvq8jGp0D7ivd/fBYIm/XKfgaOHcN/3juHLGeZL3X7NzORRxEMR9WHoMU1mFKysxQPjaCEtgzMHN2kvvMvO33d3i2rUjFIHvnRpFUrctrTazIYjfbj10YP4ypMNaOiMz8WJw9uu3H9jLdbcOhvfu6EWL39hHr76nhrMKhv+khETeinPrDDbcNP55ajNUQ86ip7te/GlX/bg4Qxz6kS7zOpKpF3dMxWuev16Lz74xxO458VjeG5rN2ZMdaM2P0PvFM+zqurH1o0BHNKcDAxOBRfMyMP+Nj/ePNQnVsT70mXVuHp+UVIjMDcUN3eHqKrUg5+/3orn9/bAl7IrpcNqwvsWFguhckldAaqoKsaNzDl2C2aSkOGlPV8/OLztQc58QROL4LHtfbhheRlKbD60vrwXq//sG2RLXRt+c/sc1GU1JKcH6x46iNWHYmSSnPCG8NiGNnSEbLiwLhdpm+AKqfp0qB2PDjb73MBgGPBcJiv9eedoP0JU/fnQklJ8YkUZ8pwyB4YiUdFmU3/ChwfWHsd9zzXjUHsg7UTJa0g4feOayWKypn6kMcPChuNZf7gP/VpjczawqMtY5M4kauuK8EBeL+54e/BBdLVnV2PLR2s022AMPZo4YwM0Edi0E9V/evfOzzEAriiyxEeWc4nf1BM9qQGeTpsJk+kj9tkLyvEx+rCykOgiocBLRDR2+vH4lg48s7NbCz0QVnzOnpSL+z9Qi4XVuRkH922kKtfHHtmPTm/2s+DfNYImWx64dSlursui6ergPtz0s97Be5C41+re+ViUrm+8/RC+/J0OPKxZDc58VtW6ceel5Vg0oxAFaXciIA3B14NNfzqEq3YObzAYF2Ruk/ng0lKxd1O3j7UOD5o6A9jU4ME7zUMvevXhJSX4+jWTxFITg7HxiAcf+VU9XSN7QfMuaAweDi7MrsnikfDyEr8fQsgwUS+2N2TIMKU5GQbxmfHQR6vxUK3Z6J06Q7h5URm23LMET/7jXKyaV5JByDCU9xwhNBwcnpBhWFvgTfmf392ND/2yXmgcP3zpGH75ZuugQoa7v6+cW4j/ev8UfOHSqiHnQvGIY25E9oeHl0ZD0CRBqmyuZsxEtAfrHh64hk2mlSrq24bXaFZbV4rrzq7B6n88G+vvrDSmMExgaivzsf6uJXjg41NRm5dJuKSwuw3fOokadWNXAK19sgeJRwoXOC2iCsSr8HEjL3dVz6lwip0NvnxFNX764Wm4+6oa3HpBBeoqXBnH2igOtfvxp7c74E9pQB4Ko+qUhBvrvzcXdZotHYGtO7HyD76kujRPUfjNNRa8lmbg36rafNx5fh6m1BSisthJL1tJJNKK/pUElmaTWPDYnYtxRaVeakURONqExx9vxR3aRgcG459bLp6M/7y6Eo5hfcoD2P677bjkJHYrnF/lwj9eVClmXM8sdYpeqCnFDrT0BsWaNLzUBw/sm01CxU9hhrOZHDcA3/u3o9hIVbHhYgiaJBx48muLsCp9+62gfs0mrNygWYjkvb+5V2s/PpxmKkMcesmrSxxYVRXFmrcDWKc5M7WLqrH+4zUZpjtE0FPfgEfXdOAeo7dqXMMTcEc0N66vAffd24ofaNaRwAWaBcl50/NwcV0Bzp+RhxkkcHjHSV64bHB9JT1tnhB2HfPh52+04KW9vUlrTWfLmd+9PSwiWDm7CotKMr8Oz+EWPHREPWgz7l09C8vL1FfBhtxpFfjIvABi23xYn66tLBLD7r4wnjseQaPmJLHgoU/MRl3GqpsZzpIiLF9uQs0bfXjuzFr29oyBtdsfXFuRhZCJINDvRyQUol8YVrsNrW8cws0HTv67z6N7ub3m1f09YivbbUf7RVtMlTa2K5u9nXiszInekFip7ydrW3D3U4040Ja+OzwbDI0mhSG7t7uO4J7/0i39ybsr3DQTt5ydMsy7vw0v/C7T9IaBrKIM+uTqDGtU6Oh5YxumPznxFkp/V5BXgC1fq8vYXseTdxs2NePPr3nwaOvJdWUPB5YrPOCuusAuphIsneJGLVWneOlPXkKChRBPwOQ2HF4aghcibyEh89qBXjy7K3N3+HAwBM0AHHjunkVYNsjOFIHD9fj3n/Xo1hEmbeQfF2J1bUqLfdSLhrUH8KnBqlICG568azFWDbW/V6AZD99zDF/WNfjXLirBY3VhPPNa32nNvAYDuffjC3B7pslx7Q148KetuGd4fQOnHBY63E5YnGMR3djcAMyLZHFv054Wn9BgwqQRNXYNnJJwMhiCJg2rltbgjzdVD67+hntQv+EEtrdZUXceVbfKM82L4sbcI/j+zzoy7v296sJaPHlduWbLRBStL27D3L8n15m++8lFuGWBllJKU8PbJ+iLaQid0WJRqQ11naGBWyy78rHlG7MzaDNdeOF7B3BTq2bNwKoCKvz688MRrDkNgul0CAFD0KSFlwadh5vnncKp2/2tWPPTBtyWmtnMLjz3tQWDalACXzMe/MYx3KPP4IMNCAx0oX5zK5558/Sq6WccZjNurnNj9cpSbaBdOH3PEH2cOujjlJ4erPvvelyvewmLSIO4bk4Ols3Kx+zpBSgvyJDX+jqw/aUm3PFGKMutnccnhqDJhJmqQ7fMxerhzOAehMD2XVj5O6pKaXbFFRfX4rFrhtZmGv62FUvWJn9Gs54uoYTO6724T65VbTAItS4Hbr+4AJcvKENtaQ5/d5Khd1lC71LP7dfX4d7zB+mujIYQ8Mm2NYcrTZyDwhOB9+A2uuZEXctoWLf7riIawW0Pn+w6xBrtR3Df7wcKGdZm7rxwKCFD9DVRdShVV6fMvUi/QdUgOIpQd/5sfOkry9Bxz3Ssvz4fd2d56ruSReW45dJa1JZnEAgz3LhbM2aN2QZHbo74Db/UmVGwaDruXTpxi6shaAaDhM3JrUNMRDvwwiPpN6i7+YqqoatMrM2sbcd9qeeb3Vg1b9gjNYC8khSh48aXhkzDu4uG7b2DVzVzC7EsZU2hB5tGe9sZF+ouLcLNmm2iYQiaLJDrEG/Dmq0dWSxupYd3yjySvhHQnINbzs9iL6quRjycRpupXUZaysm+PSF05uLue5bGhc7tp7BZalzBbS1z8vHkp6fj0K0FuGWwZ+fzoD7NIvUJCjB7fsqI2q1d2D7a+3mVF+DaoXomxynGgL1siUTFkof3v3gMWzd3oKejG4f2dmD33hP4y5pWmBaWU91eC6sR2LQPVz8fiq9Vo+fmq2rxqSHbfwKo/1sDbmse2Ix273tnDTqwcHhQPI4clEzJhftAGx7tkK6rl5Xj4fOcWF5kwVmRCCrMJvQHEmvvjHd4o787LyvBvddNwXevn4qrl5aitiwHzpISXHGeBfP39uLJtDXjGCoq3LhkSuaV5HItfVi/MZAYdBkLIWJz4urpWS1kNEJCOLalA4/JXW4nFEZj8KlgRjmOfa42uTt8sD29XW6sv3su6oaq+bQewh3f68CjmjUOVZvWf5vOP9X6aH8DfvCNVtynWe/+0Hx8aVmaghPwir2uG5o92PhkK+4Y4ykRtS4LljljqO+Kaj0zZjxw62LcXDfEPB4e5/RsPW5YGxpYVaqjd3pryjvVE23Bo//WhDuS3u8INjIUjcQetDT4EMh1o652sPV9e7DugXpcf1SzTiAMQXMKGFAgo6145psN+GSGMRBD9lAIfNj+u51pJ9jVrpiMLUONIuYRzD/sRuHKInxgWTVqh9z4jjWw5MW4Hrh1GRVWzZIWus976D5PwfpdUlhIc0GFC8tLpBR1kgZSRxqVoNCN2gJtzUKHfoIq04EXvnUIN2lCb/V7puOhrLZJjiJw8AD+/ef6AZhMDl75ZoahA4LMEyBvWVaGz1xak36zQRLSPS0d2L67F6+97cefUxa7+tJqqsquyLARf/QYHv1Kc8pE3ImBIWhOmtSv2BBb6w46sEtHywHccX/XQG2GyGZxrtSpCrLLtgjXLavMsOaIF5t+sQtX1WvWbEYrn0TG/+5H5+PmhanC4mRI+dpPKsOhO6YmVrAbiv4WPPOzJnxS1zYz5HNO082dhNmMawtMkPJTr3FlZtCP0OF9uP6nvUkTcScKp+otjwssbjvs9LMMvVfWKYS3492FLz/bIhqKe9bvx02D7N9993U1QwsZeLDp6fRChqtNy2cOFUEPtm9Ong/V4AuINM69dxsuuXc7Hn65Ca36LU/727AuLmQYByqGKqU9QSSdMgx6wnSFUyZk0nDUg/rhdATlVuLaL87F+pW2+IJjP9g+xFDeobq5o1E80xXBGvEbWsgsmlGGOzMs/SryxIsTU8gwZ0RjsH3KbFxwy1W44KJFWLByARauWoCpNUG07e+AL8NOB6earYd78cLuDhzcHMi88HleAR64qQqFQ7XhNhzBnc+m3yVh1aoq3D5niNW5wn1oPehDQ1sEjWnSciIYwQsHPHjw1RY891YHrNYInA1d+OQB3fSGolz8y4XFGPRKTcexesvI5sQsmlU0aGPr8HEicPQYHm7WrAijbnIpllcM46tjsqNkbjlumtQPz3Z6jx0m3HRJCQo17wHYTQjvOfnGWV7i88cfmoZ73lORceeNwO6D+OeXgikz/icOE77qZJ+yEJd+4myUpfs4ehvx+m/X4vAQH6bTxaCT7uLQl+tne3BVhk3tHvr82Vg9LUtNIBpCT9MxrHuxC7+sD2FdZkVrILVU9fjHwasePeu3Y/oTI+vTza6dangMWCsom7asTPQcw5pftqDgY0twxSBRtL64ZcD8s1TuvXoyxRFAQ71f67EzoYKEC/ds1Za7h9bsfFRF/TZVUSfwWvajqLueBspnZxYyTM4UXPCJFag8lR/OkVJehA8uyGKQSn0T7su0tITLjWVD17sSmG0oqK3FtbcsxpPfXoBDt5bhoTk2rMomCnpoQ4mBQP/I1cUHj5/6UlNYmNzL1LC9B5mWbB6Sgmqs/mIdzjIPns7yWW6s0szpcWDR0krUzavFFdfPxmrxq8Oqs6tRV52fhZBpwZofTmwhw0xgQePG7NUrkoWM9zBe/fFv8btvPoaX92oqfQ5Vqy4tluYx5N731KB8yKfdg3XPejLWw1ctK8qifScDZhcK6qZi9S0zcfc0zW0Qbq8aSihG0d0+yqtvhb0kzPjXhYbdx1Avfg144cl9WCN+u3Dft7bgNvF7Gx9O1Sx8Huxo0swjwexGecZZ+RqT87F6sHficmLKSBU3sWVzE247A1ZUnLiCZtI0zNPP14m2YeNv16GR1+mJBtG8O1GbddXVZN/7MErc8/s9+MGzQ0xl2HkUd2QcI2HGzQuGnqDU+tpOuk4DGlozfAL7OvB8Fotx1RUNNS+hDydOaMaR0BXAUJWung31qP7GLvodwJJHmrFS/Fpx0xu9uE38vPjBoI2tUTy9Xxt9OFqYi7DoLM2cjnlUPdKM2RNBz9Y9JDwzb9k80Zi4gsadQzqNwod9a17CPtUWQ1+i2efpPtv5Ocii0jK6RCO472WeyrAFD7/ROnAqA8+JejbNxEtFVtWmLryzwUfXacWS7+3Eknu2SaHTnuhd6tnelcWatGYU5g51LR8aTmbgmDcGv2YcTdbs6tPaRUYLqhotyDxA7/baDGNi0hJB4HADHv3hFkz/g2fgmjcTmIkraIIRJPo7GtGoqkosZP7h/VheqauvN7aiUzOOOYEIvvxkA6pJCDy6oS0ucAI7W/CVQRqts6o2tXbhGV0cDb6QFDrf2UZCh7u0D+HpN5O7vdNjQ0HGrhaN/gBGu429oGwEk0ZTyaabO3CSk5QydnObsbx6sJG+GmEPWrfW4wff2YLqn56Zu11M4F6nAsz75/djqSgQEbS99gxeeDOIyvddi0uTFqwibeexJ7CxfpTbE0aKw4aHPlAE/9OUwTKuppZdb1Pg7V348J+8w+tdSsvQ287wgMLb7u/CGs06fLK5RhOeoWpe2pHBVgccDfUo+cXQy3jc+/FFuD3zEF+gvh4PthXhM+ePYOcCQaapARbcvSIXCyfnoTa1Jtrnx/bjlDd3DhwdfCYyobu3LXUrcMNNswepFpEAWvtXPPfaKVhTZizJdjQxE/Whp6l1ZF3aimxG1dbvyaqQZyYLQTMUWaZhyG7uQDMe/NoxrJtXhh/fNBVDtf+mI5tu7nczE7fqRETqN+CpJ/bBk6Ew+Xa/hJcnupAhVq0YRm8T9y4N6NK2ZNh+NwPFVHXSjJnoaTvZNREi6DnZJVzybVitGQdjyG5uRxGWk8R7YXcb5t63HS8cHX5f8tDd3O9uJrSgYYI7N+Av//083j7Qg6DKTOEeHF77DAmhFl07zhA4i1E5dfDNzccGMz6zIItV+NIR79Jegle+k73QWUWCZii6T2TT1jMYYfhHNqg4gcOKCs04KEN2c+egbp52z4EAbnpgJ+57OdF+lhVDdXOfDpwFKFtQg8pJY971MYAJPzL41GDHlI9+EBfNBDq3r8WrzzTDc5qmLgyNGV+6tBQ3ZzkDOyuiHrS+3YR//ZMHz2hOeoYetZs6AXMkZLPFTBc2PdmKhr4AXmjSXsgIdwYYcjZ3mjanRdUF+PVnZ6J2yB44JoDtf9iOS7Zq1tMJfVBqrr0MFy0uFnOKGN/u5/HUmmF8aEeZCa/RnArsi1fggpn8iiwoXnQZbrh+hMPWR4UofpDUc5QyGXIkmN1wBANphQxTVzZUxSkE/0kvvhRCQ5tmzEgA+3i8zPaANlZmZEKGGbKbuzIf16UoAtuP9WDJt7fjmYODzNCOM3g392jB8/wu+sKNuFQnZBjXvBWYOY6ysSFonFOw/NppSS8JdnuyfZygn4F9ckJn4OzuBDbUDjmQ2oeGQZe6PFWYUXiqagFDdnOXYuGyNMUhEMInf7YLX/6bnJ0/AJ5PdqwFm17ehfue8o9gcN4IMdtR+d5rsfpTKzDFLXNrJKpvjHbDnUXP+uniXV51sqPmQ/Q1mJPSNtO+AX/56T5wM3LBxeeh5shm7D4yXpTQgfCSlbdcVoorF5VlWGsmBV4U61tteFCzJjPUgk8KKnU+PwJ9HjS0h9HT0icGBm48EESjN4IXsmgrHrLbObXb2GHG6hzOskShA1dUa13d+U4squT7pusPsuLf0N3ce7DkF3Q/mjWVWtJ6HvvMLNQ5e9CwuwebtnTj0ZH27J0MlTNx0UcTAoYFf+Pal7D+tU4UvO8mXLWY8nP4MD2L/Wg71obO7rHvDXtXCxr7gvNww40zSdykoARN+Txc9blzUIYIPIc24OXHDoh1VMYzCaFTQUInvV7W+vIWzH02Q+Yz52PLd2af/JdZ28fI396NEy09uH+NZ8CYm6HbgqgEhyl7WrPVL6Oof+xtrHxbs6aQbTf3PZp13FI+G1d9Vj/PL4gDTzyB9buBmtWpH87xMcTj3Vt1ctZg6XvTCBmmuBBusxvzVrOQYSxwT5+FmrGfmzkk2/sCuOPJZqpebcEl39mJNW+0oCegFypdeOftQb5w1Y7M668MB20fo4LaatRVWjCyaVGUPbMWMgyH14xpyLabe9zTug+vv9ZGIkRhx8z3XolrvvBBEjIWBD0+nZ8FZReejSlpM/rp410qaKjK9L5VmBlfPiKCwxt3JKYpmC0ovnAVlurmMPa89SZ2j5N1bbJle7sPtz3ZhOlf0wmdox1J0xQGUDP08hDDpj+Sdkb6aCwV4XANkqUH6+YWbS296B7NVf9OIZ7X1uHtFt0Hw1mMYmcb3v7t4/jjDx7HC9t0VX36aLrGuL3mXSlo7HPOxkqdehk5sA4bN3t1X4FpWHyB1GUE3Vvx6osTZZOR9MSFzgMZlgjVuKX01I/B6Ok62cF92ZO6Jk0yKbO5A11o2HoEax7ehuv/bRum/7AJN+0+3Q0uI8WDfU9sRps+udZiFPAcTncxKvVz/bob0DLGWyG/OzUabzfaPJpYiR7G6080ItjrE42/Egss8SfTg21P7Bj5TpUTjJ7WbtTvbkFrjxeBpCrXyDlxPEMPl+/UxD8c1mxtxQvcQ3TvJpR87QCW/KENt+0dgwbdTOSXoXJSltXFdqpCrU2pQl3/QXz0C9disSZoIp4DePW3uwfv2j8NvHsbg8Ugp4sxpfElrBdqZiWW33MlZkvfOD1v/RVPPZ/la2LhdAYKpFUFFlQUcy+PTS5BmetARY0LTlcOdwQNwSCD+4a7U0E27N6Dkkcm4LQTEjAzr1yB5fOKYenejKd+nK1wcGHap27EBVNShVMEndvW4tX/Gx+DT42RwXHKsPTLV2OeftlP724894MU9XQQ7ItXYfWldux+cQN27PTw5pZnPtqWInWTczG71IG6WjsKSgtRmWuCI5erYcn7LSWRjaDhzeq0giJ6sLSxMKI7XRs02HOsHxt5wTM2Z9m1Pm6gas7Mq86TAkZzYiFx4InHsH5nlhpf/jRc+s+rUKOEvrcRG9e8iX3jaEiGIWjiuDH78zdiebwB2Ifdjz6Ot9NtRZAW/bIVlFWCbdj3f+uw7d0icDJQ6zKjwJdpqxEL7j4/F1PINKGFxUhwF2DapauwMmVEb8TTiG3/txm79w5PK3Mtvww3XFWJnnE3hUZiCBo9xdOw8lPnYabbAt+WZ7HmmSHHyMexLFqFD1+fMsKYEALn+TexY5tu0qfBuxrX8ovxviunwK6rdkY8zUIT3rZ9pNU+O9zlgKd1fA4s5XJhbPKv8HXj6IZ9OBrtQuNLzbzaZJYUYO6Hz+We4QGYLbkoq5uDuedWw+5tQ8fxgK7xzuDdSLjPhIoVtcjnz7ygDZt//jx2UVXHPWceVr6vDN3vtCEwLBUggmD/+M1ZhqBJJRaBr6F7GEKGtZnluHxxUaIL79ibWPOLLeh0laCyPBcWylAscOyd+7D74JleJzAYkkA3PPl1mFmlpovkopjySfElF2LlkkkoyMlF8OgBtHSdOZUNQ9CcNAO1meCJJhzedxwtOw5g11sH0eHMR1l5H7Y/sQfdhpwxILyNHuSvnIoiTauxFRajyOZF4/q1ePn3b6OxIwZLeQ3Oev9kRHa1DevDNx4x2mhOkgFtM9EIImYL2SPo3L0B6587gE6udvPQ+HE+T8rgJKH37p46DTMrO7HtzaGXwy+48v1437mJPrfgtmfxx6fagOIaLL5+BeZNcot81PzcE3h548TeQc7QaE4KN+o+cB4mx5chCWLf43/GC+tOAJUVmDwjF50bDqKTtRijIfjMZubZWH3b5Vi4eDIqrCewd1v3kG1xgWZfklZjqSxHxYz5OPfyOajMt2tVcTPyK4M4ur4VE1nUDDncyiAzljnzsThpTzcf7IUFsHc2Y9uvnsCaH63FgZNeIMpgPGKprMTsc8sSk3KtdrjUhM4ce8J9MPyN2PGWflheASqFFqMR9aDxzefxlx/r5uFNUAyN5iSw5biQO6kaxTlKXjtRNGMW5q2cjNxQF1ob+hA2NJkzCvu8FbjmlouxbPks1MyYBNvxfWjuiIlJjTPOrpICxtuMvZs6slpGM3CUtJrzElqNgARM89vr8NJvNmL/Ac8ZMSzCEDQnQaSnE0c37cDe/b0wT6pCca5FqohmF4qFwJmK3L5GHG0xGmcmLPnFJFDs8LYFRGNmpGQSli9SE25tKJ3uQOvmZngsRZi6bBJy2XkYgoYyEWkr1Zg7lc5UAuZ3G7Fvb98ZNe7KEDSngEhfN45v3ol9AwRON/Y9u0+20QyFnV5FxGiXHxfQh6Jy1WIsv+ESXHDRHEybVwu70lxKJ+Gs+br6sq0U1fknsK/RiRkjETRE8LgHYecRbFAC5gwcaGUImlOIEji797TDMmUS3PvfxOvbs1nYugDzbv8grrikGm6zB92U8YaV2cx2FMyfibnnzcSUOZNQXBhBuNcDn9GVPjJipIHWnoWls91aI6ZOc4m4Ua0Eioatohr2w00Izq+FWBttmIIGEQ/a9p+ZAkZhdG+PJpxLs1F/cyqx+BMXY165WhQ9guDOtVjzRPOQPRdwVmL55y/D7Pj6sQqKo3U3Xn10K1om4GTmsWfgrGjf9ufxl9cLcMXnV4iVF3kxcItZ8/f64MtxyV1TdWtOG0gMjWY0yVaEhzxoIU1ox/qDaA3bkFtehM6330JDy9ARFFx8Gc6foRarIuHiITXGbiMZZ4YltwIzzipC34Ej6D7ZXSHfdYTRvbcNzrNnQG2nlaq5HF+3CR2TJ8mGXJuN9B4NZz+Ovkbaj2Y1MATN+CIShKehCYfe3IHGVhIyWQiqoiUrMEO1TXZvwd9+9Co2v3EQHQUVmFLhgtlWgClT/Tg0pCrvRtmSMhS5zAiE6MLhCGLZCsozlTB9ANqdmLmgVBMiVIWaVg6XJlQChzfi9U1mzJiv/DVMHTj0qiFo9BhVpwmOXB6gRqtykXp/ZANefmIfOj12VL5vFWqObs5u5rh9Ci746sWYplkFURJ8Hvq1NqOnuxttjR4yt6Ct9fQ2Jrim1qDY7ULxzBK4cgpQU+6GJcctx61QGtv2vilWScy0B/vJ4r7warzv4rL4M1a0rX0Cz70WROXq9+OKefolUPfhhXs34LRsfTVBMATNhMeOsmuvxBVLdOua8ECv19Zi/eud2XeRls7GVVrbw6AMp/2B11w5dxFpBGWkL0k8rftxYO0+HD6WbVOpBVM++jGxXfFgBHc/jzVrWoZu0xoRbsz+7PuxXL8OLyEFDT0JcxmWfulqzMuJoKdxH/a9tRf7hrmezJmOUXWayJjtKK61o2PjTuxr8CN/RhUKeJETkx0FU+swd6Yfh7dRlSmbT0k0DM+JZrR2heANmJFf7BrwBRcc2Y3Nu4cuRPaZ5+Cqz6zC7ClFcDvssGs/d3EVpiyZi8l5LWio1y8In4kYXDMWYEaF7P+R7VDdaDnUgnBhEdSmB5YyJ3rePozurLt6hkMQHbuS22sY75E9ONBAF4x5cXx7Pfa/sgW7thxDR/uoJGJCYwiaiUphDZbfcg1Wnjsd+T2HcXgvFVxeS8daihmTZbesOW8Sqq1HsO9QFv3c4QBpG33oPNSM5lARlujGirSs/SteeLkRxw+fQEtrGzrbhhiA6JyClZ9dhmolG0g4+Hq9iNnsYskM7o5zVU1HbtduNJ7IQgqWT5ID2gRh7PvTE3jzdUqPSRvoJgigZesBdGQzmmAkJLXXkLDrPo79mw+gTS3lEAwbo8AHIZ4VDCYW9spJqBFbi7gw7X034oabZ6OsMILOtdtxQCcHCkawebWrVL9THlUHWnrgOdqC5p0HcGD30FP77ItmYZouZzU+8zjW/OgJ/PH769CoufE3btqSKVnNCfJ06ucDkWakJrEm5d4ggn7NOEpE6jfguceex1Pf/T3++OOXsPvQGTzw5RRjCJoJSnDvBvztsd3oFF9R3klzBa76x4/h43ddidnx3RojaG4c/kYb7kL9cuGd6BnmjL6Ccn1LTxtaGrWqhN+XPAM528mHXhIimpGZdu1N+Og9n8ANFyau49u+C42noVnEU9+CnlEWaGcihqCZwAQPbMbffvQM1u9uS9PoS9rN5pfw+ubhLi5ggStfX/xJmxmmoLE4sxIf2dPbl7T1iMWuDWzkXrH2Zux48gmseXK0GoINTgVGr9OZgpW0msoyqipREQz60NPYCc+Ivrwpu0H0bsVTP9oxrA3IKld/AlfM0yyk0Wz86bPYJ3ZKTNk7K+serJTzGt/Emt8egM9oE5kwGBrNmUI4orWjNKO5fqRChnGjQL/GTkq1JRt6WvS7RxQn4hMrD+oIs96VDVTl0q/rk0PxGEJmQmEIGoNkigvkxEBFZ8+wV3bz7T1EeozCgtk3vh+Xfug8XPrPFyMxHCaC5m2NWcZNwk7fm1RaGB+XYzAxMLq3DZIJ9KHt2Ak0H+tBsL8XR+sb0do6zPV0vB1oiVSgbpo2+9nsRH5pMfIdie9a5NgmvPy3luzG+JDqY5t2FmaUyW7yQMcJHNrZOhZbdxuMEKONxmDUsE+diaWXn41p1YnBfxFvCw6/vhlvbxzGqGWDCY8haAwMDEYdo43GwMBg1DEEjYGBwahjCBoDA4NRxxA0BgYGo44haAwMDEYdQ9AYGBiMOoagMTAwGHUMQWNgYDDqGILGwMBg1DEEjYGBwahjCBoDA4NRxxA0BgYGo44haAwMDEYZ4P8DPnXObhJky8EAAAAASUVORK5CYII=;fontFamily=DM Sans;fontSource=https%3A%2F%2Ffonts.googleapis.com%2Fcss%3Ffamily%3DDM%2BSans;" parent="1" vertex="1">
          <mxGeometry x="362" y="-431.04" width="103" height="100.44" as="geometry" />
        </mxCell>
        <mxCell id="CXeEJhUWbDnMOtifJaz--27" value="&lt;font style=&quot;font-size: 14px;&quot;&gt;Welcome Back!&lt;/font&gt;" style="text;html=1;strokeColor=none;fillColor=none;align=left;verticalAlign=middle;whiteSpace=wrap;rounded=0;fontSize=14;fontStyle=1;fontFamily=DM Sans;fontSource=https%3A%2F%2Ffonts.googleapis.com%2Fcss%3Ffamily%3DDM%2BSans;" parent="1" vertex="1">
          <mxGeometry x="365.5" y="-330.6" width="107" height="21.6" as="geometry" />
        </mxCell>
        <mxCell id="CXeEJhUWbDnMOtifJaz--28" value="" style="shape=image;verticalLabelPosition=bottom;labelBackgroundColor=default;verticalAlign=top;aspect=fixed;imageAspect=0;image=data:image/png,iVBORw0KGgoAAAANSUhEUgAAARoAAAETCAYAAADpvMlyAAAAAXNSR0IArs4c6QAAAARnQU1BAACxjwv8YQUAAAAJcEhZcwAAEnQAABJ0Ad5mH3gAAJhzSURBVHhe7Z0JYF1Vnf+/b38vedn3pG26pnspLW0pUHYQBBSwKipug4h/mRlUZtQBBx1GdFxQ0cERFXFBB6UiAg7IWihQutCW7k3XJE2bZl9e3r78f79z7nnvvpf3kpe0aZJyP+3LPds999x7z/nd39lNAGL0MzAwMBg1zNrRwMDAYNQwBI2BgcGoYwgaAwODUccQNAYGBqOOIWgMDAxGHUPQGBgYjDqGoDEwMBh1DEFjYGAw6hiCxsDAYNQxBI2BgcGoYwgaAwODUccQNAYGBqOMyRA0BgYGo48haAwMDEYdQ9AYGBiMIrwSjSFoDAwMRhuSNYagMTAwGHUMQWNgYDDqGILGwMBglJDtM4whaAwMDEYdQ9AYGBiMHppSYwgaAwODUccQNAYGBqOOIWgMDAxGHUPQGExcOPcmOjYMxjH8moydKt8lmKlgut125OfbMKuuAHv2dKPluFfzHedQ2s35drhWVsC5uAT2GQUw51lF7o16w4j2BhHzRdDzp4MIHelDtCuonWgwdpB40T4EhqA5Q2Gh4nBYMWVKPm64cRqWryzDTCqchUUOxGIxmEwyB1xz1TPYsb1TmEeVEeY0c4ENORdWoeDmmTDZLBSPlnOHwPtKM3rXHEb42AQRpGck9K601zXC128wHnHnWnHuykpcc10tLr20GoXFTuGuhEocEjQyA5iE0PnA+5/D5s1twovdLaVO5F5aA8eSEphzbaQyxBBjrcETQs9jB0XhZfuQUFw5qyqRt3o6bNU5iPojCB/th4+u1UdCYDCsNTnI/8hM5JAGA3NK+geB75XvSdH5wx3wvnZcsxmcXui9aa+OD4agmaBYrCbMn1eCj39yFi69bJLQVmy2QZrdhIDR3rzOHIlEcd17/4ZDJS4q3DNgK3cNyBQqo4gzQlF0/+Uw+p9tQrQ7fRXFPrcQxV9YCCvFlY5Ihx+tX9+MSHOyxmFyWlDyxYVwLi/XXE4OTm/v0w3oeWSfkdNPO/T0ZRaL5x+DCQJXiVaeV4nP3DoX511QBZfLqvkQekHCpNoVcXc68tsnc5CEzfXb2tAdZofMJGkMdGz92mYEd3dJu4ZzRTlKv3zWAE0kVdtAOIr2774D/ybSpui+8knzybthmhA2A8KeJJ7nmtD90B7NZnB6oPevZQEttxlMBK59Xy3u+cYyVFbmSAclMNRR7yYt9NP8mbg7Q27CO3F+D2kqLGwCVFVSDFbglV/3b+vh+csR6ZZnRfWvLobJOohmpSMWiqDt62+j5KuLYcm3a67p4eshQtW47KJOgu+882e70f/3o9LB4DRAT13LcnxIn4sMxhXc5vKr315GGo325lIRwoKP9OMCmY50AifFrcEbwkd3dAw7U3ioGtX9iz0oun0+ci+r0VxPEeKepHFIhgjb8s9vItzk0WwGo4v2Iugwgm+DwVhw8/wi2EkICMGghIM6MkJQ6EqYCqcPz2H4l3qeJmSY2hwbvjy1gJx0cWVB3tWTUfCxWXCeU6a5SEzq0vIwImQSB49BXWeoC5X9x1LAcjKpMRgJhqCZIFSWO1G0uw1mqmrEBQMf9YKE0RdIWUI1Ny0Mh1Vh9OfpzNfStc7JTV+N0cWeBJ+dd+M0WNw26aARU5eSh2GhhAcfkqpvaSJT1xkKS5EDrgsqNZvB6JJ4UYagmSAsneyCORJD0c42mCJRctFeYlyQEPrCqEe4a2E4bAYBo7BQmP+oK0CeRWYPVYZFm4xmTgsHPBXagnaRjMKD3VMSkqrxxDWcNBR+ejZMLgss1Tmid8y5pASOBUVizI7B6JDmlRmMN0rybTj2yCrNBgTz7eiaR1UUvdBQBU1vZ/OAo/AUQQagwmms7wrgzvrkHiWGC/FQGoQo6HxJaR2AEFpaWjmqTOEU2VxzWHCDd5r2Lh5dHPWH0fdMA3zrWhBp82s+BiODnjH9NzSaCUBZSm+MvTeIvEOaAGDBoISDVnDjdp3QiMNBVDh1ZISQ0ZmJlVTNuK4sV5j1cIHngj9Ai9DZOYwu9gEahr4qlOIVx0SKm4ozk5Axs3KnMbUtpJmyIEOjutB06L6LPl6Hqp9fiKLb5pKmM3hvmMEQcF6RB4PxzIKZhdj8X2cnF2T6eavd8NQWkElXaITAILs6ckgOrDt3APGwGjp7mL78125pQ6+orqVHuwqdQiY6l80jIa61iMiE0wAyaTbv39SHLzzTiTAJkONFFtz7oXI0lFmFnYVKpi76bDnxxTcROmL0Vo0MkyFoRhXSFx0LiuGYVwRLiRMmCxXcjgD6n29G1BtCrD+LYfzEl2+civ/82HRRWFKFTd/UAvgq3VzKyYFc1JHRhZWwuy6cQHMTaOfFs4V0/+9DvfhD28jmDA1W5VFXGQn6eKe2BvHIg8eEWR9nwGbC526rxpGyU9D2Qs/s+OdfR6TFpzkYZI8haEaNvA9OF70wZidJFyL1QcdCUUS6Auj++R4EdneJtoEk6CtsspuF2v7Zm2fi0pUVsFIMHJuFYquNRTGLBBnH6SFh42Vhw+iFi16g6IWQOjJ6tzTY2r14cFcHfu1MFNbBhEdW8KV157NRS82I+NGvTuCsBh/Fw43VMqZEnCbsnOLEfTeWoKVIN4p6BPC0ieOffQ3IrNwZpMUQNKNC8Z2LkDPMLtTeNYfg+XsT7NPykXNxFVxLy0jQ8GxlLUAK/OoKSUDMIQHxH5EgyqgK5avOS5QwJTiEEGED/UkrUERg6ccIf9KcSBDm7myF82gPFpYWIpDamqedxugFz8kIIdbWhNY2jDhuPlSML7wchKdpp7BrdxF/DAlM+Pwtldg72SHiVtfgdqCsRxpT2tq/uRX+Le2ag0G2DHwfBidF/idmIf+GaZrt9DGD9JzHy6zwTy8km3qt+qMOvfBJJRqDmwSM42g3TJEYWs1mXFCar3mOHiqlg6EEkaKUanOvv34ue4jz/Z3N6Nq9juLJFJMJ339/Kf52do44R4+6/lBCLtJJWs0tpNUYDAuj1+kUYs63jYmQ4QJ4EBFc0RZAYXycDZUWLpRcesSRDRqikGn+DB0t/UHkvdOC0v+rh7OhSwiZMAXxn8S4GH170lDoUpcRpe0oPnewWrsX8rNb4aiaisrzPozC2ecLN0afAq5Y/ctf2/EPr/QmuTMq2qE0Ke6R4vY2g+HBjzWbd2yQBfk3zUD+h2dotrGhlGTMOoTRs7QKUa56KViocKHUH+m/o8UDV30HzH1+nHDZsK3YiaZ8O3ptZgSsZkSpZAejJrT6I+gMxbCzO4qIWWaZTJlHlFW6xmA9PVlXjyicKU2v0axeB55+awmZyL3IDZPVghgL2E7uGYoiGgqgY8dLiPg8FIIEFP1Tmg7//e3FRfj1JdxjN3y6HtyF/hebNZtBNnBO/IY0Gpwsxf+6GGZHonCLry8VJvVlZzsXGj2DffXV+UmkcdPH4SXjRlJUP3G8VxTkMC8jwddUYahqZOsNIHf7CeRRFQnH+rC1wIbfzirC5oocHHPb4CEhEyJNhvUiLqJ8eoHdjAqnGQsKLZicYwaPY9PP8h42WnIyEfdOE46Fxpf2TcY8Ty5MmpARhCNAUI6lMVlsyK2aRfdO99JzIumx8XHxkQAOldnQWD78MTLcW+jbQM/OIGv4mZ9EbjFQ8Kp0Vb+4ULNlBw82i55M5TWdICLY6Q+xKJbTj+GlqaIU2ErVI5MvMajtYJ4Da2bkI0CFUUSlxaWUB7bzT68EKdjeF4zhmRNBDLGEzQBYMA6m7aTCydKHnknazDNvnS3MJm4/4sRE6Q47esnMXXHJCfZ3HkX3njcojuRrhixmfPyfqnFC3xvFQfiCOlKvH9jdiba7N2s2g2ww2mhOEdwVnS1CUyHiQkazp+TvoclwAkf3HaGsSiztHtja+5OEzIvVefh9XSECPJ+J4uFyqdCblTxQR+XHdrfNhA9U21FOR0bdFyNG9YaisHljcPRF4eyJwOqXgi9bIaM0tdTQP940STMRrFWxkOnpJwuF1wfWzncWT0JB3Qrtccm/jI2qWv/9qxZKqz7h9D/lgqnXN9lPrpv83YhRdTpF2Gblw31x5nVYkqpBibwu0Fen0laXhiDdOS1k/ygVwByqTsQCiYGBXNQfn1aIremW2NTFY06JNN+ajypnBcodJbCZ7bCarQhEAhTOhOlu1iJA1akYnF1huE+EkdsWgauLBExvVAgau4eFTQyuzogQOhEnVc2sWvx0yPa+iwIW3HlkJgXlk+ivPwD4SGejexXaDCeEBQwJM9F4LNzo/eQWIRoOIuRJXog9JxCFOxDDxlm65zFEOsLN/fC+cgxWSn9RMWmyVTno6qJ0GGSEHym/YoOThAfnFXx8lmY7NagqhoXKUERpP0yWhfJn4Sgu8/sBbzD+kh+bXoj6IrkTglpEK65gcGnXWmi56ZQLbLmjHDPcM2Ax8zDBRIOqMjd4jqDRK1eta2gMYU+9fhIih1UJ1ZslrNF1T7cjqilf2VSpXnlxPqqieYiRJmZy0X2QIDUFtHV6NAETPzKsfbDWRs+C229aN/0VkVDyRMmg1YwP3jkJvTn6h5wM328upXN2rg0ryb6M4pw6LV+s0cxP4v/+1oj/97l1iA4yVePdDL/5wd+sQVbkfZAEzUeTBc1wH+5w2y5SSb3ehyPAf3b0kImbdIG/1BbgHZ4KoZVDXn9YXo6//HxtNnM66EtvycHCwoWwmWzCj9G3ceiFjj/sR31fPXpCvdi334/DDekmN3JYGU/CTDFQ3D21NoQdym9wdv99OcwWEh5FuaTASMEgepu6PGRQ6aOjhaRCYSIME23rQainFZ07X9ZSnuCpZfn44bXFmk3CPftlJKhuKHHgkrIc1DhIqGjPIh3btrTjAzc8hxBVGQ2SkW/bIHso3/LmZc5zSuFcViZW+ef1cU28+0BKj1IqOoXhtFBHBe8ZKlzMa5W5WFsjpymIJIg3z6IikSDhRL9iexEWFC4QbkqY6AVLlKopZq0AszvDfgf6DuCY9zje2uJFD1WbZGyMiplR5oQbC5vuqTZE7OSmvNLwx/XzcFZfPkwFuVJT0RHjqhMLG9XeUuyGiYWNRqzXC7DmQ3S88yJVoeToXpWqgN2M9941GVFKi5skzI3lbnyoyoFiW4b2GBZqaYTO359txK23rNVsBgqjjSZLLBUuFP/zAhR/bh7c750Cx/xiMXiLpwmIhbgH+dLFySJIVugLY0rB1H9xefbUrd4AGtx2/HVaQZqyMTBBJY5iIWSUUNHDQmVP9x7Ue+rFmQX25HEoJY4ShGMhuIv9VI2i6lo8Cg6tfirB6ihFFbfl+IozP0dXOIav15PGSNUlk2tgl7S4b4cN4AbvXArj0MJwIvxB+iW0LIvDBV9bgzCrq1npYbWV2PHp88vw1ekFWFFoh4urXJng66URNjNnFcDbH8Lbap8sA8EgT9KAMefZUPGjlaj62Sq4lpfDlDPMHod4YcsOzrZJ6nm68/V5W2cW83a00s1xxDT16f+m5InjoJC6VWQrwLyCeXRJ1nP0F5GEokG0BztEu2tT/8ABa3wet+dU5pTinCXaTg1JcNpUvMnxc9oLqco18KqSH+yYLTRGkzvzqFwTCYYo+Zu8JFg6+wCPTxxjnuQ2GUdRNVW/eJIoa2kSNn3lHS8uLnbApjRTJSn5qMziDM2s3lPcT3LXvy/FwoXJ1bB3O4agGQRrrRvVv74YttosCqoO0YPCR86I/D85HyaR6sfWpHaaIc7Xo58cKOKg3/qKHLRpez/xgF6taMRRdqfJiflFsrrEQkZpNHqB09DfqJlYW4ogGEnePE6Epf9zCuagptSNKZNZq1Dnc3xsVjfDR/VjYrAGAFs/V7mSKfeacEl7CZDj0FwyY3HaqPpDBqpCxUiTScgHNqi00Lt18TuVnipV0cMkmIJkEmHppwRJkkBhM/1UxHxkf2Un+L3/7n8vh1ObuW9gCJqMWKpyUPmj88RXdLiodhglMPTtMgMESxbRpwuTjfDhnt3ntXYZAeX7RJWIjhwJxc3lZHbebDLKf3qNJhGeaiURX7zMMWzXoxdO8/LnY85MqsIMSLtySH/MaR24Rs8/HZpMaadYnVmM4uULOh0yJfxHJwCkgzw6iqo0cwLRznOc7kkkmn8iAvaS1vjNkJsypx618MXFTvzDZ+YKs4EhaDJS+QPuxJQkVWU0Brokk0kQsNDg+LiqkEq104+FblL5syELARjlrle+lmaXZU53HieGHCsd5ShwyPYWJSz0AkbhCfWLapPqreJxNKmoq7msTkzOnYw6EjYc29BPjCGthpQkmzcaD13db8IHj1XDlJt+a910mF1ULUpNftI7NMHmJg1JmBLVJ3FTG2QvnYTP0c5jp7jQUm7xM3Wwn3T/0r+cZWg1GoagSQPPwuZtWRXpupwHuKQ4DKapcHzp1kDxR8xwWiKY5hp6NbsBaVJWnXNEC8N/heCjH5c3WeaoiNHRZc3BzPw68pJhE2JJmtU/9g4jJOQbR8vnBqKy7SMeRkOZp+dPxexpeXAkjZqW10k+KrMkl7QaZ0cEdk8EH24qF2NmYBtGgWVJmEiORCVaWmB2yDakhECVfpE9PCmTzKnPVz045a7i09uFmX8cVwx2uwW/+8Pl7PuuxxA0aSj8zBzNNAw4b6Wi5cHB0GtLXSE77/iKUnsQuTxKj0jVptJpQgIVTBecZwao04Xgo1+8PLAbHaflJJa10AsLBRdE9U/ZOU7++TSNRvn3hHoQjiZXfeYVzMG02sTqfIkE8lH/4/jl0RqIIbc9gvzmCB5DEz5UvQEv2g6hx5Td6NskIcySMY+0oSKqQhbTj82MNg8sgTwn2q61O/EN6h+U+qkHqvz1R+Gn2cW9AOcsK8OcObxG0LsbQ9CkwVqjW/mf80wGBmsncZhJ/VeZktHC6lftZzd9oWBTZ0gWyqkuuRC28lcxxTWhxGkZqXaZ42WASRVSORYXip2J3hElMBgWOsrMsN1q4kZlctecfRGvcGd6gj14p3OHuGf9eXnWPMyamqvV9JR76pHRPSudOUTG42Yv7nHsxrWu57HGsQ++2OBrLYuz+Q83UhXlibYdnuHNg/di2riYSHDg2r/ivF6tG1w9OHVUP7arByDQhVOwnSE3C2lj3/z2Cml/F2MImjQkCQidkdELisGqR+GoCWfl9WGKk9ey5cwo3ZNma6c5/4Rfdt/mkEZTZE0UKH3WFqhzUzz0wsQbATqCUUTUILaU2se8wnmaSdLia0FTfyOi2tc+ScMho5X+Kbithuc8sVDhcI39TSK0OjcOOfII49IyvriKT39MvTPlx+4JPxbqHPMPLPW4Nu9ZNJgzt2WJszgwnRSfR8aCIBCEmQf10fuNaoKG066uyLaYUppUHlBCRP3YrtxUGEZvZj8dy5aXY/5C2Sb0bsUQNGkQQ9ozkO2yDhHKtPs8LpTZA0LgqPmDqaQ6+3WNN1Oc/Un5V5FOECoXPl0JmyPeKJ47EcIfjgbxKlUJ9vdJwcX+FvrnNEuhporacd8xHCFBs7ljM/wRPxVYKUSUf7GDtB+tDHESeAQxw+F4oF6po0hMtlSo83Jtbpw1S4aVEagfw2H0doU8NxV25UngH3GtxZEMwkacyZKJC3wPCRYeT9NBYfvonoTAoPcYkZoLp11dWZgjJJ25/iocOCz9+GbVT+8m0LnxTzixnxaG3Ph9/fvXeJGudy+GoElDuD15gFcqKosNhS9mQX1/Ln35o1iU1w1bmrpWqgsX7Q6fHC9it8SQa+bxvckMaAgm9C5J42m0Y5Mvhre6IvjT0QBeaQtiVv4cupK8E1XUZuXVibIRiAaxvXN7XDtR/tPzpqPQlkdC0wQ7aTM8EpjheM4uPhtzChIaErtxOkOiQMcwt6wWZqFRqaenf4psVnaVYj6ym7LroadEcX/K+Sr6TIkRv3EofeIR0S8WjCDmC4m0CDe+QfII9XYkpSAOj+NRGqBIVkq62M4/jkxEqHOLh2W0MBrnrarCrDkkbN+lJY5fvTEFIQXeqN55TplmGx5J2gYRJGETjJjo6x9GhSMAT9hOBZkzpRYgDaJB2CELUB5Vn9pCDtkexOeo4whhsdVLf15uO44NnS24qGwSLNpSCg6Lg4SIBZ2BbjEgz26yI8+eGIfDwqPcVYHJuVNQ46qOay9KYMXvndJ4nKphO3t2oNHbRPcTRk1ONQ52NaGHLy7IdDPp3PVu6ihXAGyy9eDS0KSk0LFgWM7o1iMEAR21wt+z/y0RExNPP/+zWGC/sQwxsQyqFiufw+enEyzKLx0qjMaMiybhwPQylK+ahNLlVSg9txqWHCtCXX5E/AM/KGcShqBJQ7DJg/wPTKdMojlkCVdJRLsN50fdub6oVXzIWGiUUFUqELaStkMuKeEUIfKrcgRFHrWShDnu5y1CtIDJh4wo/7iASoM3Esazx4+g3tONhQWlpKWYkWfLh9uai7ZAOzqDXSRUJsGsCSKFKJji/8CIWXPY07MHzb5msaof4wl7UJtTi7DFi30NveQSTx39VAJTj3rYrvyYhLkZPnw4NB02vargDZBEldpYIq7EOTwwz9u8l9KqwiR8rUUWFC52wl/KOyVojvzsUwWK3i3pKDxFEO1kaSSq8mz48y6qwlmp4uqywpprQ96MIpSePwm50wrQf6QHEd/gDd0TleQcZCAJRRHtT6OSDwJ/zeNVlkTeEnB2awo40R20Cq/pbg9KbUERjgVBqhbEw9WCupbmEtvAzMdxMipU0ipxjBbnYA3WDAuDvX2d+Mr2dTjq5d0BTChxluC80pVUHVoshIyqOimUXR31AodncHcE9YtLcRiqqsRCmFtRK1ZvGAiH4Tj0x1SUn97fhDCZ/2A/qNk1QvS8RHAtrP75kjka9CIa74aXcaoYbflWOLoDsIoCn3xe/KiPj2G7EjIcEZv5xw7KTO8n73gvkmdq8Qn09OiQP7MI8/51ORzl6eaITXwMQZMOyhd9T8vZvYo0zStJpGs3SeWAL5e0GfnIp7q8KCZhw4Ig3bneYOLVlNgztxmpM2MpI4WzSY+eMIX/5p5NeOEE3Tedygtd5dl00xcIvUDRm5XA6Qv14UTghDAn4Bs0wWamr7fVjRwn31c81fRLTrdE76bM6jjwnDesxzUTQdUmoc1wECrBMW3hciFwNQHhadoljhKOT6WHgvBqgUTR7jbZViPOoSM/T/0zZbPyY4RZxq+uo7B1+lD08iE8/1Y7+uMfBN25MrH034y5X1oG8zCWhZ0onHl3dIrof75JM0kG1Qx0+U+vnaSewg29e7y5shyQJ48Adltk3TxVkHUEE/N6cihMOs1HD/tx17sKEQ+bEm861LX58PjR/fjjUa5WJE5UQkWvwaRqM9xwvKN7Z1JZZNg+O79OmDlNc6em6+bV35c+AjYruzpy2GS3I6Y+RDQzT6TkhxvLz4Gp2A0z75JQkifMnGa+r2Bfhwir0q4XmrYa+dzNpNU6O9QIbfLXP3t1k+JI7nq7Fo7XS3Yd7kLJ3w+g4M1GWHwhPBMkoSe8tfC660o36V56XuYlYScqhqDJQK6rDOfk3qTZBke/5q++gCZMCcIxCw6RsGH4tLpcD+xmKgD6PEf4dGNWeKU3BwkbEXe6SAn24673uLdKR0q8SWhB+Nr6YC+3NpNmk5iprYSKQm9X5p5gN1XDSGiyVSc1nRYHypxlFL/8t7B6iuYjAkpjHLbr3ZQ9Naxyl25cyRHtQbzVSiAofWwW9JhCeMvSip869uCfct7CR2o24T2TX8dnr3bhPy8rxm+X5GHbJCedyZ8AxgT34sScqvxD3VQl1dpxdEJEHNVP705YPQEUbDiKkucPIHfnCRI48kNyOGrFXt6RT7uSvCeF/v5MKDtft/j6GYLRGJyGoklTcfvTm1BVvBAVrjk43PcmZYWUkb5DYKEzeI3ZMJVifZZi/CRsnKQB5NgiQtgU2kJoC6YugRBDlTMx5N4XscBLmTWeHzWyT1Ea0pys7nFfXxcuLK0iAZcQeOlQ2sAJ/wn0hntl+dNFfFbhQtgtduHGBdpOVZl1e45ovgoOrwpbuiNjwrmTnfj65eW4bq4buTYzjnQHEaRyzCn8dKAO0W4POi1B/KLoIL6Xuwc/t+/F363N2GHuQovJi15zGCESgl6S3CfcNuwrsWFdrQuvzsgR+1jNbQ8hb2UezLpdHRztXviqdMuEKOGizFQVsvb6kbO3Q+z06TrYKXb91MOx/W/Aiu2i2sw2GX/iyCj3GMxWM068SoJe3foZgLwzgzi5JWW44/kdsGlLDXAB6Qw04pmmryGkTSIUSM+M1Nj9qHbxoDdgR18+AgNG+sUwn7SZHF7ajegO2bBf03QYjnpJfrc2dH+gfyq5pghpDgG0BJzwZzuqcAgKbXZ8Z9EqYVaCQpkZvd0T8uDtzq3CLta9oYK7oGBBfBU+/Tn3rXkBXm2jN/YZ/GFKbePfLyvD0mqqDqUEW3e4H4+/7sPtXTPw9cIdkJUdFd9g8TIJfx6XU9sXxh+XyoXb9R+VUK4NnQvLNRvdH0k3Gwkgx9Fe2Nr66X7Vk0hPlD42F3RzM7CKU4XWp02fZmDvA5vhP85byJwZGBqNDqvThS++vAd2l8wUWhaEy1qAWvcKHOp7HZGYmnQnD5ngwl7pCIhgPH7GQp9HT9imy5AmdITs5BcUwsRp4akCPF7MKjI5h6u083YmMjTTOkDrkcmodfkwNcdLGlQE+dZw2nDZwu08qhrnj0aQa7ZhuruQ0sMFXnrwUdmVmbUWty0XQRLGebY8Mb3BbXPHwzDqnC1HGtHv1/fq8DFd4aN3Qg/gwfdNxpwy0opEMArHBu1YW2THVYtc2F/diVeO6OcvcWAVF8edHK9E50/GbocZr3piuLGAUqkTNBZur2nug3NnK3L3tSOHtBbH8T6huXCodDEr2G9dyIIX6ZccUpn1aUsce/a0I9gx+MDRiYTRRqPjrOs/CkeO6l7kDCD/8q/AXoX3VN9FD4wzTAJdc4Q6RcBjYU6QdqFgoTPfzVMREoG4G3tnX15cE5+c44eTSrpq5wmJpeIkdv0kKw0bxbDA3YtyEkgKqR8NH5WsVGXopbaBbTX6ozIzPFL4rKLFQsi4LLKtIzUMU56vNLNk90RBk+7c+fKz66tQU0AGfiZKyDCJRyOEwsopufjdh2rwoYV5JNTZMzVuRrml+iUi20/fkbuODTzXTNUjC2/tor0b3eXTXknP3f0s+PVnKPhMlVblL+1m/b7pZwCGoFFQ5rzo1js1CyO1Cn7pbOLXX+qaifMrbk362iU14urNRKPfKSZXKnitmYVuj2i/UQRJIDX0y0LJIac7E+pykNtkNFizYa1IYaOq0lkFvUITUrDvHo9sT0gSgCno069Iug8dHUE/elL2QdKjtBU9euGSqs3wcWo1j7pmf/ZTCU0283rvP7yuEuVubYkJlWYllQVkVgKIKHBacPPZRXj4A9Uo5gYygT58OlL9TXiZ6l+NQUqp1hXNR/0mfKmpVr90NETM2tQp/qN+qaGVPRFrNDjwwzKRMQSNRuWchcir5G5FWSTkX37lKhPIYjKr4FJMc5+ruQ0On3nclzxEy2omYZNPajdJAlXg28IO0QbD5NoiKLbJ9ouAynca3DvFsNBZmNcXT5mCq2YKveBIFTr6nrFUBoSl3/6+HnH3CmVWgoOPen89en82M8UuFqwcnu3pz/vqxaWYXGDnxMqfIi4k+Ui/NEKzOMeKRz5Qg+9eXYZCsYAZh9HFkZFEXP/dSjat3qrvVWT0MenNHEqFVOZ/7qV7FY56H4bPZDMfVSzKD/A28wjqMwdD0Gicc9Mt9Ff/FeGXLjOCzAbyLxeXVZX/RFUDrZEzTUZX8BktYV7MKjmMzRQV1ah4ASLvw15XvNozPadfVLEiOm2I4aoSU2wNii5vRoVgzam+P/2o0lRtJW2ataRw2FTfJm8feWsBCCU8Ek8m4ccowcL/GPZXYdjN6aCqhLj3NOmgcNfOcWNZjXYvnFaVXj6oZ0ZHVY0R/jp3hq8zp8xF2k0Nzp+q2qzU9dQxUxqA9b4YfJpGE/HItrbB4LmjWgpEWDb308NsFe9M+ejRpyU59kgwTNdMaFBnAoag0SioSoxdUK9eFg9ZYGRWkUeLyYJlZR8V+Se1h4JJtptwuC8xNkPBC2PNyPGQryRMr2Kfxy3iZLcqh0/0VuixkUYjekd0S31yerhs7evPFW0+Q6FC6DUXkV7dqTovQXuI19SR/xRKcCjUk+LlJfb27kWzt1nMcdKfp45Onoegu55ExldGVZ5PLy3SZIt2jbgQoZ8SKnQU87+UnzwhcdSwkUT+yoUVeOiGStTkc1WUw2vnJKE/LwbeRPiQplLyWBg26UOwWU2VYr+Iw4SD+Q68XO3GYzOK8LN5Jbh/URkuXuXG4kUuzJhmR1lJpqECKenhXoEzrGSyXmn0OhEX/b+vwlVYTBlIZidZcBiRpcRRZTQ2Fdprsbv7/0hbGXpOlJ9yTbk9oYUoXKJ9xYS+iMyA3IAcjnDcYXijFtJwTCjgZSK087pDVjGWpsbpV04iZYdIQPVq7TlJlyBPYU+5LpNaHRiMUrsLy4orhDnxFJJhd94VYVPHZnhCXnSFunDc24L2QLvofeKZ4SpkOBLGm/vUFA/5bBmb1YT/eV8VcrghVBMm8SOjFyKpfoyw85F+enciz2ElTSkPx/pCaOjSawsqnDhJGrVjjsmKc3NJz+2XGo0QLFoQDt3psOD1SjeemlqAtTX52FdegI7CQvjd+Qg5nAibQ2JpDDcJz5JiK6qrbJg+1Y7iIgtOtPAsLT3iCuLI76bioskop1/RonIUktAK9QcR6gnIIBMQQ9BorLrtX+DISfSGcMGRfxOwTbqQD2XkSDSEFt/upDDpoS99mDIbL/3Au/VrbS0Mz+j2Rc3wazvdc/c2Tz/gru9Ca4gKaaJQdIVspDFYRA+WmbQdFkb7+tzoi2X4UnLChkic6MxioSPzeFrmFxRhQUGpZpMkPxlJT7AXrf42sTa4gILwZEqe/8RLeuZYVdXOhNd2H9LMjImSYMJP31+F0lxd469ekGQSPGxXZuGuHfXhlT9x3pRcLKq0Y3dbEJ6AppKIe5H+CUggktr3fic9fx4VKJ1EqL2FTjw+swhba6vgrJqDSYUzUOuuRU1ODSpcFSh3ltOxXOwCUe4oQ64lhz4S3fIRUzpyXGbMmO5AvtuC4yf4/XKsWjrJzIKGN8PjgXu2PDscpTkoXlKFsvNqYK/Mgbehd8I1FhtVJ41wQI3BUC9cvn628zG5YEnbFPc5wqby8mB0kwAJkEYCXS+RYobLJ8bAKALaNPD4y4nHL6sL23oLsLUvD7s8eaQtSQGVCrfx8DgcLrapDbx6uDtbNA7rb4/gc1QV8OxCqc0o+O5V1YnN6tkUOgqE1pYmOuzu3Y2QmDEdI6HCz4DP558MecP8PLGMQvxhiki0WPRmPrJdhVPuepQfw/76eIj5FS48RJrT0hr9IDqFOjdGwoEOEaXZAofzHHh4YQ02nbUYsyddgLMKF4lVB3nCKD8r9Rz0uKwuVOVUY0XJCpTyQmEUvQpVXm7FRRekG4Sp0sAh1Y+yjsuG0rMrMf+u85AzNV+4TRQMQaPRum8Xvd5E8VEvO2FXqEwA5Fq1CYJ674xQHT6lB0pholI9O9cjxtDoibcFa0erdmlui+E2ncGYmePBZBJgk3P6443BKro0Q3IGwOeo3qk8KxWk+Nn8BBLPQD4zaee2q/mF80n06TvwOR4ZTsyFong6eeKjiI9/siB/eCE3ruvP0tALDb2/EB4csc5NXIh+KYIlyV25kdbw9csq8KFFasdKzT1+n6SF8mm+kGjO/fm8Urxx9lJMm3QuJpHmwvfKQfm5RKNRdAe7SSZxZVedL2E73zsvEjY3fy6mu6fLq2mXcznNuORCJWySz02g0ibh5YFmffZsFJ6dGK083jEEjcb+154fkEUUqiApVNFyWgpINZ4pHXWoM1M1CS9VcToCiS5oPdzdPc/dJ7ZIUVhUbtQwpdGG0jHF6SXhIDWkqJjIJ1GxqUF5yfebHi4oVS4581nZUwuTnkJ7EVaULkeZo5QEJ89x4jJtEotp8Yp9bO/q69dKGv9M+Mn7KuG0caLIVwkJBduVgFA3EBcYmp86J9XMcLi4u2ZW7sTNi4twyxIWcpq7DlZodhY68KuVCzB18nmoya0Ss9QZ9TwiZN/SuVnMXD/UdyjuruDq5GHPYXjDXnEJXmmwkp6NSgbD+15deL5+SY6BaRFpF7AfvQF6XLWr58DKQwAmAIag0dj94jPxAVoSNstWGlWwlIBhhAsJh+UFn6CClPwYVZiUTiPh3uTPYW08LSxsFuT1xkcBu1IklVw2a3CqHH4xrUFxIpx5OkL8XjKkh1lVOnDJgtTCpIhEI+gP9Yu1bHj/7WUkcM4vOx8rS1ZicdHZ2kMjgesLkFlaVi/Iw5RCLixanEKg0E8JBk0gpAqIJJRb6pHP0Zdo/ansroX7cIEJufGHII+8jM3CJTk4uHQVphfOFtWjrR3b8EbrevjCiakOx7zN8Efl824LtiVdw0/hdvRsR1N/M3Z07ZD5iP5Py5tJ7zo5z3C7zcL5rPFyBMlpkfB96O3kQvXUObcv1WzjG0PQaPh6OuHr7dZs/EJZ5U1GCZwEJpQXzsE0m9y3R7VpDEaIzjmqbanCpJ5hNUUxl6pR3PLisif3aPFadwpVLvTnc5f4JGdiFC9P5PRpjcyDwQIxk7BZWjS4eq5/Jgc9h7Clayu2dm5DV6BL+PEzMcdbhyVdfu6elxe8fn4+GdmsxaOEg3LTP1Plp56DCEM/FV6FVXZGHZlUd7KbwlG4tx3HRSUkPjXlIMdlwhUXFuOqmech3ybbQnjSqCfCW7XE0En3xrB2c7j/CE/gFnCVkZOsBPGOnh3kJ81hqlZx1YphoTU1d6pIjkoyU11phdOhf1bsyeerQMrOsNkEa54dVtK6xjuGoNHgbTae+6+vaq808VdmGvVy2U3+k2bpd+HULyLPUk55Vx8uM61BJ335ZU9R/IxI4gzWaGbn9pIfuekG7UV10kBpS8plspOFTGLOE9PoTR6/M1ia9NqXuszUnDzMyZfbpKj75ueRuP9k+yz6UnP1qJ8K5M6eXWjuPybcGRWG2dPcQn9N+OpFpch3cOHU/MTz0y4u3MjMbrrnKiG/1FKqNzN6uz7eFOydckzS52MBRGeZEJprwfxleTi/crkQCOkIaRNruXGbr8KX4kvw/C51n1s7t8IfkeHY32l2yHYdDe6Z4nN4uRt1eyyUZ89iocFxqPTK+BLo7RSGzsmdrFvGYpxiCBode55/Cv5eHvotXzL/lYVJ2bhYJWwM+/ND/MDUH1FGS/QEKP9M7OWV9vSl25J8Rq41Krdn0XWFhzJoJzNy+kWXt57+oAXdEe7F0RyIodKkUMm6sKxaGgh55zIG/VE+H62KSZl+eeky5FrcovAc6j+Upk0jgt7eIEpyzTivlhtByZ0D849LJMUjEKVPM7O7Ko2MMOvsjIoj1czo41WQVWgzm5qFtZjUkilhetz0Ht7q7MM9O1/Apo5mvivhr8YBcbQqJm570te2uUub75M34vOEk/fkmkOar/65ceMwCyaxTbgWjg9VlTZom2mmoC6ku6CWEqt7/LfTGIJGRzjgx+sP/5BM8gWqfKJs8hUr12TMFgtunPoAaSPJ0wD0VRJ91Yp7jnb1yQKZLbzuiR6WTTyVQc2NYvgKHKopqGkz6ZM7JNVON84vnSzMqrDpEYKF/ilBouB7PLtoMRYVzhdrDqu9uFUc3J4Vobu/ebGcwiESqC+RSkjES1+KHyPc6CfsunD8U+eKMJpZxanCiSdkgrOpVyzqzi78+4iPK7ZsYq0lij8f3YGHDm5AR8BLVVoraXi1qHJVotY9VYRhDcWmaSluWw4qnJXi/FZ/q3BjbYUvV+2qog/HwG7sfJucua+SpoRWQUG6D4pMV+LIgeUJvrbxv26NIWhSePNXP0bLvp2aTX6tFTITSrt83fIvh2E/hyUHq6f9N2W+RBuMXmlJncwYiFlwxDNweoI4JWWeE6N2WeDM6zJFsaigR6wnrIev0OJ3xEcbj5TVk7g3TaZXPQO+R/kMpBv/e6frHbx24nUEtGoCw8KmyFGMs4rOEpoAn6PiOO47jkgkhstmkLqvShn/lEDg6IUw0FDPjN2Uu95NkdZNOw44l8x0zKlvk07a71pPSPT0xWOgcw71d+L+fevoPo9jsnsyZuUnehlZaC4tWSq2/F1SvETcI/8LRUnw0xeGL1lFwmdG3gztjGR43R7GrP8aEZOrU6tsyj85HMN5KtiqX4dnfGIImhR4z5/ffeZ6BPo9ItPITMd/1UtWhUZlRylkZFj6SlK14YPTHqT6fUoD3cA8ImiPOnA0ZXyNCKpVmeKZnlCTCMttASzI701a20bRF7bgaEAKL70GNRT6qGqcuZifn1hEXAkXRt67hHeh5AZSvsy27q1J2o0Kx0dl5ngOHGvHgnJ+NuTGJ6pfHJ1Zu1+B3qzCK7d04fgYj5fMyl1zy9vaApMa8avhoDC1Yf0dsom0Njo+1rRdVKUY9Tz4yAt+FWqrCDLsxoKnxlGDpUVLMcMtBZP+GTJsd1Ae4WSpOW0quQWFrNHowytzqhvFQodoIPk+xiOGoEmDt7Mdf/7XfxB7cCcynRIm4vXSX/ZRvsmhnNY8EjY/JUGgEzb6PJLC8aADTZ50I0T1MXPPhQl1Lg+muAZ+wTh69j+gLfcpUqgKVxYozSvHYsU988+lDJxIsCp6+iLIcDuDiU7kywSjQRzzym1P9OFUAeMju+9BN3bnkls8iGbgSNQl2Szs5KDSwUdxP/rw6gRCH05/FOeQOX6+dHMcT78MwxVeWdVLID8gfP4TVJVq6FM9k5lh4TM9fzpybC7RVnOw7xD29+0Xfup58LPQNw6r5DJ2mwrFaGkecJR0bmkxBM1EZv+rz+PZb/4LvVd+5fxypZCRJv6rsgIfExlDZoMYXJY8fGTGz1HuTDOgT5+rCD67JWLD3t7kfZRS4TWIC+y6gqCrXvHYnP0krMJa/UqmY+C1huLyilqRnlRhof4phI3itpisokGTy3BDfwMdtYKpoeLhY0egA83+EI5ZotiztRVm3oOJw/LJIp3aeYnTpV8Sek+NuJM+bMp58WuQxvBmU7xBJOlS9HvPgJ0i1bOgvxT4D03bENZ2RlD3Jp+MjEnv1uZvFZpei/84+kngiCqVjlBENuCLZOlkBT9XmVSOS6VQHRmZHv51bOYevPEPi1RjUmUGju3ahpDXg5nnX6a9cn7ZqiCpTKCOMkNKE8MTBW2YmX+JGJx1wr9X+CuUAOCjcg2S3G8P2pAvepy4JZH+q+iJ1Nnfyp2D7Pe40adbkW+kNHl7cWn5FLoW36X8xySlnf4pO3+x+8NeUY7ZzUr3mm+XvW/68/l4qL8RL7VKTaKZyvMnWvsQcVoRcdnkvYh7JYM4cih5rkB7XtKfAih7kpl+en+9n3a0t3iQc1Du65QOF53zmzx7UtsanaylxIRANIzJOfkoc8j1kKWreveJf2zPseRgSm4tpuRMQaWrMlmDoX+8P3l/1CPsKukMHw8eCVLyVSKErzSKozT37u9C68uJpVbHM4ZGMwTFvk4sKuQxufxy+YVLEqZkd0bapNDhAntWyQdx3eT74u02QrhwISBSqzfBmAW7+nLjW+KKQ5qGYQWvK7y7Ly++TISeNE04gsyxUbUxEsGGzkQVSP1TyOeQYGrulHh55t8xf0s8jP7cQMSPxn7ZG8O8TTlvV9iEgvpOuI9wdUSLgBFHnTnJXTumPDdBajiFLmzuXtkAzCFEKK1ZSZ3BzbCzQxw+OQ4Zg/z7QssBcVT3pj+qf/wMuLGYY2HfdNXYQDQQT5o+yeymKU069OdL84mXk3dTHc8YgmYIJk+fiem5VpxXkthGXmYkaZJIm8pU+oImbVGUOKeJdhu7OTdtpkuCcp1+zpN+LE38kkRvyCqEDC8XodDvwa0+iPqoGBVCaVWMPsyfmvaLmoVeqKQTHuzmsDhRaOV7Ek4kUAJo9+v33pZ0hbqxsye5WvI97YnmtvSjaMcJilyLRH9MdeNrszlVqOjDMmnC5O5ug6VPVldUSJIFAmXn4zLR5qGLK8kMqhKxBifd9M9IDy8AdrDvIDa1b8b69vV4o/0NOd9JB6/fw9Hw69W9CtErl4zyTLj723zoP9yj2cY/hqAZgpraWvprQoXTgssrnLDTO+fMpSpJstAlFz5llhkkYXNa8nDT9J9hRt4FIlwmjUOuJ5zBU8tzhzw52Od1i+qWntQ9uBl9THrhohd4bFI+gShpNR1HdSmHGA/DEwj1sD9/tWfzjG06WUXd4D0SvyjfZ5Tiq+/dj2MpiyC/QUlv1aK0e0Ioffs4rB6tm1wvKDgyNov0ahdis/op4mHYLA/KbukPwaVVmeJe2o/tyo2ZFlb3qXeVsEtUqUGE/r3zP4Zncm/s2IRm3zH4oj4xSDFKktuqVZ04HLfXeEnQcJJZYU2eZ5fpygoTnKUuuOsKNfv4xxA0Q7DkvAs0kwm5VjPeW+0CT0fh186ZTL5+/qt+yi9hU1mQf1azHRdV3YFrp3wTdqts/E2VKRZdRtbDebE9aMe27nx0RIY3GlRdI/4ljhfiBPpkPNsi9x7nlPN9vtW+ERvpp7qw5R3JZ8Db3s4pmBtX97nhk7/W6tyecC+6Q1EqWCk3SlE8YE5U+Xj/pJIdrcg/oNOIRDq1tMYFiRYP2/X34SVNhBeR4R8vasVhtXNyd5HGpJGUCs2id8uPF/qkkAJ2yeGdNyle9QzUffI/htusFCoMz9i2a1VnDsdzpzh52usQ6VTmKD0naVSe6qiQ9qorponjRICfQupdGCjo5W9u64PVmjyAiifKvXDCrys4qY9R2WUmYzjryEwn3dkWiQbxRMOd6Asl9xzYeSuVfLnLgYq1N2zBvn4WTIk4ByX58kno42UBpG/45InjMVJPWCB9e8H5KHY4xRf5rfa3xH3PL5gnFntSqELG8EzmA32HRS/UJNdkTHXXCsG0gQTUC60+NPsHClDujH8nEhIFV0/YaUXnonJKC0WmSiCHISHA1cPouk5Et/Yh2uCF6QRpWwESLrzqHAsJDk5BTbyOTh6lj2pLjhITcuZYYXabYS83Q7XL6p+F4vbSXGxOGQal5+zCGnx4ykJhVvevfw58z22BdnT420kIO1HlqhLTDfhiKtzenj0UJrlRmm+Tn93e7jD27vHD4Rn4vGSKJRFvEDvufVOzjW+MXqdB4Mz/0c/9I5yulGkF5M7tNr2hGPrCUquReVtmAmWWGVCSyIgqNI+jsGJO4XtEI3Gbfz+5yD5OznDVaSZI+jMt2ZmORH4cnJRweqFTm5OHSfTjgtPkpaoUpYuH4rOgUffKsJn/8Uxnm1nqYzPypotqVbOvGR3BTmzrCSJEkQtBprsGd/j2kmJ9kXgmCcxUfck51ifChnJIe9vrQfTXzQj96DDCv2tG5HUSNAf7Eeug58S7XnJ1R0SReOakGiDmo2caiiDSE4b/YBD+PUH0b+ddBqJwTh34PN9w2fCI2yIFH8enRaa/30tKp6HSJUf1Kne9P5/L6++UOctQ5CgiTYbSn/AW1dD6vv0kMHWXoD/ikuSwrz+CEy4zQg4T7F66H3FfHEpFIs/yn+hHx0bZcD/eMapOg8BfdYcz/ap4PKFuRYkdiwvtJDC4dyHxRVPZQR7ZnZFfvYQfu0fFuQuLr8dHZ/wKhXa5E4NJtVBq8EfaE00dli61j6HIJkym5qCdvfKL69O6r7kg8MA8RgpR+Y/N6l91Tg0WFi4QAok5SgJqDwkZu1lu15umCQl/pIh9adIZJQ0o+utjCH1oGwJ37kbo5VZ6ECSaeJcAThBdT15fkXwj+kvJ0BQn/Y0Gw/DuJI10j5x9zfDxIFWNv1Qku9r5XvQRCDtRYnPhrGI52VTdO6OO6pko9GEUfWHSxCj9POSJnykHF0eCNZq2oAwfyrOgc7oNwVyVH9g9EZfRGHyGYLPb6ZdZh+ZMND3XgqsqHaAPkJapEllBmmVhUEi7PowMxQXzhtr7sZiEjon0euGvBeLCmbo3FJO6fW06sgmTJmrBkf4+cWQZoAbl8f7aitQClFrA3unaRtXLEA77pHDiRm5ebD1Vj/DRab/hexbCg68TQ9f/9eL491vQs64bUaoiKJKvmEB/C4kwA2+MXdiff2G5rIxwa7BY8LEKrt6knJNywRWlckDjAHTh9O889f1zuAN9B+h5Sje+nCYzBT1U/fOQlhyHwvVOssFXqF4kn2dCqC+A5r8dlE4TgCyy4buXXHcerLzU2gB0GYFeup0yw1VVLhRYOUvJjCB95DFBItPJUMrG2VHGuaT0I7hp+s+Ra5utosFRvyvpioORTjuJu+n8UlOm0Lu7LVKL4t4SbuhlYaPaZ/Qp15sVTf1NVLX0YH9fQkgw3JuWS5pNyqoY+AU9Q25i6d/lQ/N3WtC3iapN8d6fzKhrSvGdSD8fVdqUG8Oh4+nVWq+PWMz4YLlTi0kfmtBZq5z5uLBsajxeBa8suKFjI95oewNbOreK2dv6Z6Hgc3ivK38kMX6GDUKIa+E7NG0mlf4KK/y8BzmFC5PgPfjwdukxQTAEzSDYHVxtSsl4g3BJuQPz8q2i4UtlHP3ZnD2lO7tKf2mLZ31xdFjcmFn8E5TkfIo0AofYfiWVVOEh2hQIpZ3oq0xxjUUdCXV6Knr3Gm37GbnKPxnI02mWVUl9QUrcq7wAjxdp8DagKxjBYS+3wiikP3eF63d9EGn3RnHsl63oXNOJqNgGJRG/PCsz8rpaeK7GckuvrvqpYlLxxNNuiuIQaTIfqMjRlQT2UyHpmEgGVSFD2N/bjr4Qby8n/zEdwXZRpYxQHZcX/drXW4/tXTtFuvifCsdH1mb0xAUkPQMWPm93yLFG6n0q2O6ptKGrvQ977t8If8v4XxpCD9+N7lEa6CkuK8fL+3mId/JLHwp/JIZX2/yU6fRfPpXdVNZL+DDsl7DLsLykViDSh9dO/DcaPVukVwZkRh3eq+S1znmbqUx8oGYm3lM5VTQGv9n+BmpckzBVW4slE/x139y5mdIdwmvtXni4PSUD3rBFbC0zrymAn/zqBAlHDjtYlkz4sclkdcBeUAZHQSVs7iKY7S6YbQ6YLLJyFg0FxC8WCSMa9sPXehih/h4SZF5yC6FlWS5uvrZURMbLbXDVLpW0qaFkriidjOXFk0kY5yMYCWJj50YhKPinqpll9lLMLZyrvU2g3d+BPb176F1RvBRH6oBv7sX8yzEWYpmJ9odw/LOvIcZd+ROItM/RQGK1WrGhpQcWOg6fGNa1BdCmbfQl85T8K8WM/sGnt0mRJNnf8wo2tz8KHwmebFHxsHaTTVuNKGdUhVEC6zsLz0ehXWowjf2NJGhqxMLjjF5cqmM4GhJVB380QF/uIPZRoVD3mnyHEvY55+0A7v5zu2ZLhFHxpp5ppupcbvVsuMqnweIgjYvbOuLB9FcgB70bl25hZkcg2NuKby46iidn+el0cqOH5NZ2jtBOlMbBIFVxZekUXFkxE4Fov9gJQcYuz+aN45aULJEOxNudb5NwlTPv48nREs/mN9tDOKyGAEjntB+Qvr8eQc+v6zXbxCDLJ/ruxEx19w0t3bDRV3L4yJzS4A1je3cIsn1PFh0FFyblJjOo3q5eTaLA8XFT22+xs+tvZE9DIqIRw8KGq1ozcgvw5TlygzxGpkelTpIQBqydcEHbQZpMGG2BMDZ1y0XS/aQyObWtfxP3Jrl6fT9ufVouuyB9E3GmHs2kvRTOXknaSzkF4qoRn0BnqBKbKLk6tFitFpgKcxELUbWkhwq6du71yzbjQDGvqsd2E1ys1aTpptNiSSHhypXlj9QuwszcQlGNOtrfRDU3K2a4p8fbtHgrlmP+Y/G2LplU+sNHTjvxp6MBqCaa9NdM0HzTS4hNgOUhFFl85969iGHh8QaO4SLPq82x4poqJ0p47gLBBYdNMiPJrJRw0fKdzlcVNjbxy1pW9gm8t+brlIGnkC0FGcVJwbfLX9Gz8nzY27NXu7ZKjUS5MWGqKh3oPUCazDYEo2F0hyJxIeOLWJDoQFb3KrnudSlkEvEno67Hf3MqZ6Li3BvhKKxk6S8iMRW7gSI3Yja2k4MIrouF3fg/HWMFOcJusttkeCrlQktwcomXZ8VIwsqJrPxLRherDnaVYSP073dHtmJzd4vo3l9edi6WFZ8TFzK9wT4xHYFPEQqYkmXyYQvjxq5QXMgw+msOTBHgWJgYNDkRMATNEHBGPVl4zM2FZU76wnEVTGZQJT4kMlvJwsWu8ij/SXd5lPbK3Pm4vvZ+XFhxO9mSUc0M3AaQCf1HO02zBBa6zXBZTWJ065tt67GPBA5PluS2CG6v4ZHCrMHwpEGeMNgSaBFp5MbfNztJY+A4qRDxQlz6+aCKyzd68en/k0JGCRR534l7ZbiaVLzgEhTMIM1Kr62wSkA/E2kq5vwcxLhnUJykZWd+ZxxeEyj6TG52yYZ1E51vNgXVZQVyCIF2HWHWIZyVmzrKsMrr6WN7SOBqC5qL//SHPPf3yWoOh1Nhxe3QUUDmBq/wkeiMTIpV4FqWvBf6eIdvNd19GBDcNvN2+6lt3e8NRbGFvl5ddJSPPlFFYLt8GcrGJPwkvLsTL20ufbzhTrzT8QT29DwvvdPAhZ3LjYphMGblmrG8SOtlSoMQvByfuLqMk4/H/GFs0TQZxkvaDBdcXm6UqySKc/YEcNfvuE0mXeZLuFidbpQsukI07sYTowkbE2slhYlFwqLhCExd9J7ip/Mf/snzTMV59DKluIlG6Nl19pFvDBdc/Tp6onIJEPXk3TyoUGdXBKNmqI39ktHSJmChZsa/zrkAxXaqqtG/vT37SGDLpSkEKlmJ5GFtWxBHef/dQUhtqwns60bbVzdqtvGPodEMAo+zCAWTx4GcLPk2My4ut5N2Q4VFQwoSfd7jLMoFWRZm6cI2ZUr8zbUWY2XFrXj/lO/AaUkMplNwBhWzgzW7Hr22RgqMEDBKyKgfw/lb5XHO7KoQqjj39gbxWntiCQh/lISMtk+Vy5wQMlXtEXz1USlkGH2aZGjpYrHnoOQsTciwDztzAuLp0Z9JmZiFiKiTaO4i4fSL34h0FnA4cjth98UbyLnaJA3CQgc2JE7iKW2BlIeo3pl2kjSSG8/s/vPR3SKNDZ4GtAfbZMhEEO0oHTqCUSFkEldLj/6e+b2ZnYn8MxEwBM0g8ObtR/aPRuu+CYsK7FhV6kAel3AtsyoTZ2L5lZVIN/nTF3MZho9yvZuPTH8YV026i15qopcstVDqUX52yvSXl9lQR1UmrpUw3I7ADZccRKupxBHlmGgjLWZtWz/298suWQ7L1aUQCxkK79BWCWS4XN3xp64BVSnNW7snspstVF26mISMbuoHB+KLauk1cZe5vttcCBN1IXkQiPD004U19ZHWRe7HcwLCSwSPXzxhjEMOPt5RglVC3SXUW4ijrkW+B/o6cJCETKNXzoBXPlryBSwsOMkbOqWA1nkJ9B8BgS4Av7fggfRrHo9XDEEzBAf37tZMp55Sh1zjps7NI3A5YykBI3OVPqtJN+nPyHCJMGzjzFmTsxgfmfELLCi4FjZtcB0jMnZKbrbROfmWMGlFEWzo8uK1Ni+O+0Lwh6l6QTmD8zoLGC4gQujQvyB93g+QBvNiaz82UlWJxwqpVPB6xb4IVTzoHCdVM+yit0nyvtf7MfsoTxTV35XeLCmYuQxWF2+TqxaG1yVaG4QnlrjsS15EimeciwRzcE6wiprtPVSt4tndfT6qA8kBhF5QWkQYXfyE2mlCuYfonvhyDp1mJn3UBTQ0qzjQg97SdVgmhwPTj58j29VZ7L6hI4ROsZqfRF8zG/CBUCdqBPdo8ycmCKx/jf/Z21QgV9tj2J3Qzk8bk6fPwLkXX6bZRodyUoPLHGZ0B2NU7VCaCuetxFGfz1LyXNxXHXnNmxr3Yiwoug5H+9+mwq91IZM3x5hDPx6Z67BGRUM1lwS+TpCufTwgR/M29YdwLBDGEU8YDb4gGvrD2NcXxAHya+fZ0KIcaOmjKCJUD+FOuhwSLqwhWYTqItMzqymEf/3fDhlWuCSOCk67q2wq8rTlF6SLOMg/qQWPCqWJq7VcbeIE8HwoDiPuh1BHEQH96F7EDG+RCuDXtYdxsDggZpTHxOxG4UzCmQW2NPM2KGrvcodFa1RW0Q6BkyIpd1pJg6NnS+coDUXF3eiNYEtPcvc0h5MGCkdVPPFhyHC93j8eQrQreYb/eEZ+IsYxtZUF2PJvi3HXirFJ6o7Np7rBLaXAaLB2c1mFAwvzrRSChY0KxyYpCBh51DKt9pO+iRwp7Twz3Ir3T/kuPjj1AdS4alFgC6PAGobdFqGMrGKUiLMTUcBH3rxYVTcVzraACR5SaZScT5wphaJm5LJPgosLKoeQKePj5//cFT8n9agw23PEOBn2iVnpXbtdUogM+LKrRFI43oOpx4tYRx9dnDQgKpwRlwOxwlzR9Y2SPDrmat3b2jlafDsrfGwjO3mI9BJ0UJfjY3/EApMYvstLetCBg9I/LQghItWRsIdZwFBAbgcS1xAfEBkva4xvdg4yBoYCcjrjgieFUKMHoUNG1emUccvFk7H+i3WozTWjdlYOeFHN041so0lkrZMnQ+7RmJVnwyVlThIKPINbChzO3CKT0k8dJfpMz7BNhed/stDn2yvxnsnfwzmltyPPVkPuetLdW+IqLDi4SsTaioJ9E3Fo4UhwidTGw0nDWfsDmNqamO8k7yQ1DpAmM59O4XNMMOc6YeJuaBYWLqr+sbsQMPSLmxntYnYSzhSWe5esuQ6YbVaYSEhxF7boAid/8LgbOl+40fkhrf9fi0GiRcuHIGs5RIzui1dUVCHlXeqvr8x8TMRWYNEaazVpwf2E7MvJf6k9LARRHJ0xG7yvT4wtVvSMT0FjtuE3n5uP715Tqb1kYmYRvjQGqW0/0QKP2Pj/9FFkN+PScgdWFKnJlJwTZYZV2VzlzUSmlyh3/dZ36uzavMtI4Pw36go+SHaOm11ThZU+dgl363J3tdr+g//KDnYNCq62dY1oBZTJ8cbwjUfatNh04TXUVWy5RXBVqm1jyVWbtS3aldxOxEhLkQJGuAo/ARVm1l5MBbkw8+jfuABKA/tpPVOsLbTmhmSU/KPLqbTwfXC3fEg3CSy5W5uvoUIzyiyPypanZVwOrU/Wy21B0hI1i0Lz1x5hnFQ7E2n1oe/xQ5pt4jAGRXdwaivzsf6uRbh2RvKqdjAXYdECzXyaaTo0Nut+1ORYcWWFE1VObX2alEzOX1dpZ2Ehj/xPmhJIszyPwy0o/iiun/pHzMp/n3CT/uoMGU4i3bigcby82wL78o9H88SFHB1UZyuPQlEs263fUZPDy+tLW+KKBbOWayaGfPzJQwrMOVQdUt1eIhIK47CJahFrL9nAQkgt3L7H3R2f0MhyUTTRyGQRJvRTfUcJIbvQfOKehN48EHVPvL40w6E5LobHyxwPSEGXTiimVpXSVZ36/nJEM00sErliHHDLyhq88sXZ9MVNlywHZs8ZuCH+6WDja69optMPZ9hzS+y4tMxOmVgWbi6sUqRwTuQf52R5VAVZhpP+fFTFQx05ny8s+SSunPRT0nSuFCEHouKVvS7RiByIx9Uo9lHXUlfj/7xUAuPyx/D5p7rjIRg2J9Is7Ranm6o7RcIuEsU9S9zFFdG1YXDDqGivITP/nPQs8nPSFtbBkOFNaM7RJjZyOlScWpbr58ZfLuFk52onNwJzyOyQ4UpJ+DlFo06Cte3Jg/LivUoJpziZNJtIhx+e52SX+UQjXYk+/Zgt+O7H5+K7N1YjrYzRcMzLw92a+XTy0jN/1UxjhQmFdouYM1Xn5il88iGp/CiP+mIvbVIksasUTOqoXJlcWwWWln4OF1d9F5WuZZqrHhmSl1CwUaGLRuiLH7EimLrGgVaIOTRf45w9fti09ZT1qPQoiuZckCwwyEuUwV5d9zU3pIZZ8JAHPQdQdWpECEEG7M2TVWEe8yPgg0oSyThVsHPi2ozyVOjSK1B2GW6SyypkpeKFthCaM438TY2KyKTZWEqccK2qlJYJxpgLmtoiN165azFuWZQYUp6R3EIsk8vqnlbqd+6gD+wY9K2nYKfqw/wCG66ucogvphIZnA/lT/5TYkT+Tc3JCaEjz5AuRc6ZOK/y33Bp9f3Iscm9rKSvhMsoj40RbZx0aoC+/DxpUn6Y+Q/9uIRSqeD1cG9+QRbmgaJGlyLSXqy8yHf8685xsDvdA7fTdHkAXwDo4a1J2I8881zJgmlYcPqAZ6e0i8sonUnExtHTJUVVihz4Xk2pywDGSXVP2PNJ85qUaxVJ9UVieOpYEK1iIa/Byfaeim+fL4dxTzDGVNCsXlqJV746F4sGU2OSKMDshao14PTh93px9PD4aYATS4dWOHB+qQM53ItC/2RWl4KH4ayYECOJjKnCKdgkQ8lfgWMarpr0I1w9+SGqsaSs7EeCxGUOw6p1jbNG4CHtJqDG8hNcSGc0hVDWreZtq2tJm7oWwz1NPBI4CRYomuCJRaKIeQLakp50Zp5T9BqNlBgV/DBJkyAVVL4Cj5NhROxkFu3Y5OEgIWPTGoATz04dJck2cZpgZp5NVB8bPRE8dTyIXrpmNkJEVaWUNpUJE2l01qqBU03GO2MjaLiq9NHZeOimyYNWldJRUOlCOgV/tHnmsd9rpvEBZ95yhwVXUXVqsovX4hOu2j9pToZzcMJPHhO5mouecmWc1lK8r/Z/cdXkX8Jtk6v+M1xmeP4SF0Yxipb+84RDb0Q2oDIfe0EuzqViT72WwlE8mf6SL0eq92a7cGNHzYMKmMmRIviGA8XFUxesJFB82iTPCF+boheKmCY8XXRfqpeJfOMCIJ4OgnvfEjYJhy2jNJY6rHj+RAivdYWhBv0m4kjA4dOhyb44A4QUWfNvmq5ZJg6nXdDUFuXguTvPwi1n52suWRL1ouHZbbjqEQ82aU6nk+efXKOZRouBmTFbzil24rrqHMrk+kyZqFYNjJld2CclE2vEtSLyzrEW44qan+Ciqu+iyDFbuPNpXBjdVh4UqK5BYkoUihjOPqgaWyXq+tJXYrLaYcvR8oAoiFS4VaFiuwrIkLspZ4TtMgqOj6LfmdsJqvGJS5hY3qhE0Y+rS6ytJaVbWTR4cqVwT4GDlTts+OPRINp10wpSSYpbI+USA0mJzrmwJIuTxhenVdCsXlCO5746H8vKh1n96WrCw/+1C0teDmGs1n5vPHgQrceaNdtocHI5hzs5VpU6sbzYjjwrdz5zjByn0lP4r8yx+r/sKwWLPMoz1FlSz+GCXuKchUuq/wurqu5LNBqTkMmxRsQSmC4WFFR6b1wvd9hk5BVkfIyyMznlvJ0rx802/kO/1C+/EDz04/VmeGmIk4Gjp3+bKuReSNxhH6/x8ZEvI7Qa+Sz0cLWKCZOQ4cGLasyQHtaBNugGyChNhJUjvVYy8Mz0bgrZNqVZNMxUPTPnn4R2NwacJkFjxr2rZ+KhT9aifDhXZC3mjZ246Vst+PIYzyHjF/5/jz+m2cYvNS45UXMuZUbOwioTJ4SJyrfyrz6EEklsYlfpJ92Vucw5TzQas4ZT675cO4fCsBygd3vhTh7an4r+iowJtjz6KpN0jPE0gVL6Fech6rRT1UGFoliE4KG4tcWqTgaxDg1FdyRXalssNERC6SDlhrprNsmjgpeRiFB4P6lCNhE4cScKdsnRT7zUhKacgkBxJ0d50ljLxmaox0jh53OKH0EKeS4897m5w9di+lvwzM+b8Mljmn0c4MzJwbojJ8TGchOBCGXwXT0hHOwPi5csi4cUGurF6zUadlF2JXQS2UP6J2cWE7yhVhztfwPbOn6Hwo4YHv1hc0qYBPprVZ33QZgK3BAD73TwIlbo9iQKpsUil+08SWJeP+WpIK68/HX0OXiTNqtsD2GBQxfjlHFVMHG/CUKakOFxNYkFzAfCsqWH46XYTiXyySfT+eMd8L4yMbbDZUZVo7liXjn2fG3BMIVMBD1b9+C2e8eXkGG496nhwH7NNhgDM+tYYCHtYFGhHReXOVHp4HfAxUkWeCZZqMjikT7lykeex/A5bMu1laOu8Hp8YNofcNHs78HvIK3Emiw8EmfJ2M1WEtQ8MI+XbtC+/AqeSoDcxNdaWxnipDFFYui1BkjIJK4nhsmwkCEnXgkw3d2HSCXhhbz4JhxagzGTuKcErIzZhkhvuvPipFxeJIkYmCpKb+XE6nkaJUFDVaXrp+I3nx5mVam/Dese2Ybpf/BgDWeCcci3//UOzTQYg2anLEiXtUYOz506r9SO80vscIph+FK8MAlho5CCh93kP+Uqfxwu9e44vNXsgLNgJv706zfw+1+/hoOXXgtvWZUWgtFfgf6xgAmGpbBJweSw0h8tPM/iPgXwDghBbuil63J3vLgf7eb4IKtETOIOuTfNz3Uf0mg4G9ukZBJ+MrQ0S5Erj4l4JDrZJEixJiOjiZPaA6XHpC12P1EYFUFz89XTcfv5Zch+k5Ioenbvw5e/fQTX7x6nEkZjy/o34OmV67uMHqORiXh9FAveW+XEBaXJb4avxgWAf7LQSBOjhI40J9wZ6S79pK+0xyxWvHnr17Hmx09i3Vd+hKYVFwl3dS5rNDweRpzp8cmFqRit5JvUHAcWNvE2m5EjdrOIRvF2XodoBOb2FiEPVO6nSyQaeOWRV9VjgcTOJnNUbDAn08L+/FQSZtUew/dvM0fimgjDNbNMaL3ocQZ0ZQ9CzJ+5CjceYX36lC98tT1mxRfOKRywmXtaol3Y9Nu9WP28H69MhGfHX0S/H+df/h7NYeLB86dmuq105J0OeJVbVXDkX3mUmo1Cb2YbFyu9r4LDSYEkz++unIzD516Jvdd8DL2k4RR2NCEPTrhKJ1NgOo+D8qA2n19OpiQNJ+bVFnQib1OuU4Y7GXg+gC+EB+cdxlF3QA4wpP9KICTmNBF04PlOLIz4+tydxKtMWFOlgh4teeoZqcWyMiGuS0FZY2Hhop0uUH5JpHHzbWhFsF72oE0EOPnaEz6VuPDcNxZgWTbVyIBXLH42kABaGny84OJA+vzYfjwE/zEP7jh8+jWgnFw3nt9zCO78As1l4hKir309r6LXH6Fqgv5ZSoEhxYXKIjK3S1cmYZfh9TaG/ybOVWcVtR5H3bEGnPfWBtjUHKY4ZOaGGdYSeE0Z3sHgJImxAOvz4dMr38aOQp9sc9Hggs2rAfJODbzSnkcsqq4r/BTAzb1JQtipp6FPr0K7V5Ie3aQNqWqZgq8zWFUoFS22jHT+ZCe8L4+zRsxBGBWNhhcLqJtciuUVWeg0Vhus9nQ/FwrL8lCS7jepCPPmlGLRZC8Orfdj9Fb1TU8oFBTCZsl5F2guExduMOYRxrPyrGIZUW9YbuYiy4T+r0L6cSHQuyu3dP6qwEh7DP7cPDSTprNxyTK8vmwlSvq6YQsE4aTnKmBBQ4HFdINT0LWNXqqaUSLuX3AQ/aRtx9ESyaOcQzEL/GG+qJZq8mNTroWehuYkXdTdSNsAyDFIgkwIGn2AtIGHj6pe9fzvAUR7kpfTGM9wqhNP7lSyqBodH6/RLKNFK565pwGf1C97chp57fBx5BdNrB0DB5JaIiD2nTrqC2vrAsvsMTCUyjoJvYdJDifPlahwCaQvuYuTYqg93oTZe/ZiUf1uWMJUwHlpiFOg0UQ7erEvtwefWPUOvKRtxLUL+vG1ubVIrBssUkTpoQA8gyzXEqaCLVOpdJmBcETJ7n1hG+QWyJnhmhjX4EZC1BvGsY+9rNkmBqOk0RBtMdxwWRlK9DnrlJMLh7cFDx0Z4q2OEuFIBOddeoVmm6gMfEFVLgtmk4bDT5X3HVJPN1mYJM7TmxJm/TuRQkaaJAnRxA2x8syevAIcmjYDb55zLpqrqqggWlDh6SbPRKzDhRtqzd4gdhf04tnKTjG/ScSmRckH4SIN4sANw7x4uxIyDLunwveQkBVaCDolSNpRugq9iE4FSxOhaATP4l7DJ7zof3ZirUvDd5V4mqcUMx76/NlYPW2EYjtb6vdgyS88aNCspxOLxYJXDhw9A7SawYjhkCeM7T1y0N9A7UVXegi91iJ9VNhENpNuyp4wq/DqGnx0BkNwhgO4fNMbKO/pQp4veZuVoYj5A4AngP+avRuP1vLwci118mJJcO+1lapKPOcp2U+f3gQqjan0ha3xtW4G01zS+akrsVDK1KZz4q6NCO0Z7Z7PU8voaTT0uHpy7bipbpQHFhVFkPtyL54b+L5HHf5avvHS81j96VvpQ5QuV4gsI43jgpGkx4QiuwVz8m0ocZhxwh+lQpT8sGWMvI2dEjJSlCizEj7sqtwU/OVXrowKp4RNmKpPAZsde6bOwubZC9BQWS22MMkhgWPPZo0gX5BVT9y9dB98rH9Q0uOKCl1MaRm8xEuuLSLnOyWSk4R01numBpT2AM9k18x6YZGaRwbzGxC1gnemeHiv6KmbSIyioAEaT/hR2tONQ3s7cKjDR1+WfnS09SNiN8MaCYnVGq0nPVnOBrScwG9OaPbTTEdrK5aefwFqanmSYCqZcstYcXLp4W7xOqpSTcmxoisUE2uIs6BgOOZkMZK4VqpdK9viLx+T7dJFxcXozb05eaifVIvNcxahsaIKHlcuJre16OJIIMa39PqF1vCb2mPwsfZAgViWUO1GwIIlh1QLm26zOz3y2ipmPqambSC8tnImWItJ1VRYyKixOINCQU786wZEOxJ7nE8U5JMbB9S6LFgmVgIwY/ZMF6ZwZ4PDgbpaO4RzoRu1BbLHwOHK4WBxApt2ovpPY9QiTFTUTMKzO/bDfBKLMk1EuHDs7gvjmC9C1QXORqoQ6is/CVT5YrdEWUsudUr7UVlThk1oRZLkczhcYb8HsxsO4uyDe+H2eil70Bm8FW5nH7wRP1ZevQURLtAUWpxNBhcJl4HjY+R1RwpP1uTFwPQxDFYNGg6+dcfR8YMdmm1icXJPdRxwRZEFBdEYNvVEx6SdRnHdRz6G//yfX2m2MwXOGtmUkBiOU5XqSH+YjrK5NVVg8FGKDYnyUz7KX11NuiRfW/on4pOoWKU7V6tIRcDZ9bswveEIpu2rx+M1DfiPBSljTii428y9Sio+FcNwSaSD4cmXPlKhuGFX7bqQykgET/hoP1ruXM9955rLxGJkz3a8Ybbg3qV2rNvkwwua01jw48eewIVXXaPZRgK/iuHkwOGGH338pEUcJQ1nd6/sHk8IBybZxkgxIUVTIjsqoSRDJmyJMxMxSRMfZSzSJs+irEHp8Xdtw8bwmzjU9ypVXXgdmpiYk+TUVtqTyDiGg7qeOpdX3usOZzUePolUwZPUSEx+gXc60PbtrRNWyDDDf7rjjFvOr8bd11ahwBrA9t/txCVjtTIWUVhSiic3vYPC4lLNZSxQGX+siaGTCsa+vghO+GWPlUKmUKVRFdWEnW3SNUFCiAw8T7mrcxJhmERMkWiIymo/dnU9jXb/RvjDx8lPX3j1aVCwm7xSsvtAfBFtpncahj47DaQhdj60B97Xj4/g5PHFiO5/PLB6QRnuunEyavN0L7brCO75Vhse1KxjwfmXX4kH1zyt2QyYIFUjeDzOrp4wesIR8GA4VXj1wiNZUEh/iTInjuqshBhJoI9Pmvg6+r/ybPbb3/ssOn27cNT7Jtn01xmMgWEipIL08hqhp4BobxCel5rR+/sDE653KRPZPNVxxaLqfDz08emoK01e80QSRcPftmLJ2rFVMf/lW9/FzZ/PZjmJdxeiZ8VkEotxnfBH0Ks1IEtxILMhmxi2KVflJkloLkxCKDGJs+V5+hiUG5NwT7iRMPTXo82/E3u7eSF6G6IxOcSf40lcU52bgG+DRwMrBobIAhIovs1t6H+hGf4tbSOIYHwzomcyFvCi5g98pBarpg2x2pqvGQ9+4xjuGePq7INrnprQM7xPB53BCFpI4HD1ikmIgoQmonflv3oRkvBT4ZQ7I30Srgk7kwgp7Soe6U9/YxG0+vbicO9T6A01Uy3muDhDhpawmcfMDDVbezDUXlKVXdOx+R9+prmeeaQ+u/GHw4aHPjoNq+cUJHVpZyaK1he3Ye7f9Q19Y8NfNr6DaXVzNNtwkVn/3QAX7p5gDPs9YRI8YTGqNlkgqCyaXtDoSQgQ6ZsQHvJp6rWnBMpHnSuvIf9Ke3+oHR2B3Tjh3YKm/tcQIuHijXAYGU6hxsRkPTZG49zST+HFj/wbuo+OZd/p6JHuqY8PuCfpfZPwmZXlcAx3eEqgBY/e14Q7xm5oTZwX9zWgtEJtY5rIuqPDaMc/+vA6x36qRmzrDpImQdUJnv+joRciKtsq8aAXKsolNXtLFxmGScQnfeS5bFN/lX8yUdJ2AlEv2nz7sLv7WdJ2utAdPKr5JshW2LgsBbhpxs/x1F2fxzt//V/N9cwi+U2MExI9SSMfAMeD+Fb+yTemY2uYwtJSPP32LuQVFGouBpmRBT5xhGjLOUY/Xi8nkVFTRYUMP1DIyJAJN0aaZQhllseEYFHxM/pQ0pS4FudPaQpFfWjx7iLheBwHe9eR9tMAs8lCglMuVRo/M0X4VLrm4uKqLyDHWojtT/0RT/7b5zSfMwt1/+OCtD1JIyXagRfuP4SbWjX7GDJp2nSsefNtOHlE86ggM//4YTTSE0N7ICoGBh7wcOFNFHomIQgkervM4OkEhTwy+nMlqeGkTSHtkoSZQ0gTCxgzrPCFO9Dk3UZaWg/C0QC5B2Ex21HqmIFix1Tk2crFWRzHwVefx+8//2Fx/pmGevJjyuA9SSdB/R5c/wsP1mnWsWR63Rw8tm4j7I7sV1J+t0Ifffrqa5Y0cPWKs+2u3hBa/bH49AcmIRYGZmwlWJRQ0KPc9eckwieHZfRX0Psrd3UNKUJUXAz/ZV/+JZYYY/e3H/8NnvnGFzT7mcXI6yanAO5JevLzc/HKF2efeiHD1E3G3TM08xhzqH4vbrnmcgQDPCFOZjmD9AzVrMGrAlpMZiwqcIjN8q6rcmJBgR0VDosozrKYcxGW/xSq0Cf+KhMfZTgZXp6nXBPnyXPUUYaUqBB8ljqX0YdRZvljIcOoM3lD1sPCfCbC96qeyelj2D1JGeCdLNcfxsO9Zbj36nLNMYWGetz03z1jOjVBz8x58/G/a9+aMJvQTSxivIoCeunP4f4Imv1yGoQUHvqiz6RmexUmcVQCRp6hzmNUODYpwSIFj7RJ9H6JeBPxKXcplkz4n+vPQ+v+070w7ekhcfenkSsursVj12QQDFnB27Psx31/6MXDYvVyG568azFWFQnPFHxjPjUhlUlTp4upClbbeBc2qoBMNGS6uYrF2s9eqmK1BaPoCPCKOan3pOzJ7kpwSJLd2S6FA+dE/lbK89MJGXWGukZC8CRiZVvjpvX49afeKx3OQMak6vTC2hZs6tMsI4KS3eXThAwTwv0vtWjmVFxYdG0Zbtds44GjRw7h+mWLEI2O/VifwVFF4VQhC9joI9PNQobhRbtWlTrw/hoXzitxYG6eFXbKQkpoJBd7SUJk6N31Ifk87ndim4xHihA2y3Aqfhk+IWQScUtCfj/+fOcnNduZyRi10QRw398zCYYMhJN3NCw4pxIP6DYxXLfhGF5oyTAcuGgKbrl4jG41A0ePHMZVC2YiEs5ilbgzhuQCdrrhq1c45WqB11S5xO/KCgdqXGbk2xICIRkpOKTQkHFIGwsM5Z4wMdKFf9Jdmhg+Rx1liFAggCf+5R/Q19EmfM5Uxqz0DSoY9PA2ub/bgkv+bRfW8ZKvCkclPnidC7WaFYjgK083pd8Him6z9tJK3Du+ZA1ajx3DpXWT0Xgwm/28DU41DrNJrBq4otiBy8qduL7GifNJ85mfb0Gh2HJWCQh5VKJGubJZogSI9Ev4qxBKBCWbOo7sxy8+dAn2vfKs5nbmwgNWRm0pz8GJYVNHBJ9amnlHy8DOPVj9k1Z8tyWGE1QbXt8DfOqs/Hh4a5UF07d3YY22o2pPhw9TppZgUUmaGG35mGo5gQcPJF71eCDg8+HxR36BvOJiLFyylFwSmdTgdCMFT4nDgmm5VrFs6YxcXiuZ+4hA1S0zAhFeWEJqJKyt6IUKkypiJGyWdv7bfawJL/7gP/D01/8Z/e3jYKDXaWAMBc0QgoGwFkQQfrMXz2m1i54T/Vg0uxJ1hdpLNOVgRlkv1m8JolE4xPDc0SA+vbIYufr3rJFbbULN+kR844VoNIqC5ZejaO7ZqCQ1PjXzGowNZpMJVtJ68kj4THJZMZWED29DU5tjpeqWBeUOMwkdKXIcvJc4fcNkp7V8gxGq7kepahzyeeEhgfL2H3+Fv37tH7H2J9/C8V3bEEvaGfTMhp/H2H7iy4uw586ZKM9QrUmdSlBbV471t9YiMezNg02/2IOr6jUrcfeH5uJLy9LN8o6i57WdmP50+grWWHLzz/+ChRdcjGrKzAvybWKousF4hovNwHfEPV08fjAaieAqqhb39nS/qwRKJsa+1aK1C4/vzDz70bG0Ct/R9YQ31Lfj8Xq9oHBj2aX5WKbZmPuebkZD6rvtasaa/96KS8ahkGECnh4EKOOGKJNu7w2JJRQMhmIsv5HpPwTc08WTgP/tEx9GT1enIWQ0xkXz6D1PNg0UDApzCa54vxurNCtrJXf8tQmtHJ4H7G3Ygy8/0otN0lPi68XD3KDDqMbkbx3DbXSR8ToJv+1QvfgahiJR8ITlI94I9nlCKXsojWXBypbTmcbxqfX99ic/wtpnn9FsBsyYttHECQZgdbtxyRSxscpASlyY0dCORzs0e7+ffv3YTQLqpi1BbE3z8d9U78WM/hbc9fsOrTF5fBONhLH4ho8hFokhxyblP49y5YmERbwPlqhKDVawuICPh4I3Pgv/6WL/rp340s0f0mwGCs4V4+Mzac7BK9+Yj0W6sTFJjLOpBKcauysHX9l4VOwNVe00w2ZJLrCFJHwmuyywZdjCw2Ds4cbfD16wDIf27tFcDBTjouokoGrQt14epKuvdjLuWqSZz0CCPi/2vfQ3kvoxtPlJRdPEvxIr3aTe7OgNwcPbQxqMO3iNmX/55EcMIZOB8aPRCBx47p5FWJanWVMZ4S4Hq8pdWL00D8srtRnifX5sr/dgzb4AXhhHbcNlM+fg//1lPUyktRSaIyhwDZwLxS/MSf7c1epK0XrObFQ2VVl2PN17DN/84j9izSO/1OwGqYwzQUNCYcVkPLlaLX2ZyvB2ORh6Ia0IAseO4eknWvGtcdJQ/N5//z6W3fQZejExVDjMcOhWGdQXMT5WURWrzG4RYz3OfMabcEnwk//8dzx8/3c128SFs9poKczjozFYR2NzP5YsqsAMd7pMRV/6yTG4X+3DK4OKRzPuXT0D915ThcJBFxw2w5pXgHnLK/GpeWEU1Hvxyhjvn37wjZew6NoPw1FQCG8kilxKfqY9vT3hGE4EorDRo8rRCaQzk/EiZPQCL4aHvnMffv7db2v2icn1ZxXh0tkFWFCVCzeVl75ABH4eZ3EK4Sd2amM8BQwclKcR7UX9U0fw5fUBrMskec02/Oazdbh2xgiWzYx2YdNvDuGq3WPbDlIydSZu/dNa2HNzxZegwm6C3ZZJK5OwPK1yWlBMGo7B6eFn3/kmfvbt/9RsEwvuVLhqfiE+f2EFJhU5UJEnmxUC9PF6YlsHfrL2OA62B4ZchCxbxp1GwwyYmsDjZd6sx9d/0YI7DkfQmOnm81x47p/n45LJI1wu0+RCzVmFuKGvAw83j5389XV34vjubVh4zYcQM5nQTy/fGovCbqHXleHDzgs8ddNXqC8UFSqw03Kmazhjy/13fxm/+sHErC7xSImltW589coaLJuahzz6QPF0CzXlYm6li7SbHGw76kW759TM1xmXGo1ATE2YBsfeA7j/sV48OMTWKbWVBfjL52ailusaJ0u0hzSbA2Ou2cy5/Dqs/v4jpKRZxEbwuSR3S53WrF5arsWEGspAbm1MztjBKc0gHScoX/2Hm/HcE49rtokFv4mLZuXjgQ9ORU2hfdCpLq/t78XqX9YjotvyZqSMX0FDrHIB67LYm2nRjDL88bNTM86XGhGBFqz5ThNuO6kFuk6eSWevwMd+9jgc7jx6WfTFMUVRk2PL6sVxGF7gaWquDS468hfLYKTIp/3JKy/GOxvfEuaJSJnbKoTMe+alXY4yiW5vGJ/+3UG8dqBXcxk541rQZENtbRle+fxUFIzGh7vlAO64vwuPataxwunOx61r1qJ48nSyxWCmX6nVBBe3x6QIj0wvlOvIvPRBLp2nVp4zyA4eI8Pzlm5atRwtzQM3iptI3HBWMb5/Yy0Kc9KvmJBK/Qkfzvv+zpMWEmOtV58kNjxw05ThCZmoB61bD2HNk4ewqaGH7Jp7Oion4/YVY/+I/J5e/OSqJWjcIr+kUXptJ6jqfKw/iKiutW6wrwbP0jjQH8Y7vMF+gHdanNDflzSMzv3wcqt/++PvccWcqRNeyBTlWHDdoqKshQxTlmfD/OqT349sXDYGZ8uqCyfjK2cPsem/nv5jWHP/IVy1yYdnmnx4dGMH/vh2L1YuKkGFM91X3oqSUj+OvenDeFjbfNtfHkWwvw81i86BxeFA1GRGXyhGdegwVZGoYpVBU0l15X2QeA5VkIQNKTji3LHi1ClXp/4e2lqO4bPXXYU//vIhsezDRGd6iRN3Xl6NXAcX++ywW0wIhKN4uf7kqk8TWKMx4zOLhrGTQusR3PftZtymXw6UaOjy4JIH9qE+U1tQeQlWT9LM44D1v/kpvnNuLY6sf5WKFg/rI8ERMeOoLwpPKEJf4OQvOxe/dN96dusIRlHvCWNfH2k5PO1hDDg13aenJBIdMfztT38gLWYadm/borlNbPhbMqfShXKtGztbLHTi1BIH8p3ZC6d0TGBBk8P7w2VBFIHd+3Db/W34QabpBn0efPlvmRZLL8Cis0Zhc7uT5NHP3oif3Xg+2g7xesMsTkwkOGJoouqUh6d9a2UvmyLojcTQTILmnZ4g9vPSFCSs9FWy8c+p0mZi2Pz6q2KHirs/+2nN7cyAX+cHFhcPuweJ26cWUtXpZPPDxBU0RTYUDpn6CFrf2ImrHunFmiF6qtdt6MD2DIKoYLJ+EfTxAS+odGLfLvzP+8/Frz95DXpIzReYrWgngdPgCaI3GMlKY1BBeCwOV6t44a3tPSG0kPDxs2NW4mosOHXpam48gtuuvxqfufZKHNmvW67xDCHfZcFxeq+soQwHro4HKQ9ML82whEuWTFxBk2sdOHI4iSh63tiFq54MZNm+4kdjJqWm2IFrNeN4gwVOw+Y38KPL5uGXH7kCR9/ZLCtUZgs6Q1Q1JA2nPRAWi2npSZfd9G4sl4+ToNlN1aqdJHRaAxH4ImM7rmggJ6PJxMRWN/U7t+PTV1+K686ehw1rX9H8zjx6fRFcu3DoLu1UWKPhubtd3pMbuDdxBc1R3+CLWQWO41ESMqkTJb90zWS8krYnKYru8bnKZ9Y0b9+Mhz96OR68djl2//1JIXBMJgv6wyY0eklD8YXhI6HDak46XSDVTdlJQaLHHcGevjB201exkTId91pxJpx4xODp7caLf/0LVlQV4EMXLMPW9W+cEY29lfk28Utdy4jhwXk7j3k1W/awRtNJ7/tkRDozcQUNAjiR0rCbBBWsJEFEX/jvfnwu7r64EotunIknB9SFHKit0Iyp0Jd8jOdaDov2w/vx+Jc+hR9eOh9v/fZ/qGjxtiBm+Ekh4W7xJm8E7f6gaItRZJuR/HROezCKXSRweH2c3b1B9ITo+Ygq1liR3bW3rH8d//LJj+KSGZPF2jHh0KkZXj/WFFK16LPnV+C7N9Tif/9hFm45rxwlPIxcx9HuIM6fnmn9lcxwm06bJyyqXSfDBO7ejmJGVRFW1mRoqDX349DaPryg5cGbr5yGu1YWSovJidqFFtRs7sVzQenE7TnNDb1C8tcWUX1UX/IOHMNN20/uQY8Fgf4+MRt84+8fgre7E1OXrSJ5y1uEAKGYSXSNd1NhM1Fm4r2KeN+iwVCPRB05njA93y4SNDw2Z1d3GDvf2Yo3Hn8UZZWVKCgqFpqCaYh4T56BYjIcDqKt5Theeeav+MG/fxXfuvOf8edHfolD+/ZMgK2IhwePc/nm+ybjnFo3KvLtWDnNDbfDgpf2aetmE9xztHhSLiYXDW8eINeWH3mzDVub+gdUv4cDv6Gx/BSdHDPKcexzaWZ5C6LoWbsd0/+mBIQZD9w6DzfX6dYK9bXg0e814Y7UaQb0ku4+vww3X1CN8jwTGp7eiiWvjbf2ieFjdTgxbcWFuOJf7kXZjDnCTb58udOiiapCvKiWzRRDnsNGT4yrXuSeOtiFTmItic8NhqPoJcXAR4/n+J7t+PnqC2UYIsctxzgtXrESV7z/RpRWVmHm3PmonDSJ4uR9kDj+gUJiuIRCIfR1d6HhwH5sfesNbFj7MrZtWI+AfyLpoSPnA2cX4wcfmCqEi57Jd71Nir3Mt1ybav2ufq+Q7GjqCuAzjx7E5kZtl8YRwm954goaKgq/+cezcW1tpi+mD/VP7MFN6yOyrcbswJP/ugirSoWnpP0I7vleGx7MIEdW1TpQ1xTAwxNfzsRhDSO/oloshn7BrXfCarcLsaEygyz60maKRkV4K5tJCLFw4LE6YRIUoq2HBQWdtOeFp/H4Fz8hzhwKvl5JWbloyK6omYSzlq9AWVU1zFS9LSopRc3UqSgsLoGvvx/9Hg+CAb9ouDVbLPD7fDjWcAhNhw+j8dBB0kKPoO34cRIqWUyKO0O5bHYBfrhaTpJUsIC4889HSKuRA+1mlDnx05um4ZwpwxjgSjz5Tge+8PgR9AVOrgBMcEFDTCrBoX+aPsg0hCgCLa1o6KS6bG05ytPM7g7U78Enf+E5Yxc+H4qiydMwZelKXHrHv8NisSKnmCQx5Qw5IDCRPdiuF0VcLWrYtA4v//g+HH0nacMbg9PM7z41E5eTwLHrFkBb+f0dqD8htboClwUH/2OJ0FCzpdcfFkLmqe1dJy0kJr6gIW5+z3Q8cHmJZhsJ3BW+E5ek6aVKx6I8B25e5MaiOicKNDd/lwfb93rxzOHQuFqHeCRwFWv6eZegtHYGcssqUDJ1FvIrqxHs98DT1oIT9bvQ+PZbYs2coPfkVGqDU8O8Khc+dW4Z/uG8Cu0zAHxhzWH8bkO7MF+zoBDfv3Fq1iODuRH40U1tuPuvTfBp1a+T4YwQNKL95dNzcfO8k5n8RdWsNbuxckPmh7qoOh8PfXw66koHe1lyHeIXnmrDPQe1KpuBwWmAF61q+c45olBz29ltfziEp3Z0iekHPJny4Y/NzEqj4arxK/W9+Kc/HcaJvlPTCZKxwjGxiOKOR/bg4e0ezT4SXKi7cToey7Au+u3vmYrnvjh7CCHDWOConoxrP7cEW+6qxkPVmrOBwSjDs7Of2yXHfLBGwuNfGB5Xw9UqfTV4MDq8ITyyvvWUCRnmDBE0TBRf/t0efPmJZvSMSNPzoXVtE76VZnTwFSsm4+7Ly4YYiZyGohqsvmM+tlztwBm8JZXBOKHXHyFhYxUN9ic8ofgAvTK3DRfPKhhy4TPWZPad8FEZasTL9Ymu8VPBGSRoJA+vP4bp92zBD55tQmtPlj0RUQ+2P7YHVz07cLoCL6z10I2VwxcyCnMOai9dgOc+nY/VZ9zTNhhPkJzA4XY/VZtieGjdCXiD8ovLA/WKUgbwpWMvCZmvPdUoqlu8SPmp5Axpoxma22+sw70rVdOtDl8bXvjNEdx0ULPrGWqb3mHybu/dMhhdeKuUX318JmoK7Hjfz/aioz+MHLsZP/nQVLx/UXHGMUv9gQjW7u/F/6xrwdsN/WIS5anmXfGNZa3kzhVphExPMx7+YQYhww3Mt0w/ZUKGcdTNxkPXO8bdTHCDMwPRtU0y4s/bOuKTIC+YmYcLZuQLcyaeIQ3m359uxPpDnrRCprrAhkvq8jGp0D7ivd/fBYIm/XKfgaOHcN/3juHLGeZL3X7NzORRxEMR9WHoMU1mFKysxQPjaCEtgzMHN2kvvMvO33d3i2rUjFIHvnRpFUrctrTazIYjfbj10YP4ypMNaOiMz8WJw9uu3H9jLdbcOhvfu6EWL39hHr76nhrMKhv+khETeinPrDDbcNP55ajNUQ86ip7te/GlX/bg4Qxz6kS7zOpKpF3dMxWuev16Lz74xxO458VjeG5rN2ZMdaM2P0PvFM+zqurH1o0BHNKcDAxOBRfMyMP+Nj/ePNQnVsT70mXVuHp+UVIjMDcUN3eHqKrUg5+/3orn9/bAl7IrpcNqwvsWFguhckldAaqoKsaNzDl2C2aSkOGlPV8/OLztQc58QROL4LHtfbhheRlKbD60vrwXq//sG2RLXRt+c/sc1GU1JKcH6x46iNWHYmSSnPCG8NiGNnSEbLiwLhdpm+AKqfp0qB2PDjb73MBgGPBcJiv9eedoP0JU/fnQklJ8YkUZ8pwyB4YiUdFmU3/ChwfWHsd9zzXjUHsg7UTJa0g4feOayWKypn6kMcPChuNZf7gP/VpjczawqMtY5M4kauuK8EBeL+54e/BBdLVnV2PLR2s022AMPZo4YwM0Edi0E9V/evfOzzEAriiyxEeWc4nf1BM9qQGeTpsJk+kj9tkLyvEx+rCykOgiocBLRDR2+vH4lg48s7NbCz0QVnzOnpSL+z9Qi4XVuRkH922kKtfHHtmPTm/2s+DfNYImWx64dSlursui6ergPtz0s97Be5C41+re+ViUrm+8/RC+/J0OPKxZDc58VtW6ceel5Vg0oxAFaXciIA3B14NNfzqEq3YObzAYF2Ruk/ng0lKxd1O3j7UOD5o6A9jU4ME7zUMvevXhJSX4+jWTxFITg7HxiAcf+VU9XSN7QfMuaAweDi7MrsnikfDyEr8fQsgwUS+2N2TIMKU5GQbxmfHQR6vxUK3Z6J06Q7h5URm23LMET/7jXKyaV5JByDCU9xwhNBwcnpBhWFvgTfmf392ND/2yXmgcP3zpGH75ZuugQoa7v6+cW4j/ev8UfOHSqiHnQvGIY25E9oeHl0ZD0CRBqmyuZsxEtAfrHh64hk2mlSrq24bXaFZbV4rrzq7B6n88G+vvrDSmMExgaivzsf6uJXjg41NRm5dJuKSwuw3fOokadWNXAK19sgeJRwoXOC2iCsSr8HEjL3dVz6lwip0NvnxFNX764Wm4+6oa3HpBBeoqXBnH2igOtfvxp7c74E9pQB4Ko+qUhBvrvzcXdZotHYGtO7HyD76kujRPUfjNNRa8lmbg36rafNx5fh6m1BSisthJL1tJJNKK/pUElmaTWPDYnYtxRaVeakURONqExx9vxR3aRgcG459bLp6M/7y6Eo5hfcoD2P677bjkJHYrnF/lwj9eVClmXM8sdYpeqCnFDrT0BsWaNLzUBw/sm01CxU9hhrOZHDcA3/u3o9hIVbHhYgiaJBx48muLsCp9+62gfs0mrNygWYjkvb+5V2s/PpxmKkMcesmrSxxYVRXFmrcDWKc5M7WLqrH+4zUZpjtE0FPfgEfXdOAeo7dqXMMTcEc0N66vAffd24ofaNaRwAWaBcl50/NwcV0Bzp+RhxkkcHjHSV64bHB9JT1tnhB2HfPh52+04KW9vUlrTWfLmd+9PSwiWDm7CotKMr8Oz+EWPHREPWgz7l09C8vL1FfBhtxpFfjIvABi23xYn66tLBLD7r4wnjseQaPmJLHgoU/MRl3GqpsZzpIiLF9uQs0bfXjuzFr29oyBtdsfXFuRhZCJINDvRyQUol8YVrsNrW8cws0HTv67z6N7ub3m1f09YivbbUf7RVtMlTa2K5u9nXiszInekFip7ydrW3D3U4040Ja+OzwbDI0mhSG7t7uO4J7/0i39ybsr3DQTt5ydMsy7vw0v/C7T9IaBrKIM+uTqDGtU6Oh5YxumPznxFkp/V5BXgC1fq8vYXseTdxs2NePPr3nwaOvJdWUPB5YrPOCuusAuphIsneJGLVWneOlPXkKChRBPwOQ2HF4aghcibyEh89qBXjy7K3N3+HAwBM0AHHjunkVYNsjOFIHD9fj3n/Xo1hEmbeQfF2J1bUqLfdSLhrUH8KnBqlICG568azFWDbW/V6AZD99zDF/WNfjXLirBY3VhPPNa32nNvAYDuffjC3B7pslx7Q148KetuGd4fQOnHBY63E5YnGMR3djcAMyLZHFv054Wn9BgwqQRNXYNnJJwMhiCJg2rltbgjzdVD67+hntQv+EEtrdZUXceVbfKM82L4sbcI/j+zzoy7v296sJaPHlduWbLRBStL27D3L8n15m++8lFuGWBllJKU8PbJ+iLaQid0WJRqQ11naGBWyy78rHlG7MzaDNdeOF7B3BTq2bNwKoCKvz688MRrDkNgul0CAFD0KSFlwadh5vnncKp2/2tWPPTBtyWmtnMLjz3tQWDalACXzMe/MYx3KPP4IMNCAx0oX5zK5558/Sq6WccZjNurnNj9cpSbaBdOH3PEH2cOujjlJ4erPvvelyvewmLSIO4bk4Ols3Kx+zpBSgvyJDX+jqw/aUm3PFGKMutnccnhqDJhJmqQ7fMxerhzOAehMD2XVj5O6pKaXbFFRfX4rFrhtZmGv62FUvWJn9Gs54uoYTO6724T65VbTAItS4Hbr+4AJcvKENtaQ5/d5Khd1lC71LP7dfX4d7zB+mujIYQ8Mm2NYcrTZyDwhOB9+A2uuZEXctoWLf7riIawW0Pn+w6xBrtR3Df7wcKGdZm7rxwKCFD9DVRdShVV6fMvUi/QdUgOIpQd/5sfOkry9Bxz3Ssvz4fd2d56ruSReW45dJa1JZnEAgz3LhbM2aN2QZHbo74Db/UmVGwaDruXTpxi6shaAaDhM3JrUNMRDvwwiPpN6i7+YqqoatMrM2sbcd9qeeb3Vg1b9gjNYC8khSh48aXhkzDu4uG7b2DVzVzC7EsZU2hB5tGe9sZF+ouLcLNmm2iYQiaLJDrEG/Dmq0dWSxupYd3yjySvhHQnINbzs9iL6quRjycRpupXUZaysm+PSF05uLue5bGhc7tp7BZalzBbS1z8vHkp6fj0K0FuGWwZ+fzoD7NIvUJCjB7fsqI2q1d2D7a+3mVF+DaoXomxynGgL1siUTFkof3v3gMWzd3oKejG4f2dmD33hP4y5pWmBaWU91eC6sR2LQPVz8fiq9Vo+fmq2rxqSHbfwKo/1sDbmse2Ix273tnDTqwcHhQPI4clEzJhftAGx7tkK6rl5Xj4fOcWF5kwVmRCCrMJvQHEmvvjHd4o787LyvBvddNwXevn4qrl5aitiwHzpISXHGeBfP39uLJtDXjGCoq3LhkSuaV5HItfVi/MZAYdBkLIWJz4urpWS1kNEJCOLalA4/JXW4nFEZj8KlgRjmOfa42uTt8sD29XW6sv3su6oaq+bQewh3f68CjmjUOVZvWf5vOP9X6aH8DfvCNVtynWe/+0Hx8aVmaghPwir2uG5o92PhkK+4Y4ykRtS4LljljqO+Kaj0zZjxw62LcXDfEPB4e5/RsPW5YGxpYVaqjd3pryjvVE23Bo//WhDuS3u8INjIUjcQetDT4EMh1o652sPV9e7DugXpcf1SzTiAMQXMKGFAgo6145psN+GSGMRBD9lAIfNj+u51pJ9jVrpiMLUONIuYRzD/sRuHKInxgWTVqh9z4jjWw5MW4Hrh1GRVWzZIWus976D5PwfpdUlhIc0GFC8tLpBR1kgZSRxqVoNCN2gJtzUKHfoIq04EXvnUIN2lCb/V7puOhrLZJjiJw8AD+/ef6AZhMDl75ZoahA4LMEyBvWVaGz1xak36zQRLSPS0d2L67F6+97cefUxa7+tJqqsquyLARf/QYHv1Kc8pE3ImBIWhOmtSv2BBb6w46sEtHywHccX/XQG2GyGZxrtSpCrLLtgjXLavMsOaIF5t+sQtX1WvWbEYrn0TG/+5H5+PmhanC4mRI+dpPKsOhO6YmVrAbiv4WPPOzJnxS1zYz5HNO082dhNmMawtMkPJTr3FlZtCP0OF9uP6nvUkTcScKp+otjwssbjvs9LMMvVfWKYS3492FLz/bIhqKe9bvx02D7N9993U1QwsZeLDp6fRChqtNy2cOFUEPtm9Ong/V4AuINM69dxsuuXc7Hn65Ca36LU/727AuLmQYByqGKqU9QSSdMgx6wnSFUyZk0nDUg/rhdATlVuLaL87F+pW2+IJjP9g+xFDeobq5o1E80xXBGvEbWsgsmlGGOzMs/SryxIsTU8gwZ0RjsH3KbFxwy1W44KJFWLByARauWoCpNUG07e+AL8NOB6earYd78cLuDhzcHMi88HleAR64qQqFQ7XhNhzBnc+m3yVh1aoq3D5niNW5wn1oPehDQ1sEjWnSciIYwQsHPHjw1RY891YHrNYInA1d+OQB3fSGolz8y4XFGPRKTcexesvI5sQsmlU0aGPr8HEicPQYHm7WrAijbnIpllcM46tjsqNkbjlumtQPz3Z6jx0m3HRJCQo17wHYTQjvOfnGWV7i88cfmoZ73lORceeNwO6D+OeXgikz/icOE77qZJ+yEJd+4myUpfs4ehvx+m/X4vAQH6bTxaCT7uLQl+tne3BVhk3tHvr82Vg9LUtNIBpCT9MxrHuxC7+sD2FdZkVrILVU9fjHwasePeu3Y/oTI+vTza6dangMWCsom7asTPQcw5pftqDgY0twxSBRtL64ZcD8s1TuvXoyxRFAQ71f67EzoYKEC/ds1Za7h9bsfFRF/TZVUSfwWvajqLueBspnZxYyTM4UXPCJFag8lR/OkVJehA8uyGKQSn0T7su0tITLjWVD17sSmG0oqK3FtbcsxpPfXoBDt5bhoTk2rMomCnpoQ4mBQP/I1cUHj5/6UlNYmNzL1LC9B5mWbB6Sgmqs/mIdzjIPns7yWW6s0szpcWDR0krUzavFFdfPxmrxq8Oqs6tRV52fhZBpwZofTmwhw0xgQePG7NUrkoWM9zBe/fFv8btvPoaX92oqfQ5Vqy4tluYx5N731KB8yKfdg3XPejLWw1ctK8qifScDZhcK6qZi9S0zcfc0zW0Qbq8aSihG0d0+yqtvhb0kzPjXhYbdx1Avfg144cl9WCN+u3Dft7bgNvF7Gx9O1Sx8Huxo0swjwexGecZZ+RqT87F6sHficmLKSBU3sWVzE247A1ZUnLiCZtI0zNPP14m2YeNv16GR1+mJBtG8O1GbddXVZN/7MErc8/s9+MGzQ0xl2HkUd2QcI2HGzQuGnqDU+tpOuk4DGlozfAL7OvB8Fotx1RUNNS+hDydOaMaR0BXAUJWung31qP7GLvodwJJHmrFS/Fpx0xu9uE38vPjBoI2tUTy9Xxt9OFqYi7DoLM2cjnlUPdKM2RNBz9Y9JDwzb9k80Zi4gsadQzqNwod9a17CPtUWQ1+i2efpPtv5Ocii0jK6RCO472WeyrAFD7/ROnAqA8+JejbNxEtFVtWmLryzwUfXacWS7+3Eknu2SaHTnuhd6tnelcWatGYU5g51LR8aTmbgmDcGv2YcTdbs6tPaRUYLqhotyDxA7/baDGNi0hJB4HADHv3hFkz/g2fgmjcTmIkraIIRJPo7GtGoqkosZP7h/VheqauvN7aiUzOOOYEIvvxkA6pJCDy6oS0ucAI7W/CVQRqts6o2tXbhGV0cDb6QFDrf2UZCh7u0D+HpN5O7vdNjQ0HGrhaN/gBGu429oGwEk0ZTyaabO3CSk5QydnObsbx6sJG+GmEPWrfW4wff2YLqn56Zu11M4F6nAsz75/djqSgQEbS99gxeeDOIyvddi0uTFqwibeexJ7CxfpTbE0aKw4aHPlAE/9OUwTKuppZdb1Pg7V348J+8w+tdSsvQ287wgMLb7u/CGs06fLK5RhOeoWpe2pHBVgccDfUo+cXQy3jc+/FFuD3zEF+gvh4PthXhM+ePYOcCQaapARbcvSIXCyfnoTa1Jtrnx/bjlDd3DhwdfCYyobu3LXUrcMNNswepFpEAWvtXPPfaKVhTZizJdjQxE/Whp6l1ZF3aimxG1dbvyaqQZyYLQTMUWaZhyG7uQDMe/NoxrJtXhh/fNBVDtf+mI5tu7nczE7fqRETqN+CpJ/bBk6Ew+Xa/hJcnupAhVq0YRm8T9y4N6NK2ZNh+NwPFVHXSjJnoaTvZNREi6DnZJVzybVitGQdjyG5uRxGWk8R7YXcb5t63HS8cHX5f8tDd3O9uJrSgYYI7N+Av//083j7Qg6DKTOEeHF77DAmhFl07zhA4i1E5dfDNzccGMz6zIItV+NIR79Jegle+k73QWUWCZii6T2TT1jMYYfhHNqg4gcOKCs04KEN2c+egbp52z4EAbnpgJ+57OdF+lhVDdXOfDpwFKFtQg8pJY971MYAJPzL41GDHlI9+EBfNBDq3r8WrzzTDc5qmLgyNGV+6tBQ3ZzkDOyuiHrS+3YR//ZMHz2hOeoYetZs6AXMkZLPFTBc2PdmKhr4AXmjSXsgIdwYYcjZ3mjanRdUF+PVnZ6J2yB44JoDtf9iOS7Zq1tMJfVBqrr0MFy0uFnOKGN/u5/HUmmF8aEeZCa/RnArsi1fggpn8iiwoXnQZbrh+hMPWR4UofpDUc5QyGXIkmN1wBANphQxTVzZUxSkE/0kvvhRCQ5tmzEgA+3i8zPaANlZmZEKGGbKbuzIf16UoAtuP9WDJt7fjmYODzNCOM3g392jB8/wu+sKNuFQnZBjXvBWYOY6ysSFonFOw/NppSS8JdnuyfZygn4F9ckJn4OzuBDbUDjmQ2oeGQZe6PFWYUXiqagFDdnOXYuGyNMUhEMInf7YLX/6bnJ0/AJ5PdqwFm17ehfue8o9gcN4IMdtR+d5rsfpTKzDFLXNrJKpvjHbDnUXP+uniXV51sqPmQ/Q1mJPSNtO+AX/56T5wM3LBxeeh5shm7D4yXpTQgfCSlbdcVoorF5VlWGsmBV4U61tteFCzJjPUgk8KKnU+PwJ9HjS0h9HT0icGBm48EESjN4IXsmgrHrLbObXb2GHG6hzOskShA1dUa13d+U4squT7pusPsuLf0N3ce7DkF3Q/mjWVWtJ6HvvMLNQ5e9CwuwebtnTj0ZH27J0MlTNx0UcTAoYFf+Pal7D+tU4UvO8mXLWY8nP4MD2L/Wg71obO7rHvDXtXCxr7gvNww40zSdykoARN+Txc9blzUIYIPIc24OXHDoh1VMYzCaFTQUInvV7W+vIWzH02Q+Yz52PLd2af/JdZ28fI396NEy09uH+NZ8CYm6HbgqgEhyl7WrPVL6Oof+xtrHxbs6aQbTf3PZp13FI+G1d9Vj/PL4gDTzyB9buBmtWpH87xMcTj3Vt1ctZg6XvTCBmmuBBusxvzVrOQYSxwT5+FmrGfmzkk2/sCuOPJZqpebcEl39mJNW+0oCegFypdeOftQb5w1Y7M668MB20fo4LaatRVWjCyaVGUPbMWMgyH14xpyLabe9zTug+vv9ZGIkRhx8z3XolrvvBBEjIWBD0+nZ8FZReejSlpM/rp410qaKjK9L5VmBlfPiKCwxt3JKYpmC0ovnAVlurmMPa89SZ2j5N1bbJle7sPtz3ZhOlf0wmdox1J0xQGUDP08hDDpj+Sdkb6aCwV4XANkqUH6+YWbS296B7NVf9OIZ7X1uHtFt0Hw1mMYmcb3v7t4/jjDx7HC9t0VX36aLrGuL3mXSlo7HPOxkqdehk5sA4bN3t1X4FpWHyB1GUE3Vvx6osTZZOR9MSFzgMZlgjVuKX01I/B6Ok62cF92ZO6Jk0yKbO5A11o2HoEax7ehuv/bRum/7AJN+0+3Q0uI8WDfU9sRps+udZiFPAcTncxKvVz/bob0DLGWyG/OzUabzfaPJpYiR7G6080ItjrE42/Egss8SfTg21P7Bj5TpUTjJ7WbtTvbkFrjxeBpCrXyDlxPEMPl+/UxD8c1mxtxQvcQ3TvJpR87QCW/KENt+0dgwbdTOSXoXJSltXFdqpCrU2pQl3/QXz0C9disSZoIp4DePW3uwfv2j8NvHsbg8Ugp4sxpfElrBdqZiWW33MlZkvfOD1v/RVPPZ/la2LhdAYKpFUFFlQUcy+PTS5BmetARY0LTlcOdwQNwSCD+4a7U0E27N6Dkkcm4LQTEjAzr1yB5fOKYenejKd+nK1wcGHap27EBVNShVMEndvW4tX/Gx+DT42RwXHKsPTLV2OeftlP724894MU9XQQ7ItXYfWldux+cQN27PTw5pZnPtqWInWTczG71IG6WjsKSgtRmWuCI5erYcn7LSWRjaDhzeq0giJ6sLSxMKI7XRs02HOsHxt5wTM2Z9m1Pm6gas7Mq86TAkZzYiFx4InHsH5nlhpf/jRc+s+rUKOEvrcRG9e8iX3jaEiGIWjiuDH78zdiebwB2Ifdjz6Ot9NtRZAW/bIVlFWCbdj3f+uw7d0icDJQ6zKjwJdpqxEL7j4/F1PINKGFxUhwF2DapauwMmVEb8TTiG3/txm79w5PK3Mtvww3XFWJnnE3hUZiCBo9xdOw8lPnYabbAt+WZ7HmmSHHyMexLFqFD1+fMsKYEALn+TexY5tu0qfBuxrX8ovxviunwK6rdkY8zUIT3rZ9pNU+O9zlgKd1fA4s5XJhbPKv8HXj6IZ9OBrtQuNLzbzaZJYUYO6Hz+We4QGYLbkoq5uDuedWw+5tQ8fxgK7xzuDdSLjPhIoVtcjnz7ygDZt//jx2UVXHPWceVr6vDN3vtCEwLBUggmD/+M1ZhqBJJRaBr6F7GEKGtZnluHxxUaIL79ibWPOLLeh0laCyPBcWylAscOyd+7D74JleJzAYkkA3PPl1mFmlpovkopjySfElF2LlkkkoyMlF8OgBtHSdOZUNQ9CcNAO1meCJJhzedxwtOw5g11sH0eHMR1l5H7Y/sQfdhpwxILyNHuSvnIoiTauxFRajyOZF4/q1ePn3b6OxIwZLeQ3Oev9kRHa1DevDNx4x2mhOkgFtM9EIImYL2SPo3L0B6587gE6udvPQ+HE+T8rgJKH37p46DTMrO7HtzaGXwy+48v1437mJPrfgtmfxx6fagOIaLL5+BeZNcot81PzcE3h548TeQc7QaE4KN+o+cB4mx5chCWLf43/GC+tOAJUVmDwjF50bDqKTtRijIfjMZubZWH3b5Vi4eDIqrCewd1v3kG1xgWZfklZjqSxHxYz5OPfyOajMt2tVcTPyK4M4ur4VE1nUDDncyiAzljnzsThpTzcf7IUFsHc2Y9uvnsCaH63FgZNeIMpgPGKprMTsc8sSk3KtdrjUhM4ce8J9MPyN2PGWflheASqFFqMR9aDxzefxlx/r5uFNUAyN5iSw5biQO6kaxTlKXjtRNGMW5q2cjNxQF1ob+hA2NJkzCvu8FbjmlouxbPks1MyYBNvxfWjuiIlJjTPOrpICxtuMvZs6slpGM3CUtJrzElqNgARM89vr8NJvNmL/Ac8ZMSzCEDQnQaSnE0c37cDe/b0wT6pCca5FqohmF4qFwJmK3L5GHG0xGmcmLPnFJFDs8LYFRGNmpGQSli9SE25tKJ3uQOvmZngsRZi6bBJy2XkYgoYyEWkr1Zg7lc5UAuZ3G7Fvb98ZNe7KEDSngEhfN45v3ol9AwRON/Y9u0+20QyFnV5FxGiXHxfQh6Jy1WIsv+ESXHDRHEybVwu70lxKJ+Gs+br6sq0U1fknsK/RiRkjETRE8LgHYecRbFAC5gwcaGUImlOIEji797TDMmUS3PvfxOvbs1nYugDzbv8grrikGm6zB92U8YaV2cx2FMyfibnnzcSUOZNQXBhBuNcDn9GVPjJipIHWnoWls91aI6ZOc4m4Ua0Eioatohr2w00Izq+FWBttmIIGEQ/a9p+ZAkZhdG+PJpxLs1F/cyqx+BMXY165WhQ9guDOtVjzRPOQPRdwVmL55y/D7Pj6sQqKo3U3Xn10K1om4GTmsWfgrGjf9ufxl9cLcMXnV4iVF3kxcItZ8/f64MtxyV1TdWtOG0gMjWY0yVaEhzxoIU1ox/qDaA3bkFtehM6330JDy9ARFFx8Gc6foRarIuHiITXGbiMZZ4YltwIzzipC34Ej6D7ZXSHfdYTRvbcNzrNnQG2nlaq5HF+3CR2TJ8mGXJuN9B4NZz+Ovkbaj2Y1MATN+CIShKehCYfe3IHGVhIyWQiqoiUrMEO1TXZvwd9+9Co2v3EQHQUVmFLhgtlWgClT/Tg0pCrvRtmSMhS5zAiE6MLhCGLZCsozlTB9ANqdmLmgVBMiVIWaVg6XJlQChzfi9U1mzJiv/DVMHTj0qiFo9BhVpwmOXB6gRqtykXp/ZANefmIfOj12VL5vFWqObs5u5rh9Ci746sWYplkFURJ8Hvq1NqOnuxttjR4yt6Ct9fQ2Jrim1qDY7ULxzBK4cgpQU+6GJcctx61QGtv2vilWScy0B/vJ4r7warzv4rL4M1a0rX0Cz70WROXq9+OKefolUPfhhXs34LRsfTVBMATNhMeOsmuvxBVLdOua8ECv19Zi/eud2XeRls7GVVrbw6AMp/2B11w5dxFpBGWkL0k8rftxYO0+HD6WbVOpBVM++jGxXfFgBHc/jzVrWoZu0xoRbsz+7PuxXL8OLyEFDT0JcxmWfulqzMuJoKdxH/a9tRf7hrmezJmOUXWayJjtKK61o2PjTuxr8CN/RhUKeJETkx0FU+swd6Yfh7dRlSmbT0k0DM+JZrR2heANmJFf7BrwBRcc2Y3Nu4cuRPaZ5+Cqz6zC7ClFcDvssGs/d3EVpiyZi8l5LWio1y8In4kYXDMWYEaF7P+R7VDdaDnUgnBhEdSmB5YyJ3rePozurLt6hkMQHbuS22sY75E9ONBAF4x5cXx7Pfa/sgW7thxDR/uoJGJCYwiaiUphDZbfcg1Wnjsd+T2HcXgvFVxeS8daihmTZbesOW8Sqq1HsO9QFv3c4QBpG33oPNSM5lARlujGirSs/SteeLkRxw+fQEtrGzrbhhiA6JyClZ9dhmolG0g4+Hq9iNnsYskM7o5zVU1HbtduNJ7IQgqWT5ID2gRh7PvTE3jzdUqPSRvoJgigZesBdGQzmmAkJLXXkLDrPo79mw+gTS3lEAwbo8AHIZ4VDCYW9spJqBFbi7gw7X034oabZ6OsMILOtdtxQCcHCkawebWrVL9THlUHWnrgOdqC5p0HcGD30FP77ItmYZouZzU+8zjW/OgJ/PH769CoufE3btqSKVnNCfJ06ucDkWakJrEm5d4ggn7NOEpE6jfguceex1Pf/T3++OOXsPvQGTzw5RRjCJoJSnDvBvztsd3oFF9R3klzBa76x4/h43ddidnx3RojaG4c/kYb7kL9cuGd6BnmjL6Ccn1LTxtaGrWqhN+XPAM528mHXhIimpGZdu1N+Og9n8ANFyau49u+C42noVnEU9+CnlEWaGcihqCZwAQPbMbffvQM1u9uS9PoS9rN5pfw+ubhLi5ggStfX/xJmxmmoLE4sxIf2dPbl7T1iMWuDWzkXrH2Zux48gmseXK0GoINTgVGr9OZgpW0msoyqipREQz60NPYCc+Ivrwpu0H0bsVTP9oxrA3IKld/AlfM0yyk0Wz86bPYJ3ZKTNk7K+serJTzGt/Emt8egM9oE5kwGBrNmUI4orWjNKO5fqRChnGjQL/GTkq1JRt6WvS7RxQn4hMrD+oIs96VDVTl0q/rk0PxGEJmQmEIGoNkigvkxEBFZ8+wV3bz7T1EeozCgtk3vh+Xfug8XPrPFyMxHCaC5m2NWcZNwk7fm1RaGB+XYzAxMLq3DZIJ9KHt2Ak0H+tBsL8XR+sb0do6zPV0vB1oiVSgbpo2+9nsRH5pMfIdie9a5NgmvPy3luzG+JDqY5t2FmaUyW7yQMcJHNrZOhZbdxuMEKONxmDUsE+diaWXn41p1YnBfxFvCw6/vhlvbxzGqGWDCY8haAwMDEYdo43GwMBg1DEEjYGBwahjCBoDA4NRxxA0BgYGo44haAwMDEYdQ9AYGBiMOoagMTAwGHUMQWNgYDDqGILGwMBg1DEEjYGBwahjCBoDA4NRxxA0BgYGo44haAwMDEYZ4P8DPnXObhJky8EAAAAASUVORK5CYII=;fontFamily=DM Sans;fontSource=https%3A%2F%2Ffonts.googleapis.com%2Fcss%3Ffamily%3DDM%2BSans;" parent="1" vertex="1">
          <mxGeometry x="362" y="51" width="103" height="100.44" as="geometry" />
        </mxCell>
        <mxCell id="CXeEJhUWbDnMOtifJaz--29" value="&lt;font style=&quot;font-size: 14px;&quot;&gt;Welcome to VeggieLens!&lt;/font&gt;" style="text;html=1;strokeColor=none;fillColor=none;align=left;verticalAlign=middle;whiteSpace=wrap;rounded=0;fontSize=14;fontStyle=1;fontFamily=DM Sans;fontSource=https%3A%2F%2Ffonts.googleapis.com%2Fcss%3Ffamily%3DDM%2BSans;" parent="1" vertex="1">
          <mxGeometry x="326" y="154.70000000000005" width="178" height="21.6" as="geometry" />
        </mxCell>
      </root>
    </mxGraphModel>
  </diagram>
</mxfile>
